<svg xmlns="http://www.w3.org/2000/svg" xmlns:xlink="http://www.w3.org/1999/xlink" width="396" height="323.242" viewBox="0 0 396 323.242">
  <defs>
    <clipPath id="clip-path">
      <path id="Rectángulo_454558" data-name="Rectángulo 454558" d="M6.7,0H219.461a6.7,6.7,0,0,1,6.7,6.7v0a6.7,6.7,0,0,1-6.7,6.7H6.7A6.7,6.7,0,0,1,0,6.7v0A6.7,6.7,0,0,1,6.7,0Z" fill="none"/>
    </clipPath>
    <clipPath id="clip-path-2">
      <path id="Rectángulo_454560" data-name="Rectángulo 454560" d="M6.7,0h99.686a6.7,6.7,0,0,1,6.7,6.7v0a6.7,6.7,0,0,1-6.7,6.7H6.7A6.7,6.7,0,0,1,0,6.7v0A6.7,6.7,0,0,1,6.7,0Z" fill="none"/>
    </clipPath>
    <clipPath id="clip-path-3">
      <rect id="Rectángulo_454564" data-name="Rectángulo 454564" width="52.379" height="89.065" rx="26.19" fill="none"/>
    </clipPath>
    <clipPath id="clip-path-4">
      <rect id="Rectángulo_454566" data-name="Rectángulo 454566" width="45.785" height="71.405" rx="22.893" fill="none"/>
    </clipPath>
    <clipPath id="clip-path-5">
      <rect id="Rectángulo_454570" data-name="Rectángulo 454570" width="52.171" height="60.79" fill="none"/>
    </clipPath>
    <clipPath id="clip-path-6">
      <path id="Trazado_991897" data-name="Trazado 991897" d="M2082.377,2479.559a3.058,3.058,0,0,0-3,3.658c1.924,9.622,7.09,35.452,8.708,43.542a3.059,3.059,0,0,0,3,2.458h54.7a3.058,3.058,0,0,0,2.967-2.317l8.4-33.611a3.058,3.058,0,0,0-2.967-3.8h-35.81l-10.483-9.932Z" transform="translate(-2079.319 -2479.559)" fill="none"/>
    </clipPath>
    <clipPath id="clip-path-7">
      <rect id="Rectángulo_454581" data-name="Rectángulo 454581" width="27.769" height="32.357" fill="none"/>
    </clipPath>
    <clipPath id="clip-path-8">
      <path id="Trazado_991918" data-name="Trazado 991918" d="M936.1,2896.224a1.627,1.627,0,0,0-1.6,1.946l4.635,23.177a1.628,1.628,0,0,0,1.6,1.309h29.113a1.628,1.628,0,0,0,1.579-1.233l4.473-17.89a1.628,1.628,0,0,0-1.579-2.023H955.255l-5.58-5.286Z" transform="translate(-934.468 -2896.224)" fill="none"/>
    </clipPath>
    <clipPath id="clip-path-9">
      <rect id="Rectángulo_454592" data-name="Rectángulo 454592" width="26.085" height="30.395" fill="none"/>
    </clipPath>
    <clipPath id="clip-path-10">
      <path id="Trazado_991945" data-name="Trazado 991945" d="M2158.276,682.176a1.53,1.53,0,0,0-1.5,1.829c.962,4.811,3.545,17.726,4.354,21.771a1.529,1.529,0,0,0,1.5,1.229h27.348a1.529,1.529,0,0,0,1.484-1.158c.824-3.294,3.185-12.739,4.2-16.805a1.529,1.529,0,0,0-1.483-1.9h-17.905l-5.242-4.966Z" transform="translate(-2156.747 -682.176)" fill="none"/>
    </clipPath>
  </defs>
  <g id="Grupo_1177509" data-name="Grupo 1177509" transform="translate(-498.711 -6778)">
    <g id="Grupo_1119664" data-name="Grupo 1119664" transform="translate(319.191 3522.588)">
      <rect id="Rectángulo_402012" data-name="Rectángulo 402012" width="395.52" height="323.242" transform="translate(179.52 3255.412)" fill="#efe9fb"/>
      <rect id="Rectángulo_402030" data-name="Rectángulo 402030" width="395.52" height="60.224" transform="translate(180 3518.43)" fill="#bfaaef"/>
    </g>
    <g id="Grupo_1177019" data-name="Grupo 1177019" transform="translate(529 6785.501)">
      <g id="Grupo_1176978" data-name="Grupo 1176978" transform="translate(61.981 285.392)">
        <g id="Grupo_1177028" data-name="Grupo 1177028" transform="translate(0 0)">
          <path id="Trazado_991849" data-name="Trazado 991849" d="M1228.2,3332.653v6.7a3.35,3.35,0,0,1-3.348,3.348H1005.392a3.35,3.35,0,0,1-3.348-3.348v-6.7a3.35,3.35,0,0,1,3.348-3.348h219.461a3.35,3.35,0,0,1,3.348,3.348" transform="translate(-1002.044 -3329.305)" fill="#7aa8c2" fill-rule="evenodd"/>
        </g>
      </g>
      <g id="Grupo_1176980" data-name="Grupo 1176980" transform="translate(61.981 285.392)">
        <g id="Grupo_1176979" data-name="Grupo 1176979" clip-path="url(#clip-path)">
          <path id="Trazado_991850" data-name="Trazado 991850" d="M1106.128,3329.3s-.022.847-.051,2a6.671,6.671,0,0,1-6.563,6.5l-97.47,1.542v3.348l123.685,6.735V3329.3Z" transform="translate(-1002.044 -3329.305)" fill="#5e8faa" fill-rule="evenodd"/>
        </g>
      </g>
      <g id="Grupo_1176982" data-name="Grupo 1176982" transform="translate(61.766 285.177)">
        <g id="Grupo_1177027" data-name="Grupo 1177027">
          <path id="Trazado_991851" data-name="Trazado 991851" d="M1222.567,3340.626H1003.106a3.567,3.567,0,0,1-3.562-3.563v-6.7a3.567,3.567,0,0,1,3.562-3.562h219.461a3.567,3.567,0,0,1,3.562,3.563v6.7a3.567,3.567,0,0,1-3.562,3.563m-219.461-13.393a3.137,3.137,0,0,0-3.134,3.134v6.7a3.137,3.137,0,0,0,3.134,3.134h219.461a3.137,3.137,0,0,0,3.134-3.134v-6.7a3.137,3.137,0,0,0-3.134-3.134Z" transform="translate(-999.544 -3326.804)" fill="#3d6e9a"/>
          <path id="Trazado_991852" data-name="Trazado 991852" d="M1563.843,3329.3h-24.271l1.086,3.289h22.1Z" transform="translate(-1493.28 -3329.09)" fill="#2c4d5f" fill-rule="evenodd"/>
          <path id="Trazado_991853" data-name="Trazado 991853" d="M1560.471,3330.521h-22.1a.215.215,0,0,1-.2-.147l-1.086-3.289a.214.214,0,0,1,.2-.281h24.271a.214.214,0,0,1,.2.281l-1.086,3.289a.214.214,0,0,1-.2.147m-21.945-.428h21.79l.945-2.86h-23.679Z" transform="translate(-1490.994 -3326.804)" fill="#3d6e9a"/>
          <path id="Trazado_991854" data-name="Trazado 991854" d="M2434.263,3332.653v6.7a3.35,3.35,0,0,1-3.349,3.348H2324.532a3.349,3.349,0,0,1-3.348-3.348v-6.7a3.35,3.35,0,0,1,3.348-3.348h106.382a3.35,3.35,0,0,1,3.349,3.348" transform="translate(-2207.891 -3329.09)" fill="#6599b5" fill-rule="evenodd"/>
        </g>
      </g>
      <g id="Grupo_1176984" data-name="Grupo 1176984" transform="translate(175.059 285.392)">
        <g id="Grupo_1176983" data-name="Grupo 1176983" clip-path="url(#clip-path-2)">
          <path id="Trazado_991855" data-name="Trazado 991855" d="M2419.578,3329.3h14.685V3342.7H2321.184V3337.7h91.465a6.926,6.926,0,0,0,6.926-6.914c0-.883,0-1.486,0-1.486" transform="translate(-2321.184 -3329.305)" fill="#4f829d" fill-rule="evenodd"/>
        </g>
      </g>
      <g id="Grupo_1176986" data-name="Grupo 1176986" transform="translate(61.981 169.647)">
        <g id="Grupo_1177020" data-name="Grupo 1177020">
          <path id="Trazado_991856" data-name="Trazado 991856" d="M2428.628,3340.626H2322.246a3.567,3.567,0,0,1-3.562-3.563v-6.7a3.567,3.567,0,0,1,3.563-3.562h106.382a3.567,3.567,0,0,1,3.563,3.563v6.7a3.567,3.567,0,0,1-3.562,3.563m-106.382-13.393a3.137,3.137,0,0,0-3.134,3.134v6.7a3.137,3.137,0,0,0,3.134,3.134h106.382a3.137,3.137,0,0,0,3.134-3.134v-6.7a3.137,3.137,0,0,0-3.134-3.134Z" transform="translate(-2205.819 -3211.274)" fill="#3d6e9a"/>
          <path id="Trazado_991857" data-name="Trazado 991857" d="M1656.79,1985.247v108.162a3.686,3.686,0,0,1-3.684,3.684H1470.774a3.686,3.686,0,0,1-3.684-3.684V1985.247a3.686,3.686,0,0,1,3.684-3.684h182.331a3.686,3.686,0,0,1,3.684,3.684" transform="translate(-1427.226 -1981.349)" fill="#5087a5" fill-rule="evenodd"/>
          <path id="Trazado_991858" data-name="Trazado 991858" d="M1650.819,2095.022H1468.488a3.9,3.9,0,0,1-3.9-3.9V1982.962a3.9,3.9,0,0,1,3.9-3.9h182.331a3.9,3.9,0,0,1,3.9,3.9v108.161a3.9,3.9,0,0,1-3.9,3.9m-182.331-115.53a3.474,3.474,0,0,0-3.47,3.47v108.161a3.474,3.474,0,0,0,3.47,3.47h182.331a3.474,3.474,0,0,0,3.47-3.47V1982.962a3.474,3.474,0,0,0-3.47-3.47Z" transform="translate(-1424.94 -1979.063)" fill="#3d6e9a"/>
          <path id="Trazado_991859" data-name="Trazado 991859" d="M1617.044,1985.247v108.162a3.686,3.686,0,0,1-3.684,3.684H1431.028a3.686,3.686,0,0,1-3.684-3.684V1985.247a3.686,3.686,0,0,1,3.684-3.684h182.331a3.686,3.686,0,0,1,3.684,3.684" transform="translate(-1390.886 -1981.349)" fill="#98bacd" fill-rule="evenodd"/>
          <path id="Trazado_991860" data-name="Trazado 991860" d="M1611.073,2095.022H1428.743a3.9,3.9,0,0,1-3.9-3.9V1982.962a3.9,3.9,0,0,1,3.9-3.9h182.331a3.9,3.9,0,0,1,3.9,3.9v108.161a3.9,3.9,0,0,1-3.9,3.9m-182.331-115.53a3.474,3.474,0,0,0-3.47,3.47v108.161a3.474,3.474,0,0,0,3.47,3.47h182.331a3.474,3.474,0,0,0,3.47-3.47V1982.962a3.474,3.474,0,0,0-3.47-3.47Z" transform="translate(-1388.601 -1979.063)" fill="#3d6e9a"/>
          <rect id="Rectángulo_454561" data-name="Rectángulo 454561" width="176.229" height="102.06" transform="translate(43.193 6.949)" fill="#2c4d5f"/>
          <rect id="Rectángulo_454562" data-name="Rectángulo 454562" width="168.724" height="94.555" transform="translate(46.945 10.702)" fill="#345c71"/>
          <path id="Trazado_991861" data-name="Trazado 991861" d="M1679.859,2160.123H1503.629a.214.214,0,0,1-.214-.214v-102.06a.214.214,0,0,1,.214-.214h176.229a.214.214,0,0,1,.214.214v102.06a.214.214,0,0,1-.214.214m-176.015-.429h175.8V2058.063h-175.8Z" transform="translate(-1460.437 -2050.899)" fill="#3d6e9a"/>
          <path id="Trazado_991862" data-name="Trazado 991862" d="M2491.68,3388.4v1.7a.852.852,0,0,1-.851.852h-45.058a.852.852,0,0,1-.852-.852v-1.7a.852.852,0,0,1,.852-.852h45.058a.852.852,0,0,1,.851.852" transform="translate(-2321.233 -3266.807)" fill="#2c4d5f" fill-rule="evenodd"/>
          <path id="Trazado_991863" data-name="Trazado 991863" d="M2488.542,3388.88h-45.057a1.067,1.067,0,0,1-1.066-1.066v-1.7a1.067,1.067,0,0,1,1.066-1.066h45.057a1.067,1.067,0,0,1,1.066,1.066v1.7a1.067,1.067,0,0,1-1.066,1.066m-45.057-3.408a.639.639,0,0,0-.638.638v1.7a.638.638,0,0,0,.638.637h45.057a.638.638,0,0,0,.638-.637v-1.7a.639.639,0,0,0-.638-.638Z" transform="translate(-2318.948 -3264.521)" fill="#3d6e9a"/>
          <path id="Trazado_991864" data-name="Trazado 991864" d="M3087.318,3388.4v1.7a.852.852,0,0,1-.852.852h-12.4a.852.852,0,0,1-.852-.852v-1.7a.852.852,0,0,1,.852-.852h12.4a.852.852,0,0,1,.852.852" transform="translate(-2895.673 -3266.807)" fill="#2c4d5f" fill-rule="evenodd"/>
          <path id="Trazado_991865" data-name="Trazado 991865" d="M3084.181,3388.88h-12.4a1.067,1.067,0,0,1-1.066-1.066v-1.7a1.067,1.067,0,0,1,1.066-1.066h12.4a1.067,1.067,0,0,1,1.066,1.066v1.7a1.068,1.068,0,0,1-1.066,1.066m-12.4-3.408a.639.639,0,0,0-.638.638v1.7a.638.638,0,0,0,.638.637h12.4a.638.638,0,0,0,.637-.637v-1.7a.639.639,0,0,0-.637-.638Z" transform="translate(-2893.387 -3264.521)" fill="#3d6e9a"/>
          <path id="Trazado_991866" data-name="Trazado 991866" d="M1054.423,2451.819v78.5a5.285,5.285,0,0,1-5.283,5.283h-41.814a5.285,5.285,0,0,1-5.283-5.283v-78.5a5.285,5.285,0,0,1,5.283-5.283h41.814a5.285,5.285,0,0,1,5.283,5.283" transform="translate(-1002.044 -2406.464)" fill="#76aac6" fill-rule="evenodd"/>
        </g>
      </g>
      <g id="Grupo_1176988" data-name="Grupo 1176988" transform="translate(61.981 209.719)">
        <g id="Grupo_1176987" data-name="Grupo 1176987" clip-path="url(#clip-path-3)">
          <path id="Trazado_991867" data-name="Trazado 991867" d="M1058.047,2458.762a5.276,5.276,0,0,1,2.126,4.235v78.5a5.286,5.286,0,0,1-5.283,5.283h-41.813a5.286,5.286,0,0,1-4.744-2.957,5.259,5.259,0,0,0,3.157,1.048H1053.3a5.285,5.285,0,0,0,5.283-5.282v-78.5a5.256,5.256,0,0,0-.539-2.325" transform="translate(-1007.793 -2457.714)" fill="#5789a5" fill-rule="evenodd"/>
          <path id="Trazado_991868" data-name="Trazado 991868" d="M1004.17,2534.552a5.277,5.277,0,0,1-2.126-4.235v-78.5a5.285,5.285,0,0,1,5.283-5.283h41.814a5.286,5.286,0,0,1,4.744,2.957,5.259,5.259,0,0,0-3.157-1.048h-41.814a5.285,5.285,0,0,0-5.283,5.283v78.5a5.26,5.26,0,0,0,.539,2.326" transform="translate(-1002.044 -2446.536)" fill="#9dc2d7" fill-rule="evenodd"/>
        </g>
      </g>
      <g id="Grupo_1176990" data-name="Grupo 1176990" transform="translate(61.766 209.505)">
        <g id="Grupo_1177029" data-name="Grupo 1177029">
          <path id="Trazado_991869" data-name="Trazado 991869" d="M1046.855,2533.529h-41.814a5.5,5.5,0,0,1-5.5-5.5v-78.5a5.5,5.5,0,0,1,5.5-5.5h41.814a5.5,5.5,0,0,1,5.5,5.5v78.5a5.5,5.5,0,0,1-5.5,5.5m-41.814-89.064a5.074,5.074,0,0,0-5.068,5.068v78.5a5.074,5.074,0,0,0,5.068,5.068h41.814a5.074,5.074,0,0,0,5.069-5.068v-78.5a5.074,5.074,0,0,0-5.069-5.068Z" transform="translate(-999.544 -2444.036)" fill="#3d6e9a"/>
          <path id="Trazado_991870" data-name="Trazado 991870" d="M1086.29,2517.695v62.169a4.62,4.62,0,0,1-4.618,4.618h-36.55a4.62,4.62,0,0,1-4.618-4.618v-62.169a4.62,4.62,0,0,1,4.618-4.618h36.55a4.62,4.62,0,0,1,4.618,4.618" transform="translate(-1036.993 -2507.158)" fill="#39657f" fill-rule="evenodd"/>
        </g>
      </g>
      <g id="Grupo_1176992" data-name="Grupo 1176992" transform="translate(65.277 215.424)">
        <g id="Grupo_1176991" data-name="Grupo 1176991" clip-path="url(#clip-path-4)">
          <path id="Trazado_991871" data-name="Trazado 991871" d="M1018.142,2498.406l49.082-18.962-3.3,7.5-45.785,22.719Zm-2.1,50.425,89.718-42.5L1100.6,2520.9l-82.992,49.112Z" transform="translate(-1018.142 -2482.327)" fill="#467d9c" fill-rule="evenodd"/>
        </g>
      </g>
      <g id="Grupo_1176994" data-name="Grupo 1176994" transform="translate(65.063 103.295)">
        <g id="Grupo_1177021" data-name="Grupo 1177021" transform="translate(0 0)">
          <path id="Trazado_991872" data-name="Trazado 991872" d="M1079.387,2582.41h-36.55a4.837,4.837,0,0,1-4.832-4.832v-62.169a4.837,4.837,0,0,1,4.832-4.832h36.55a4.838,4.838,0,0,1,4.832,4.832v62.169a4.837,4.837,0,0,1-4.832,4.832m-36.55-71.405a4.409,4.409,0,0,0-4.4,4.4v62.169a4.408,4.408,0,0,0,4.4,4.4h36.55a4.408,4.408,0,0,0,4.4-4.4v-62.169a4.409,4.409,0,0,0-4.4-4.4Z" transform="translate(-1038.005 -2398.662)" fill="#3d6e9a"/>
          <path id="Trazado_991873" data-name="Trazado 991873" d="M1283.982,1349.279a.643.643,0,0,1-.643-.643v-46.668a13.992,13.992,0,0,1,13.992-13.992h63.328a12.706,12.706,0,0,0,12.706-12.706v-21.661a.643.643,0,1,1,1.286,0v21.661a13.992,13.992,0,0,1-13.992,13.992h-63.328a12.706,12.706,0,0,0-12.706,12.706v46.668a.643.643,0,0,1-.643.643m110.032-50.014a.643.643,0,0,1-.643-.643v-50.015a.643.643,0,1,1,1.286,0v50.015a.643.643,0,0,1-.643.643" transform="translate(-1262.308 -1244.282)" fill="#3d6e9a"/>
          <path id="Trazado_991874" data-name="Trazado 991874" d="M2301.791,1255.464a3.681,3.681,0,1,1-3.681,3.681,3.683,3.683,0,0,1,3.681-3.681" transform="translate(-2190.092 -1251.14)" fill="#467d9c" fill-rule="evenodd"/>
          <path id="Trazado_991875" data-name="Trazado 991875" d="M2294.935,1256.612a4.324,4.324,0,1,1,4.325-4.324,4.329,4.329,0,0,1-4.325,4.324m0-7.363a3.039,3.039,0,1,0,3.039,3.039,3.042,3.042,0,0,0-3.039-3.039" transform="translate(-2183.236 -1244.282)" fill="#3d6e9a"/>
          <path id="Trazado_991876" data-name="Trazado 991876" d="M2535.173,1212.517a3.681,3.681,0,1,1-3.682,3.682,3.683,3.683,0,0,1,3.682-3.682" transform="translate(-2403.468 -1211.874)" fill="#467d9c" fill-rule="evenodd"/>
          <path id="Trazado_991877" data-name="Trazado 991877" d="M2528.316,1213.666a4.324,4.324,0,1,1,4.324-4.324,4.329,4.329,0,0,1-4.324,4.324m0-7.363a3.038,3.038,0,1,0,3.039,3.038,3.042,3.042,0,0,0-3.039-3.038" transform="translate(-2396.611 -1205.017)" fill="#3d6e9a"/>
          <path id="Trazado_991878" data-name="Trazado 991878" d="M1952.735,1878.932V1982.41a3.525,3.525,0,0,1-3.523,3.523H1836.019a3.525,3.525,0,0,1-3.523-3.523V1878.932a3.525,3.525,0,0,1,3.523-3.523h113.193a3.525,3.525,0,0,1,3.523,3.523" transform="translate(-1764.391 -1817.942)" fill="#fff" fill-rule="evenodd"/>
          <path id="Trazado_991879" data-name="Trazado 991879" d="M1946.926,1983.861H1833.733a3.742,3.742,0,0,1-3.738-3.737V1876.646a3.742,3.742,0,0,1,3.738-3.737h113.193a3.742,3.742,0,0,1,3.738,3.737v103.478a3.742,3.742,0,0,1-3.738,3.737m-113.193-110.524a3.313,3.313,0,0,0-3.309,3.309v103.478a3.313,3.313,0,0,0,3.309,3.309h113.193a3.313,3.313,0,0,0,3.309-3.309V1876.646a3.313,3.313,0,0,0-3.309-3.309Z" transform="translate(-1762.105 -1815.656)" fill="#3d6e9a"/>
          <path id="Trazado_991880" data-name="Trazado 991880" d="M2381.845,1949.594a2.226,2.226,0,0,1-2.225,2.225H2337a2.225,2.225,0,1,1,0-4.449h42.62a2.226,2.226,0,0,1,2.225,2.225" transform="translate(-2223.615 -1883.734)" fill="#85a6be" fill-rule="evenodd"/>
          <path id="Trazado_991881" data-name="Trazado 991881" d="M2377.334,1949.748h-42.62a2.439,2.439,0,0,1,0-4.878h42.62a2.439,2.439,0,1,1,0,4.878m-42.62-4.45a2.01,2.01,0,1,0,0,4.021h42.62a2.01,2.01,0,1,0,0-4.021Z" transform="translate(-2221.329 -1881.449)" fill="#3d6e9a"/>
          <path id="Trazado_991882" data-name="Trazado 991882" d="M2925.254,1949.594a2.226,2.226,0,0,1-2.225,2.225h-16.141a2.225,2.225,0,1,1,0-4.449h16.141a2.226,2.226,0,0,1,2.225,2.225" transform="translate(-2744.651 -1883.734)" fill="#85a6be" fill-rule="evenodd"/>
          <path id="Trazado_991883" data-name="Trazado 991883" d="M2920.744,1949.748H2904.6a2.439,2.439,0,1,1,0-4.878h16.141a2.439,2.439,0,0,1,0,4.878m-16.141-4.45a2.01,2.01,0,1,0,0,4.021h16.141a2.01,2.01,0,1,0,0-4.021Z" transform="translate(-2742.365 -1881.449)" fill="#3d6e9a"/>
          <path id="Trazado_991884" data-name="Trazado 991884" d="M1925.18,1947.37a2.378,2.378,0,1,1-2.378,2.378,2.379,2.379,0,0,1,2.378-2.378" transform="translate(-1846.956 -1883.734)" fill="#85a6be" fill-rule="evenodd"/>
          <path id="Trazado_991885" data-name="Trazado 991885" d="M1922.894,1950.054a2.592,2.592,0,1,1,2.592-2.592,2.6,2.6,0,0,1-2.592,2.592m0-4.756a2.164,2.164,0,1,0,2.164,2.164,2.166,2.166,0,0,0-2.164-2.164" transform="translate(-1844.67 -1881.449)" fill="#3d6e9a"/>
          <path id="Trazado_991886" data-name="Trazado 991886" d="M2001.456,1947.37a2.378,2.378,0,1,1-2.378,2.378,2.379,2.379,0,0,1,2.378-2.378" transform="translate(-1916.693 -1883.734)" fill="#85a6be" fill-rule="evenodd"/>
          <path id="Trazado_991887" data-name="Trazado 991887" d="M1999.17,1950.054a2.592,2.592,0,1,1,2.592-2.592,2.6,2.6,0,0,1-2.592,2.592m0-4.756a2.164,2.164,0,1,0,2.163,2.164,2.166,2.166,0,0,0-2.163-2.164" transform="translate(-1914.408 -1881.449)" fill="#3d6e9a"/>
          <path id="Trazado_991888" data-name="Trazado 991888" d="M2077.732,1947.37a2.378,2.378,0,1,1-2.378,2.378,2.379,2.379,0,0,1,2.378-2.378" transform="translate(-1986.431 -1883.734)" fill="#85a6be" fill-rule="evenodd"/>
          <path id="Trazado_991889" data-name="Trazado 991889" d="M2075.447,1950.054a2.592,2.592,0,1,1,2.592-2.592,2.6,2.6,0,0,1-2.592,2.592m0-4.756a2.164,2.164,0,1,0,2.164,2.164,2.166,2.166,0,0,0-2.164-2.164" transform="translate(-1984.146 -1881.449)" fill="#3d6e9a"/>
          <path id="Trazado_991890" data-name="Trazado 991890" d="M2122.134,2407.511a4.289,4.289,0,0,1,4.192-5.192h62.21a4.288,4.288,0,0,1,4.191,5.192l-11.019,51.088h-48.555l-11.019-51.088" transform="translate(-2029.112 -2299.684)" fill="#bd7708" fill-rule="evenodd"/>
          <path id="Trazado_991891" data-name="Trazado 991891" d="M2179.411,2456.528h-48.555a.215.215,0,0,1-.209-.169l-11.019-51.088a4.5,4.5,0,0,1,4.4-5.452h62.21a4.5,4.5,0,0,1,4.4,5.452l-11.019,51.088a.215.215,0,0,1-.209.169m-48.382-.429h48.209l10.983-50.919a4.073,4.073,0,0,0-3.982-4.932h-62.21a4.073,4.073,0,0,0-3.982,4.932h0Z" transform="translate(-2026.815 -2297.399)" fill="#3d6e9a"/>
          <rect id="Rectángulo_454567" data-name="Rectángulo 454567" width="52.171" height="60.79" transform="translate(100.044 75.9)" fill="#f6f6f6"/>
        </g>
      </g>
      <g id="Grupo_1176996" data-name="Grupo 1176996" transform="translate(165.107 179.195)">
        <g id="Grupo_1176995" data-name="Grupo 1176995" clip-path="url(#clip-path-5)">
          <rect id="Rectángulo_454569" data-name="Rectángulo 454569" width="52.171" height="60.79" transform="translate(2.335 2.955)" fill="#e4e4e4"/>
        </g>
      </g>
      <g id="Grupo_1176998" data-name="Grupo 1176998" transform="translate(154.326 178.981)">
        <g id="Grupo_1177026" data-name="Grupo 1177026" transform="translate(0 0)">
          <path id="Trazado_991892" data-name="Trazado 991892" d="M2254.974,2149.163H2202.8a.214.214,0,0,1-.214-.214v-60.79a.214.214,0,0,1,.214-.214h52.171a.214.214,0,0,1,.214.214v60.79a.214.214,0,0,1-.214.214m-51.956-.428h51.742v-60.362h-51.742Z" transform="translate(-2192.022 -2087.944)" fill="#3d6e9a"/>
          <rect id="Rectángulo_454571" data-name="Rectángulo 454571" width="52.171" height="60.79" transform="translate(15.158 5.031)" fill="#fff"/>
          <path id="Trazado_991893" data-name="Trazado 991893" d="M2306.029,2205.359h-52.171a.214.214,0,0,1-.215-.214v-60.79a.214.214,0,0,1,.215-.214h52.171a.214.214,0,0,1,.214.214v60.79a.214.214,0,0,1-.214.214m-51.957-.429h51.742v-60.362h-51.742Z" transform="translate(-2238.7 -2139.323)" fill="#3d6e9a"/>
          <rect id="Rectángulo_454572" data-name="Rectángulo 454572" width="52.171" height="60.79" transform="translate(15.158 5.031)" fill="#fff"/>
          <rect id="Rectángulo_454573" data-name="Rectángulo 454573" width="22.934" height="4.487" transform="translate(29.776 12.196)" fill="#0063b0"/>
          <rect id="Rectángulo_454574" data-name="Rectángulo 454574" width="44.643" height="1.866" transform="translate(18.309 20.883)" fill="#6ea6d1"/>
          <rect id="Rectángulo_454575" data-name="Rectángulo 454575" width="44.643" height="1.866" transform="translate(18.309 28.744)" fill="#6ea6d1"/>
          <rect id="Rectángulo_454576" data-name="Rectángulo 454576" width="44.643" height="1.866" transform="translate(18.309 36.605)" fill="#6ea6d1"/>
          <path id="Trazado_991894" data-name="Trazado 991894" d="M2306.029,2205.359h-52.171a.214.214,0,0,1-.215-.214v-60.79a.214.214,0,0,1,.215-.214h52.171a.214.214,0,0,1,.214.214v60.79a.214.214,0,0,1-.214.214m-51.957-.429h51.742v-60.362h-51.742Z" transform="translate(-2238.7 -2139.323)" fill="#3d6e9a"/>
          <path id="Trazado_991895" data-name="Trazado 991895" d="M2079.379,2483.217a3.058,3.058,0,0,1,3-3.658h25.513l10.483,9.932h35.81a3.058,3.058,0,0,1,2.967,3.8l-8.4,33.611a3.058,3.058,0,0,1-2.967,2.317h-54.7a3.059,3.059,0,0,1-3-2.458c-1.618-8.091-6.784-33.921-8.708-43.542" transform="translate(-2079.319 -2445.99)" fill="#ff9c00" fill-rule="evenodd"/>
        </g>
      </g>
      <g id="Grupo_1177000" data-name="Grupo 1177000" transform="translate(154.326 212.55)">
        <g id="Grupo_1176999" data-name="Grupo 1176999" clip-path="url(#clip-path-6)">
          <path id="Trazado_991896" data-name="Trazado 991896" d="M2233.484,2539.185c-.522,5.583-.712,29.911-16.113,37.517-13.372,6.6-33.7,4.539-46.981,5.781.385.439,4.361,11.9,34.922,12.677,28.686.727,39.426-8.031,45.429-23.971,9.484-25.178-5.585-29.419-8.213-31.191" transform="translate(-2162.584 -2534.073)" fill="#e88e00" fill-rule="evenodd"/>
        </g>
      </g>
      <g id="Grupo_1177002" data-name="Grupo 1177002" transform="translate(44.712 212.336)">
        <g id="Grupo_1177023" data-name="Grupo 1177023" transform="translate(0 0)">
          <path id="Trazado_991898" data-name="Trazado 991898" d="M2143.489,2527.146h-54.7a3.281,3.281,0,0,1-3.209-2.631l-8.708-43.542a3.272,3.272,0,0,1,3.209-3.914H2105.6a.214.214,0,0,1,.147.059l10.422,9.873h35.725a3.273,3.273,0,0,1,3.175,4.066l-8.4,33.611a3.267,3.267,0,0,1-3.175,2.479m-63.4-49.659a2.845,2.845,0,0,0-2.789,3.4l8.709,43.542a2.852,2.852,0,0,0,2.788,2.286h54.7a2.84,2.84,0,0,0,2.759-2.154l8.4-33.611a2.843,2.843,0,0,0-2.759-3.533h-35.81a.214.214,0,0,1-.147-.059l-10.422-9.873Z" transform="translate(-1967.413 -2477.059)" fill="#3d6e9a"/>
          <path id="Trazado_991899" data-name="Trazado 991899" d="M867.091,2576.529v55.078a1.876,1.876,0,0,1-1.875,1.875H804.967a1.876,1.876,0,0,1-1.875-1.875v-55.078a1.876,1.876,0,0,1,1.875-1.875h60.249a1.876,1.876,0,0,1,1.875,1.875" transform="translate(-802.878 -2566.288)" fill="#fff" fill-rule="evenodd"/>
          <path id="Trazado_991900" data-name="Trazado 991900" d="M862.931,2631.411H802.681a2.092,2.092,0,0,1-2.089-2.09v-55.078a2.092,2.092,0,0,1,2.089-2.09h60.249a2.092,2.092,0,0,1,2.09,2.09v55.078a2.092,2.092,0,0,1-2.09,2.09m-60.249-58.828a1.663,1.663,0,0,0-1.661,1.661v55.078a1.663,1.663,0,0,0,1.661,1.661h60.249a1.663,1.663,0,0,0,1.661-1.661v-55.078a1.663,1.663,0,0,0-1.661-1.661Z" transform="translate(-800.592 -2564.002)" fill="#3d6e9a"/>
          <path id="Trazado_991901" data-name="Trazado 991901" d="M1095.492,2614.14a1.184,1.184,0,0,1-1.184,1.184h-22.685a1.184,1.184,0,0,1,0-2.368h22.685a1.184,1.184,0,0,1,1.184,1.184" transform="translate(-1047.307 -2601.307)" fill="#85a6be" fill-rule="evenodd"/>
          <path id="Trazado_991902" data-name="Trazado 991902" d="M1092.023,2613.252h-22.685a1.4,1.4,0,1,1,0-2.8h22.685a1.4,1.4,0,0,1,0,2.8m-22.685-2.369a.97.97,0,0,0,0,1.94h22.685a.97.97,0,0,0,0-1.94Z" transform="translate(-1045.022 -2599.021)" fill="#3d6e9a"/>
          <path id="Trazado_991903" data-name="Trazado 991903" d="M1384.732,2614.14a1.185,1.185,0,0,1-1.184,1.184h-8.592a1.184,1.184,0,0,1,0-2.368h8.592a1.185,1.185,0,0,1,1.184,1.184" transform="translate(-1324.639 -2601.307)" fill="#85a6be" fill-rule="evenodd"/>
          <path id="Trazado_991904" data-name="Trazado 991904" d="M1381.264,2613.252h-8.591a1.4,1.4,0,1,1,0-2.8h8.591a1.4,1.4,0,1,1,0,2.8m-8.591-2.369a.97.97,0,0,0,0,1.94h8.591a.97.97,0,0,0,0-1.94Z" transform="translate(-1322.354 -2599.021)" fill="#3d6e9a"/>
          <path id="Trazado_991905" data-name="Trazado 991905" d="M852.425,2612.956a1.266,1.266,0,1,1-1.266,1.266,1.266,1.266,0,0,1,1.266-1.266" transform="translate(-846.824 -2601.307)" fill="#85a6be" fill-rule="evenodd"/>
          <path id="Trazado_991906" data-name="Trazado 991906" d="M850.139,2613.416a1.48,1.48,0,1,1,1.48-1.48,1.482,1.482,0,0,1-1.48,1.48m0-2.532a1.052,1.052,0,1,0,1.051,1.052,1.053,1.053,0,0,0-1.051-1.052" transform="translate(-844.539 -2599.021)" fill="#3d6e9a"/>
          <path id="Trazado_991907" data-name="Trazado 991907" d="M893.024,2612.956a1.266,1.266,0,1,1-1.266,1.266,1.266,1.266,0,0,1,1.266-1.266" transform="translate(-883.943 -2601.307)" fill="#85a6be" fill-rule="evenodd"/>
          <path id="Trazado_991908" data-name="Trazado 991908" d="M890.737,2613.416a1.48,1.48,0,1,1,1.48-1.48,1.482,1.482,0,0,1-1.48,1.48m0-2.532a1.052,1.052,0,1,0,1.051,1.052,1.053,1.053,0,0,0-1.051-1.052" transform="translate(-881.657 -2599.021)" fill="#3d6e9a"/>
          <path id="Trazado_991909" data-name="Trazado 991909" d="M933.623,2612.956a1.266,1.266,0,1,1-1.266,1.266,1.266,1.266,0,0,1,1.266-1.266" transform="translate(-921.062 -2601.307)" fill="#85a6be" fill-rule="evenodd"/>
          <path id="Trazado_991910" data-name="Trazado 991910" d="M931.337,2613.416a1.48,1.48,0,1,1,1.48-1.48,1.482,1.482,0,0,1-1.48,1.48m0-2.532a1.052,1.052,0,1,0,1.051,1.052,1.053,1.053,0,0,0-1.051-1.052" transform="translate(-918.776 -2599.021)" fill="#3d6e9a"/>
          <path id="Trazado_991911" data-name="Trazado 991911" d="M957.256,2857.874a2.282,2.282,0,0,1,2.231-2.763H992.6a2.282,2.282,0,0,1,2.231,2.763l-5.865,27.192H963.121l-5.865-27.192" transform="translate(-943.78 -2822.704)" fill="#bd7708" fill-rule="evenodd"/>
          <path id="Trazado_991912" data-name="Trazado 991912" d="M986.673,2883H960.829a.214.214,0,0,1-.21-.169l-5.865-27.193h0a2.5,2.5,0,0,1,2.441-3.023h33.112a2.5,2.5,0,0,1,2.44,3.023l-5.865,27.193a.215.215,0,0,1-.209.169M961,2882.567h25.5l5.829-27.024a2.068,2.068,0,0,0-2.021-2.5H957.2a2.068,2.068,0,0,0-2.022,2.5Z" transform="translate(-941.488 -2820.418)" fill="#3d6e9a"/>
          <rect id="Rectángulo_454578" data-name="Rectángulo 454578" width="27.769" height="32.357" transform="translate(17.214 18.177)" fill="#f6f6f6"/>
        </g>
      </g>
      <g id="Grupo_1177004" data-name="Grupo 1177004" transform="translate(61.926 230.513)">
        <g id="Grupo_1177003" data-name="Grupo 1177003" clip-path="url(#clip-path-7)">
          <rect id="Rectángulo_454580" data-name="Rectángulo 454580" width="27.769" height="32.357" transform="translate(1.243 1.573)" fill="#e4e4e4"/>
        </g>
      </g>
      <g id="Grupo_1177006" data-name="Grupo 1177006" transform="translate(56.188 230.299)">
        <g id="Grupo_1177025" data-name="Grupo 1177025">
          <path id="Trazado_991913" data-name="Trazado 991913" d="M1026.894,2719.4H999.125a.215.215,0,0,1-.214-.215v-32.357a.214.214,0,0,1,.214-.214h27.769a.214.214,0,0,1,.214.214v32.357a.215.215,0,0,1-.214.215m-27.555-.429h27.34v-31.928h-27.34Z" transform="translate(-993.387 -2686.61)" fill="#3d6e9a"/>
          <rect id="Rectángulo_454582" data-name="Rectángulo 454582" width="27.769" height="32.357" transform="translate(8.068 2.779)" fill="#fff"/>
          <path id="Trazado_991914" data-name="Trazado 991914" d="M1054.069,2749.307H1026.3a.214.214,0,0,1-.214-.214v-32.356a.214.214,0,0,1,.214-.214h27.769a.214.214,0,0,1,.214.214v32.356a.214.214,0,0,1-.214.214m-27.555-.428h27.34V2716.95h-27.34Z" transform="translate(-1018.232 -2713.958)" fill="#3d6e9a"/>
          <rect id="Rectángulo_454583" data-name="Rectángulo 454583" width="27.769" height="32.357" transform="translate(8.068 2.779)" fill="#fff"/>
          <rect id="Rectángulo_454584" data-name="Rectángulo 454584" width="12.207" height="2.388" transform="translate(15.849 6.592)" fill="#0063b0"/>
          <rect id="Rectángulo_454585" data-name="Rectángulo 454585" width="23.762" height="0.993" transform="translate(9.745 11.216)" fill="#6ea6d1"/>
          <rect id="Rectángulo_454586" data-name="Rectángulo 454586" width="23.762" height="0.993" transform="translate(9.745 15.4)" fill="#6ea6d1"/>
          <rect id="Rectángulo_454587" data-name="Rectángulo 454587" width="23.762" height="0.993" transform="translate(9.745 19.584)" fill="#6ea6d1"/>
          <path id="Trazado_991915" data-name="Trazado 991915" d="M1054.069,2749.307H1026.3a.214.214,0,0,1-.214-.214v-32.356a.214.214,0,0,1,.214-.214h27.769a.214.214,0,0,1,.214.214v32.356a.214.214,0,0,1-.214.214m-27.555-.428h27.34V2716.95h-27.34Z" transform="translate(-1018.232 -2713.958)" fill="#3d6e9a"/>
          <path id="Trazado_991916" data-name="Trazado 991916" d="M934.5,2898.17a1.627,1.627,0,0,1,1.6-1.946h13.58l5.58,5.287h19.061a1.627,1.627,0,0,1,1.579,2.022l-4.473,17.89a1.628,1.628,0,0,1-1.579,1.233H940.731a1.628,1.628,0,0,1-1.6-1.309L934.5,2898.17" transform="translate(-934.468 -2878.255)" fill="#ff9c00" fill-rule="evenodd"/>
        </g>
      </g>
      <g id="Grupo_1177008" data-name="Grupo 1177008" transform="translate(56.188 248.267)">
        <g id="Grupo_1177007" data-name="Grupo 1177007" clip-path="url(#clip-path-8)">
          <path id="Trazado_991917" data-name="Trazado 991917" d="M1016.526,2927.961c-.278,2.971-.379,15.921-8.577,19.969-7.117,3.515-17.938,2.416-25.006,3.077.2.234,2.321,6.335,18.588,6.748,15.268.387,20.985-4.274,24.18-12.759,5.048-13.4-2.973-15.659-4.371-16.6" transform="translate(-978.788 -2925.24)" fill="#e88e00" fill-rule="evenodd"/>
        </g>
      </g>
      <g id="Grupo_1177010" data-name="Grupo 1177010" transform="translate(55.973 -0.001)">
        <g id="Grupo_1177022" data-name="Grupo 1177022" transform="translate(0 0)">
          <path id="Trazado_991919" data-name="Trazado 991919" d="M967.554,2920.584H938.441a1.847,1.847,0,0,1-1.806-1.481L932,2895.927a1.842,1.842,0,0,1,1.806-2.2h13.58a.216.216,0,0,1,.147.059l5.518,5.228h18.975a1.842,1.842,0,0,1,1.787,2.289l-4.473,17.89a1.839,1.839,0,0,1-1.787,1.395m-33.748-26.432a1.414,1.414,0,0,0-1.386,1.691l4.635,23.176a1.417,1.417,0,0,0,1.386,1.136h29.113a1.411,1.411,0,0,0,1.371-1.071l4.473-17.89a1.414,1.414,0,0,0-1.371-1.756H952.966a.214.214,0,0,1-.147-.058l-5.518-5.228Z" transform="translate(-931.964 -2645.669)" fill="#3d6e9a"/>
          <path id="Trazado_991920" data-name="Trazado 991920" d="M1640.383,101.552c-17.283,0-31.315-14.267-31.315-31.839s14.032-31.839,31.315-31.839q.49,0,.978.015c4.262-20.214,21.949-35.388,43.1-35.388,24.325,0,44.073,20.079,44.073,44.811v9.421a21.658,21.658,0,0,1,6.828,1.107,22.5,22.5,0,0,1,14.125,28.245,22.1,22.1,0,0,1-20.952,15.468Z" transform="translate(-1551.025 -2.286)" fill="#eaeaea" fill-rule="evenodd"/>
          <path id="Trazado_991921" data-name="Trazado 991921" d="M1726.245,99.48H1638.1a30.86,30.86,0,0,1-12.269-2.521,31.432,31.432,0,0,1-10.023-6.873,32.359,32.359,0,0,1,0-45.319,31.432,31.432,0,0,1,10.023-6.873,30.861,30.861,0,0,1,12.269-2.521c.267,0,.537,0,.805.01a45.164,45.164,0,0,1,15.251-25.22A43.969,43.969,0,0,1,1667.042,2.7a43.72,43.72,0,0,1,32.363.841,44.145,44.145,0,0,1,14.078,9.654,45.267,45.267,0,0,1,12.976,31.83v9.208a21.882,21.882,0,0,1,6.681,1.117A22.727,22.727,0,0,1,1747.4,83.863a22.411,22.411,0,0,1-8.21,11.386,21.924,21.924,0,0,1-12.946,4.23M1638.1,35.8c-17.149,0-31.1,14.187-31.1,31.625s13.952,31.625,31.1,31.625h88.146a21.814,21.814,0,0,0,20.748-15.319,22.3,22.3,0,0,0-13.988-27.976,21.451,21.451,0,0,0-6.756-1.1.215.215,0,0,1-.218-.214V45.025c0-24.591-19.675-44.6-43.859-44.6-20.547,0-38.583,14.811-42.886,35.218a.215.215,0,0,1-.216.17c-.322-.01-.649-.015-.971-.015" transform="translate(-1548.741)" fill="#3d6e9a"/>
          <path id="Trazado_991922" data-name="Trazado 991922" d="M1985.789,415.325c10.679,2.11,17.953,6.788,21.5,14.138" transform="translate(-1895.454 -379.723)" fill="#78b2cc" fill-rule="evenodd"/>
          <path id="Trazado_991923" data-name="Trazado 991923" d="M2005,427.391a.215.215,0,0,1-.193-.121c-3.466-7.19-10.648-11.907-21.345-14.021a.214.214,0,0,1,.083-.42c10.836,2.141,18.12,6.937,21.648,14.255a.214.214,0,0,1-.193.307" transform="translate(-1893.168 -377.437)" fill="#3d6e9a"/>
          <path id="Trazado_991924" data-name="Trazado 991924" d="M1539.528,101.552c-17.283,0-31.315-14.267-31.315-31.839s14.032-31.839,31.315-31.839q.491,0,.978.015c4.262-20.214,21.949-35.388,43.1-35.388,24.325,0,44.073,20.079,44.073,44.811v9.421a21.661,21.661,0,0,1,6.828,1.107,22.5,22.5,0,0,1,14.125,28.245,22.1,22.1,0,0,1-20.952,15.468Z" transform="translate(-1458.816 -2.286)" fill="#fff" fill-rule="evenodd"/>
          <path id="Trazado_991925" data-name="Trazado 991925" d="M1625.389,99.48h-88.146a30.86,30.86,0,0,1-12.269-2.521,31.431,31.431,0,0,1-10.023-6.873,32.358,32.358,0,0,1,0-45.319,31.431,31.431,0,0,1,10.023-6.873,30.861,30.861,0,0,1,12.269-2.521c.267,0,.537,0,.805.01a45.167,45.167,0,0,1,15.251-25.22A43.965,43.965,0,0,1,1566.186,2.7a43.719,43.719,0,0,1,32.363.841,44.144,44.144,0,0,1,14.078,9.654,45.264,45.264,0,0,1,12.976,31.83v9.208a21.883,21.883,0,0,1,6.681,1.117,22.727,22.727,0,0,1,14.261,28.514,22.413,22.413,0,0,1-8.21,11.386,21.923,21.923,0,0,1-12.946,4.23M1537.242,35.8c-17.149,0-31.1,14.187-31.1,31.625s13.952,31.625,31.1,31.625h88.146a21.815,21.815,0,0,0,20.748-15.319,22.3,22.3,0,0,0-13.988-27.976,21.45,21.45,0,0,0-6.756-1.1.217.217,0,0,1-.155-.063.214.214,0,0,1-.063-.152V45.025c0-24.591-19.675-44.6-43.859-44.6-20.547,0-38.583,14.811-42.886,35.218a.217.217,0,0,1-.216.17c-.322-.01-.649-.015-.971-.015" transform="translate(-1456.53)" fill="#3d6e9a"/>
          <path id="Trazado_991926" data-name="Trazado 991926" d="M2093.455,381.863V433.6a1.763,1.763,0,0,1-1.761,1.762h-56.6a1.762,1.762,0,0,1-1.762-1.762V381.863a1.762,1.762,0,0,1,1.762-1.762h56.6a1.763,1.763,0,0,1,1.761,1.762" transform="translate(-1938.924 -347.518)" fill="#fff" fill-rule="evenodd"/>
          <path id="Trazado_991927" data-name="Trazado 991927" d="M2089.407,433.291h-56.6a1.978,1.978,0,0,1-1.976-1.976V379.577a1.978,1.978,0,0,1,1.976-1.976h56.6a1.979,1.979,0,0,1,1.976,1.976v51.739a1.978,1.978,0,0,1-1.976,1.976m-56.6-55.262a1.549,1.549,0,0,0-1.547,1.547v51.739a1.549,1.549,0,0,0,1.547,1.547h56.6a1.549,1.549,0,0,0,1.547-1.547V379.577a1.549,1.549,0,0,0-1.547-1.547Z" transform="translate(-1936.639 -345.232)" fill="#3d6e9a"/>
          <path id="Trazado_991928" data-name="Trazado 991928" d="M2308.009,417.194a1.113,1.113,0,0,1-1.112,1.112h-21.31a1.112,1.112,0,0,1,0-2.225h21.31a1.113,1.113,0,0,1,1.112,1.112" transform="translate(-2168.535 -380.415)" fill="#85a6be" fill-rule="evenodd"/>
          <path id="Trazado_991929" data-name="Trazado 991929" d="M2304.61,416.234H2283.3a1.327,1.327,0,0,1,0-2.653h21.31a1.327,1.327,0,0,1,0,2.653m-21.31-2.225a.9.9,0,0,0,0,1.8h21.31a.9.9,0,0,0,0-1.8Z" transform="translate(-2166.25 -378.128)" fill="#3d6e9a"/>
          <path id="Trazado_991930" data-name="Trazado 991930" d="M2579.714,417.194a1.113,1.113,0,0,1-1.113,1.112h-8.071a1.112,1.112,0,0,1,0-2.225h8.071a1.113,1.113,0,0,1,1.113,1.112" transform="translate(-2429.054 -380.415)" fill="#85a6be" fill-rule="evenodd"/>
          <path id="Trazado_991931" data-name="Trazado 991931" d="M2576.315,416.234h-8.07a1.327,1.327,0,0,1,0-2.653h8.07a1.327,1.327,0,1,1,0,2.653m-8.07-2.225a.9.9,0,0,0,0,1.8h8.07a.9.9,0,1,0,0-1.8Z" transform="translate(-2426.767 -378.128)" fill="#3d6e9a"/>
          <path id="Trazado_991932" data-name="Trazado 991932" d="M2079.677,416.081a1.189,1.189,0,1,1-1.189,1.189,1.189,1.189,0,0,1,1.189-1.189" transform="translate(-1980.207 -380.414)" fill="#85a6be" fill-rule="evenodd"/>
          <path id="Trazado_991933" data-name="Trazado 991933" d="M2077.391,416.387a1.4,1.4,0,1,1,1.4-1.4,1.4,1.4,0,0,1-1.4,1.4m0-2.378a.975.975,0,1,0,.975.975.976.976,0,0,0-.975-.975" transform="translate(-1977.921 -378.128)" fill="#3d6e9a"/>
          <path id="Trazado_991934" data-name="Trazado 991934" d="M2117.815,416.081a1.189,1.189,0,1,1-1.189,1.189,1.189,1.189,0,0,1,1.189-1.189" transform="translate(-2015.075 -380.414)" fill="#85a6be" fill-rule="evenodd"/>
          <path id="Trazado_991935" data-name="Trazado 991935" d="M2115.529,416.387a1.4,1.4,0,1,1,1.4-1.4,1.4,1.4,0,0,1-1.4,1.4m0-2.378a.975.975,0,1,0,.974.975.976.976,0,0,0-.974-.975" transform="translate(-2012.789 -378.128)" fill="#3d6e9a"/>
          <path id="Trazado_991936" data-name="Trazado 991936" d="M2155.953,416.081a1.189,1.189,0,1,1-1.189,1.189,1.189,1.189,0,0,1,1.189-1.189" transform="translate(-2049.944 -380.414)" fill="#85a6be" fill-rule="evenodd"/>
          <path id="Trazado_991937" data-name="Trazado 991937" d="M2153.667,416.387a1.4,1.4,0,1,1,1.4-1.4,1.4,1.4,0,0,1-1.4,1.4m0-2.378a.975.975,0,1,0,.975.975.976.976,0,0,0-.975-.975" transform="translate(-2047.658 -378.128)" fill="#3d6e9a"/>
          <path id="Trazado_991938" data-name="Trazado 991938" d="M2178.153,646.152a2.145,2.145,0,0,1,2.1-2.6h31.105a2.144,2.144,0,0,1,2.1,2.6l-5.51,25.544h-24.278s-4.007-18.578-5.51-25.544" transform="translate(-2071.284 -588.389)" fill="#bd7708" fill-rule="evenodd"/>
          <path id="Trazado_991939" data-name="Trazado 991939" d="M2205.649,669.625h-24.278a.215.215,0,0,1-.209-.169l-5.509-25.544a2.358,2.358,0,0,1,2.3-2.855h31.105a2.358,2.358,0,0,1,2.305,2.855l-5.51,25.544a.214.214,0,0,1-.209.169m-24.1-.429h23.932l5.473-25.375a1.93,1.93,0,0,0-1.886-2.336h-31.105a1.93,1.93,0,0,0-1.886,2.336Z" transform="translate(-2068.993 -586.104)" fill="#3d6e9a"/>
          <rect id="Rectángulo_454589" data-name="Rectángulo 454589" width="26.085" height="30.395" transform="translate(110.381 41.799)" fill="#f6f6f6"/>
        </g>
      </g>
      <g id="Grupo_1177012" data-name="Grupo 1177012" transform="translate(166.354 41.798)">
        <g id="Grupo_1177011" data-name="Grupo 1177011" clip-path="url(#clip-path-9)">
          <rect id="Rectángulo_454591" data-name="Rectángulo 454591" width="26.085" height="30.395" transform="translate(1.168 1.478)" fill="#e4e4e4"/>
        </g>
      </g>
      <g id="Grupo_1177014" data-name="Grupo 1177014" transform="translate(160.963 41.584)">
        <g id="Grupo_1177024" data-name="Grupo 1177024">
          <path id="Trazado_991940" data-name="Trazado 991940" d="M2243.431,515.943h-26.086a.215.215,0,0,1-.214-.214v-30.4a.214.214,0,0,1,.214-.214h26.086a.214.214,0,0,1,.214.214v30.4a.214.214,0,0,1-.214.214m-25.872-.429h25.657V485.548h-25.657Z" transform="translate(-2211.955 -485.119)" fill="#3d6e9a"/>
          <rect id="Rectángulo_454593" data-name="Rectángulo 454593" width="26.085" height="30.395" transform="translate(7.579 2.623)" fill="#fff"/>
          <path id="Trazado_991941" data-name="Trazado 991941" d="M2268.958,544.04h-26.085a.214.214,0,0,1-.214-.214v-30.4a.214.214,0,0,1,.214-.214h26.085a.215.215,0,0,1,.215.214v30.4a.214.214,0,0,1-.215.214m-25.871-.429h25.657V513.645h-25.657Z" transform="translate(-2235.294 -510.807)" fill="#3d6e9a"/>
          <rect id="Rectángulo_454594" data-name="Rectángulo 454594" width="26.085" height="30.395" transform="translate(7.579 2.623)" fill="#fff"/>
          <rect id="Rectángulo_454595" data-name="Rectángulo 454595" width="11.467" height="2.244" transform="translate(14.888 6.205)" fill="#0063b0"/>
          <rect id="Rectángulo_454596" data-name="Rectángulo 454596" width="22.322" height="0.933" transform="translate(9.154 10.548)" fill="#6ea6d1"/>
          <rect id="Rectángulo_454597" data-name="Rectángulo 454597" width="22.322" height="0.933" transform="translate(9.154 14.479)" fill="#6ea6d1"/>
          <rect id="Rectángulo_454598" data-name="Rectángulo 454598" width="22.322" height="0.933" transform="translate(9.154 18.409)" fill="#6ea6d1"/>
          <path id="Trazado_991942" data-name="Trazado 991942" d="M2268.958,544.04h-26.085a.214.214,0,0,1-.214-.214v-30.4a.214.214,0,0,1,.214-.214h26.085a.215.215,0,0,1,.215.214v30.4a.214.214,0,0,1-.215.214m-25.871-.429h25.657V513.645h-25.657Z" transform="translate(-2235.294 -510.807)" fill="#3d6e9a"/>
          <path id="Trazado_991943" data-name="Trazado 991943" d="M2156.776,684a1.53,1.53,0,0,1,1.5-1.829h12.756l5.242,4.966h17.905a1.529,1.529,0,0,1,1.483,1.9c-1.017,4.067-3.377,13.511-4.2,16.805a1.529,1.529,0,0,1-1.484,1.158H2162.63a1.529,1.529,0,0,1-1.5-1.229c-.809-4.046-3.392-16.96-4.354-21.771" transform="translate(-2156.747 -665.284)" fill="#ff9c00" fill-rule="evenodd"/>
        </g>
      </g>
      <g id="Grupo_1177016" data-name="Grupo 1177016" transform="translate(160.963 58.476)">
        <g id="Grupo_1177015" data-name="Grupo 1177015" clip-path="url(#clip-path-10)">
          <path id="Trazado_991944" data-name="Trazado 991944" d="M2233.828,711.989c-.261,2.791-.356,14.956-8.057,18.759-6.686,3.3-16.851,2.269-23.49,2.89.192.22,2.18,5.952,17.461,6.339,14.343.363,19.713-4.016,22.715-11.985,4.742-12.589-2.793-14.71-4.106-15.6" transform="translate(-2198.379 -709.433)" fill="#e88e00" fill-rule="evenodd"/>
        </g>
      </g>
    </g>
  </g>
</svg>
