<svg xmlns="http://www.w3.org/2000/svg" xmlns:xlink="http://www.w3.org/1999/xlink" width="396" height="344.001" viewBox="0 0 396 344.001">
  <defs>
    <clipPath id="clip-path">
      <rect id="Rectángulo_454798" data-name="Rectángulo 454798" width="79.978" height="152.835" fill="none"/>
    </clipPath>
    <clipPath id="clip-path-2">
      <rect id="Rectángulo_454802" data-name="Rectángulo 454802" width="65.777" height="108.242" fill="none"/>
    </clipPath>
    <clipPath id="clip-path-3">
      <rect id="Rectángulo_454803" data-name="Rectángulo 454803" width="46.232" height="108.242" fill="none"/>
    </clipPath>
    <clipPath id="clip-path-4">
      <rect id="Rectángulo_454804" data-name="Rectángulo 454804" width="57.041" height="65.405" fill="none"/>
    </clipPath>
  </defs>
  <g id="Grupo_1177494" data-name="Grupo 1177494" transform="translate(-601.711 -2978)">
    <rect id="Rectángulo_454774" data-name="Rectángulo 454774" width="396" height="344" transform="translate(601.711 2978)" fill="#bfaaef"/>
    <g id="Grupo_1177491" data-name="Grupo 1177491" transform="translate(598.485 3079.221)">
      <g id="Grupo_1177492" data-name="Grupo 1177492">
        <g id="Grupo_1177489" data-name="Grupo 1177489">
          <g id="Grupo_1177493" data-name="Grupo 1177493">
            <path id="Trazado_992548" data-name="Trazado 992548" d="M422.611,138.644c-3.756-3.269-11.129-3.034-11.761,3.515s3.118,8.631,3.118,8.631,1.7-4.9,4.141-7.528,4.5-4.618,4.5-4.618" transform="translate(-106.76 -149.323)" fill="#f05823"/>
            <path id="Trazado_992549" data-name="Trazado 992549" d="M425.153,137.322c-3.588-1.4-6.4,2.54-7.34,5.921s3.473,1.315,3.473,1.315Z" transform="translate(-106.465 -149.305)" fill="#e2d771"/>
            <path id="Trazado_992550" data-name="Trazado 992550" d="M440.928,149.637c1.1-11.086-7.047-13.152-14.147-12.589s-9.729,8.277-8.79,12.589,5.348,11.44,5.348,11.44L432,155.13Z" transform="translate(-106.459 -149.307)" fill="#f05823"/>
            <path id="Trazado_992551" data-name="Trazado 992551" d="M21.18,292.55c-18.336-12.92-2.1-30.854,11.479-28.041s31.314-21.482,20.308-43.719,16.085-76.168,59.893-49.7,113.048,31.221,135.674-.129,88.345-3.672,83.134,35.739,4.294,33.883,24.761,42.649,35.747,20.778,23.523,35.462c0,0,14.057-2.347,13.446,7.736Z" transform="translate(1.247 -49.769)" fill="#efe9fb"/>
            <path id="Trazado_992560" data-name="Trazado 992560" d="M327.453,375.4c3.437-14.048,13.2-13.094,16.023-9.125,0,0,1.885-7.787,12.249-6.511s10.365,9.312,10.365,9.312,5.025-1.953,6.91.754a7.658,7.658,0,0,1,1.257,5.57Z" transform="translate(-110.321 -139.791)" fill="#588e4d"/>
            <rect id="Rectángulo_454793" data-name="Rectángulo 454793" width="159.961" height="60.788" transform="translate(54.957 164.015)" fill="#6e80db"/>
            <path id="Trazado_992561" data-name="Trazado 992561" d="M331.888,365.016c0,8.454-35.809,15.307-79.981,15.307s-79.98-6.854-79.98-15.307,35.81-15.307,79.98-15.307,79.981,6.854,79.981,15.307" transform="translate(-116.968 -140.213)" fill="#6e80db"/>
            <path id="Trazado_992562" data-name="Trazado 992562" d="M331.888,306.72c0,8.454-35.809,15.307-79.981,15.307s-79.98-6.854-79.98-15.307,35.81-15.307,79.98-15.307,79.981,6.854,79.981,15.307" transform="translate(-116.968 -142.706)" fill="#a0b2f2"/>
            <rect id="Rectángulo_454794" data-name="Rectángulo 454794" width="146.791" height="53.557" transform="translate(61.542 106.012)" fill="#465daf"/>
            <path id="Trazado_992563" data-name="Trazado 992563" d="M325.032,302.384c0,7.448-32.86,13.487-73.4,13.487s-73.4-6.039-73.4-13.487,32.86-13.487,73.4-13.487,73.4,6.038,73.4,13.487" transform="translate(-116.699 -142.814)" fill="#465daf"/>
            <rect id="Rectángulo_454795" data-name="Rectángulo 454795" width="159.961" height="60.788" transform="translate(54.957 88.655)" fill="#6e80db"/>
            <path id="Trazado_992564" data-name="Trazado 992564" d="M331.888,292.744c0,8.453-35.809,15.307-79.981,15.307s-79.98-6.854-79.98-15.307,35.81-15.307,79.98-15.307,79.981,6.854,79.981,15.307" transform="translate(-116.968 -143.303)" fill="#6e80db"/>
            <path id="Trazado_992565" data-name="Trazado 992565" d="M331.888,234.449c0,8.453-35.809,15.307-79.981,15.307s-79.98-6.854-79.98-15.307,35.81-15.307,79.98-15.307,79.981,6.854,79.981,15.307" transform="translate(-116.968 -145.795)" fill="#a0b2f2"/>
            <rect id="Rectángulo_454796" data-name="Rectángulo 454796" width="146.791" height="53.557" transform="translate(61.542 30.653)" fill="#465daf"/>
            <path id="Trazado_992566" data-name="Trazado 992566" d="M325.032,230.113c0,7.448-32.86,13.487-73.4,13.487s-73.4-6.039-73.4-13.487,32.86-13.487,73.4-13.487,73.4,6.038,73.4,13.487" transform="translate(-116.699 -145.902)" fill="#465daf"/>
            <rect id="Rectángulo_454797" data-name="Rectángulo 454797" width="159.961" height="60.788" transform="translate(54.957 11.081)" fill="#6e80db"/>
            <path id="Trazado_992567" data-name="Trazado 992567" d="M331.888,218.351c0,8.454-35.809,15.307-79.981,15.307s-79.98-6.854-79.98-15.307,35.81-15.307,79.98-15.307,79.981,6.854,79.981,15.307" transform="translate(-116.968 -146.484)" fill="#6e80db"/>
            <path id="Trazado_992568" data-name="Trazado 992568" d="M331.888,160.055c0,8.455-35.809,15.309-79.981,15.309s-79.98-6.854-79.98-15.309,35.81-15.306,79.98-15.306,79.981,6.854,79.981,15.306" transform="translate(-116.968 -148.976)" fill="#d7e2ff"/>
            <path id="Trazado_992569" data-name="Trazado 992569" d="M312.412,159.909c0,6.477-27.432,11.727-61.273,11.727s-61.271-5.249-61.271-11.727,27.432-11.726,61.271-11.726,61.273,5.249,61.273,11.726" transform="translate(-116.202 -148.827)" fill="#a0b2f2"/>
            <path id="Trazado_992570" data-name="Trazado 992570" d="M217.154,202.22a5.034,5.034,0,1,1-5.033-5.033,5.033,5.033,0,0,1,5.033,5.033" transform="translate(-115.466 -146.734)" fill="#2b417f"/>
            <path id="Trazado_992571" data-name="Trazado 992571" d="M241.291,202.22a5.034,5.034,0,1,1-5.033-5.033,5.033,5.033,0,0,1,5.033,5.033" transform="translate(-114.434 -146.734)" fill="#57ea5f"/>
            <path id="Trazado_992572" data-name="Trazado 992572" d="M265.428,202.22a5.034,5.034,0,1,1-5.033-5.033,5.033,5.033,0,0,1,5.033,5.033" transform="translate(-113.402 -146.734)" fill="#465daf"/>
            <path id="Trazado_992573" data-name="Trazado 992573" d="M300.8,207.254H279.252a4.046,4.046,0,0,1-4.046-4.046v-1.976a4.046,4.046,0,0,1,4.046-4.046H300.8a4.045,4.045,0,0,1,4.045,4.046v1.976a4.045,4.045,0,0,1-4.045,4.046" transform="translate(-112.554 -146.733)" fill="#465daf"/>
            <path id="Trazado_992574" data-name="Trazado 992574" d="M217.154,277.644a5.034,5.034,0,1,1-5.033-5.033,5.033,5.033,0,0,1,5.033,5.033" transform="translate(-115.466 -143.509)" fill="#465daf"/>
            <path id="Trazado_992575" data-name="Trazado 992575" d="M241.291,277.644a5.034,5.034,0,1,1-5.033-5.033,5.033,5.033,0,0,1,5.033,5.033" transform="translate(-114.434 -143.509)" fill="#fff"/>
            <path id="Trazado_992576" data-name="Trazado 992576" d="M265.428,277.644a5.034,5.034,0,1,1-5.033-5.033,5.033,5.033,0,0,1,5.033,5.033" transform="translate(-113.402 -143.509)" fill="#57ea5f"/>
            <path id="Trazado_992577" data-name="Trazado 992577" d="M300.8,282.678H279.252a4.046,4.046,0,0,1-4.046-4.046v-1.976a4.046,4.046,0,0,1,4.046-4.046H300.8a4.045,4.045,0,0,1,4.045,4.046v1.976a4.045,4.045,0,0,1-4.045,4.046" transform="translate(-112.554 -143.509)" fill="#2b417f"/>
            <path id="Trazado_992578" data-name="Trazado 992578" d="M217.154,353.068a5.034,5.034,0,1,1-5.033-5.033,5.033,5.033,0,0,1,5.033,5.033" transform="translate(-115.466 -140.286)" fill="#2b417f"/>
            <path id="Trazado_992579" data-name="Trazado 992579" d="M241.291,353.068a5.034,5.034,0,1,1-5.033-5.033,5.033,5.033,0,0,1,5.033,5.033" transform="translate(-114.434 -140.286)" fill="#465daf"/>
            <path id="Trazado_992580" data-name="Trazado 992580" d="M265.428,353.068a5.034,5.034,0,1,1-5.033-5.033,5.033,5.033,0,0,1,5.033,5.033" transform="translate(-113.402 -140.286)" fill="#fff"/>
            <path id="Trazado_992581" data-name="Trazado 992581" d="M300.8,358.1H279.252a4.046,4.046,0,0,1-4.046-4.046V352.08a4.046,4.046,0,0,1,4.046-4.046H300.8a4.045,4.045,0,0,1,4.045,4.046v1.976A4.045,4.045,0,0,1,300.8,358.1" transform="translate(-112.554 -140.285)" fill="#465daf"/>
            <path id="Trazado_992582" data-name="Trazado 992582" d="M263.261,306.169H181.4a4.318,4.318,0,0,0-2.767,1l-10.008,12.241,98.954,59.9v-68.83a4.316,4.316,0,0,0-4.316-4.316" transform="translate(-117.11 -142.074)" fill="#ffbe5f"/>
            <path id="Trazado_992583" data-name="Trazado 992583" d="M258.109,369.267v-87.7H190.967v88.3Z" transform="translate(-116.155 -143.127)" fill="#d2dfff"/>
            <path id="Trazado_992584" data-name="Trazado 992584" d="M264.781,382.04H155.422a4.571,4.571,0,0,1-4.571-4.571L127.11,323.442a4.571,4.571,0,0,1,4.571-4.57h113.93l23.741,58.6a4.572,4.572,0,0,1-4.571,4.571" transform="translate(-118.884 -141.532)" fill="#ffcf73"/>
            <g id="Grupo_1177478" data-name="Grupo 1177478" transform="translate(134.939 87.277)" opacity="0.17" style="mix-blend-mode: multiply;isolation: isolate">
              <g id="Grupo_1177477" data-name="Grupo 1177477" transform="translate(0 0)">
                <g id="Grupo_1177476" data-name="Grupo 1177476" clip-path="url(#clip-path)">
                  <path id="Trazado_992585" data-name="Trazado 992585" d="M322.028,300.748v2.409c4.223,1.856,6.58,3.921,6.58,6.079v60.792c0,8.446-35.808,15.307-79.978,15.307V348.756L300.255,232.5l28.352,13.337v48.832c0,2.158-2.357,4.213-6.58,6.079" transform="translate(-248.629 -232.501)" fill="#383736"/>
                </g>
              </g>
            </g>
            <path id="Trazado_992586" data-name="Trazado 992586" d="M406.186,372.081H368.62c.4-7.621,12.846-8.824,13.244-28.088l5.539.923,5.539-.923c.4,19.265,12.839,20.467,13.244,28.088" transform="translate(-108.561 -140.458)" fill="#1e1e1e"/>
            <path id="Trazado_992587" data-name="Trazado 992587" d="M473.244,352.341H307.782a11.931,11.931,0,0,1-11.931-11.931V243.29a11.932,11.932,0,0,1,11.931-11.932H473.244a11.932,11.932,0,0,1,11.931,11.932v97.12a11.931,11.931,0,0,1-11.931,11.931" transform="translate(-111.672 -145.273)" fill="#383736"/>
            <path id="Trazado_992588" data-name="Trazado 992588" d="M473.912,222.319h-166.8a11.263,11.263,0,0,0-11.263,11.264v96.978H485.175V233.583a11.263,11.263,0,0,0-11.264-11.264" transform="translate(-111.672 -145.659)" fill="#383736"/>
            <path id="Trazado_992589" data-name="Trazado 992589" d="M391.534,336.158a4.707,4.707,0,1,1-4.708-4.707,4.708,4.708,0,0,1,4.708,4.707" transform="translate(-107.985 -140.993)" fill="#1e1e1e"/>
            <path id="Trazado_992590" data-name="Trazado 992590" d="M477.825,330.312H303.276V230.824a2.687,2.687,0,0,1,2.688-2.687H475.137a2.687,2.687,0,0,1,2.687,2.687Z" transform="translate(-111.354 -145.411)" fill="#6e80db"/>
            <path id="Trazado_992591" data-name="Trazado 992591" d="M406.614,373.742H368.306a1.015,1.015,0,0,1-1.015-1.016v-.781a1.015,1.015,0,0,1,1.015-1.016h38.308a1.016,1.016,0,0,1,1.016,1.016v.781a1.016,1.016,0,0,1-1.016,1.016" transform="translate(-108.618 -139.308)" fill="#1e1e1e"/>
            <path id="Trazado_992592" data-name="Trazado 992592" d="M472.892,237.763H308.569a2.259,2.259,0,0,1-2.259-2.259v-1.736a2.259,2.259,0,0,1,2.259-2.259H472.892a2.259,2.259,0,0,1,2.259,2.259V235.5a2.259,2.259,0,0,1-2.259,2.259" transform="translate(-111.225 -145.267)" fill="#a0b2f2"/>
            <path id="Trazado_992593" data-name="Trazado 992593" d="M452.92,234.565a1.368,1.368,0,1,1-1.368-1.367,1.367,1.367,0,0,1,1.368,1.367" transform="translate(-105.075 -145.194)" fill="#d7e2ff"/>
            <path id="Trazado_992594" data-name="Trazado 992594" d="M457.07,234.565A1.368,1.368,0,1,1,455.7,233.2a1.367,1.367,0,0,1,1.367,1.367" transform="translate(-104.898 -145.194)" fill="#d7e2ff"/>
            <path id="Trazado_992595" data-name="Trazado 992595" d="M461.221,234.565a1.368,1.368,0,1,1-1.368-1.367,1.367,1.367,0,0,1,1.368,1.367" transform="translate(-104.72 -145.194)" fill="#d7e2ff"/>
            <path id="Trazado_992596" data-name="Trazado 992596" d="M343.891,265.653a15.791,15.791,0,1,1-15.791-15.79,15.791,15.791,0,0,1,15.791,15.79" transform="translate(-110.968 -144.482)" fill="#a0b2f2"/>
            <path id="Trazado_992597" data-name="Trazado 992597" d="M342.11,294.3H314.09a1.782,1.782,0,0,1-1.782-1.781v-1.369a1.782,1.782,0,0,1,1.782-1.782H342.11a1.782,1.782,0,0,1,1.781,1.782v1.369a1.781,1.781,0,0,1-1.781,1.781" transform="translate(-110.968 -142.793)" fill="#4b62b2"/>
            <rect id="Rectángulo_454799" data-name="Rectángulo 454799" width="31.583" height="13.881" transform="translate(201.34 155.527)" fill="#a0b2f2"/>
            <path id="Trazado_992598" data-name="Trazado 992598" d="M397.8,255.726h-40.72a2.118,2.118,0,0,1-2.118-2.118v-1.628a2.118,2.118,0,0,1,2.118-2.118H397.8a2.117,2.117,0,0,1,2.118,2.118v1.628a2.117,2.117,0,0,1-2.118,2.118" transform="translate(-109.145 -144.482)" fill="#4b62b2"/>
            <path id="Trazado_992599" data-name="Trazado 992599" d="M431.033,268.058H357.086a2.117,2.117,0,0,1-2.118-2.118v-1.628a2.117,2.117,0,0,1,2.118-2.118h73.947a2.117,2.117,0,0,1,2.118,2.118v1.628a2.117,2.117,0,0,1-2.118,2.118" transform="translate(-109.145 -143.954)" fill="#a0b2f2"/>
            <rect id="Rectángulo_454800" data-name="Rectángulo 454800" width="44.956" height="28.619" transform="translate(245.823 131.1)" fill="#a0b2f2"/>
            <path id="Trazado_992600" data-name="Trazado 992600" d="M397.8,311.917h-40.72a2.118,2.118,0,0,1-2.118-2.118v-1.628a2.118,2.118,0,0,1,2.118-2.118H397.8a2.117,2.117,0,0,1,2.118,2.118V309.8a2.117,2.117,0,0,1-2.118,2.118" transform="translate(-109.145 -142.081)" fill="#4b62b2"/>
            <rect id="Rectángulo_454801" data-name="Rectángulo 454801" width="44.956" height="28.619" transform="translate(301.332 131.1)" fill="#a0b2f2"/>
            <path id="Trazado_992601" data-name="Trazado 992601" d="M451.04,311.917H410.32A2.118,2.118,0,0,1,408.2,309.8v-1.628a2.118,2.118,0,0,1,2.118-2.118h40.72a2.117,2.117,0,0,1,2.118,2.118V309.8a2.117,2.117,0,0,1-2.118,2.118" transform="translate(-106.87 -142.081)" fill="#4b62b2"/>
            <g id="Grupo_1177481" data-name="Grupo 1177481" transform="translate(223.553 76.66)" opacity="0.2" style="mix-blend-mode: overlay;isolation: isolate">
              <g id="Grupo_1177480" data-name="Grupo 1177480" transform="translate(0 0)">
                <g id="Grupo_1177479" data-name="Grupo 1177479" clip-path="url(#clip-path-2)">
                  <path id="Trazado_992602" data-name="Trazado 992602" d="M333.611,222.319,356.088,330.56h43.3L372.7,222.319Z" transform="translate(-333.611 -222.319)" fill="#fff"/>
                </g>
              </g>
            </g>
            <g id="Grupo_1177484" data-name="Grupo 1177484" transform="translate(277.767 76.66)" opacity="0.2" style="mix-blend-mode: overlay;isolation: isolate">
              <g id="Grupo_1177483" data-name="Grupo 1177483" transform="translate(0 0)">
                <g id="Grupo_1177482" data-name="Grupo 1177482" clip-path="url(#clip-path-3)">
                  <path id="Trazado_992603" data-name="Trazado 992603" d="M385.6,222.319,408.08,330.56h23.755L405.149,222.319Z" transform="translate(-385.603 -222.319)" fill="#fff"/>
                </g>
              </g>
            </g>
            <g id="Grupo_1177487" data-name="Grupo 1177487" transform="translate(316.462 76.607)" opacity="0.17" style="mix-blend-mode: multiply;isolation: isolate">
              <g id="Grupo_1177486" data-name="Grupo 1177486" transform="translate(0 0)">
                <g id="Grupo_1177485" data-name="Grupo 1177485" clip-path="url(#clip-path-4)">
                  <path id="Trazado_992604" data-name="Trazado 992604" d="M422.712,222.321c1.887,21,23.964,21.549,31.173,35.944s16.936,32.389,25.868,28.99V232.874l-34.638-10.606Z" transform="translate(-422.712 -222.268)" fill="#383736"/>
                </g>
              </g>
            </g>
            <path id="Trazado_992605" data-name="Trazado 992605" d="M458.388,250.246l.135,6.251,6.412.391.069-7.462Z" transform="translate(-104.725 -144.5)" fill="#ffca9f"/>
            <path id="Trazado_992606" data-name="Trazado 992606" d="M435.383,223.141l34.372-.465.714-8.055a7.218,7.218,0,0,0-6.7-7.839l-27.862-1.894a8.925,8.925,0,0,0-9.49,8.076l-.04.427a8.924,8.924,0,0,0,9.006,9.751" transform="translate(-106.095 -146.404)" fill="#5d74c6"/>
            <path id="Trazado_992607" data-name="Trazado 992607" d="M456.286,210.194l2.123,44.036,6.822.415,3.558-35.545Z" transform="translate(-104.814 -146.176)" fill="#ffca9f"/>
            <path id="Trazado_992608" data-name="Trazado 992608" d="M465.986,244.127c-1.835,5.478-6.122,5.217-6.122,5.217l5.783.351Z" transform="translate(-104.662 -144.727)" fill="#ffca9f"/>
            <path id="Trazado_992609" data-name="Trazado 992609" d="M456.624,267.713l20.458,1.246a3.25,3.25,0,0,0-.164-1.035l-.005-.006c-.7-2.094-3.483-3.127-6.624-4.714a7.91,7.91,0,0,1-4.032-5.844l.1-1.588a1.17,1.17,0,0,0-1.1-1.24l-6.15-.374a1.165,1.165,0,0,0-1.241,1.231,5.953,5.953,0,0,0,.115.823h.006a4.631,4.631,0,0,0,.251.85c-1.142,2.894-1.614,10.652-1.614,10.652" transform="translate(-104.8 -144.299)" fill="#fff"/>
            <path id="Trazado_992610" data-name="Trazado 992610" d="M467.5,260.812a4.682,4.682,0,0,0-3.911,3.249" transform="translate(-104.503 -144.013)" fill="none" stroke="#383736" stroke-miterlimit="10" stroke-width="1"/>
            <path id="Trazado_992611" data-name="Trazado 992611" d="M469.551,262.416a4.956,4.956,0,0,0-2.212,2.812" transform="translate(-104.342 -143.947)" fill="none" stroke="#383736" stroke-miterlimit="10" stroke-width="1"/>
            <path id="Trazado_992612" data-name="Trazado 992612" d="M456.624,267.628l20.458,1.246a3.25,3.25,0,0,0-.164-1.035l-.005-.006a24.812,24.812,0,0,1-7.225.084c-4.615-.49-9.755-.088-11.12-1.852s-.712-6.22-.031-7.818c.355-.812,1.6-.987,2.749-.971a6.842,6.842,0,0,1-3.3-1.149,4.63,4.63,0,0,0,.251.85c-1.142,2.894-1.614,10.652-1.614,10.652" transform="translate(-104.8 -144.215)" fill="#ddd"/>
            <path id="Trazado_992613" data-name="Trazado 992613" d="M477.092,268.406a3.011,3.011,0,0,1-.084,1.38l-20.625-1.257a2.641,2.641,0,0,1,.252-1.369c.325-.528,20.458,1.246,20.458,1.246" transform="translate(-104.811 -143.747)" fill="#eae9e8"/>
            <path id="Trazado_992614" data-name="Trazado 992614" d="M445.049,252.628l.328,6.244,6.422.191-.165-7.46Z" transform="translate(-105.295 -144.406)" fill="#ffca9f"/>
            <path id="Trazado_992615" data-name="Trazado 992615" d="M423.008,226.328l32.56-1.481.463-8.072a7.218,7.218,0,0,0-6.942-7.628l-29.609-4.175c-4.838-.177-7.563,5.622-8.044,11.526l-.027.429c-1.244,8.287,6.3,9.637,11.6,9.4" transform="translate(-106.738 -146.401)" fill="#6e80db"/>
            <path id="Trazado_992616" data-name="Trazado 992616" d="M441.7,212.652,445.2,256.6l6.831.2,2.451-35.64Z" transform="translate(-105.438 -146.072)" fill="#ffca9f"/>
            <path id="Trazado_992617" data-name="Trazado 992617" d="M414.107,206.064c-6.217,7.207-6.332,20.312,1.876,21.152s27.091-.859,27.091-.859l-.164,7.223H473.28s.964-23.546-2.775-24.639-33.884-4.054-33.884-4.054Z" transform="translate(-106.809 -146.404)" fill="#ffcf73"/>
            <path id="Trazado_992618" data-name="Trazado 992618" d="M452.447,246.275c-1.664,5.532-5.957,5.4-5.957,5.4l5.791.172Z" transform="translate(-105.233 -144.635)" fill="#ffca9f"/>
            <path id="Trazado_992619" data-name="Trazado 992619" d="M443.813,270.136l20.487.609a3.258,3.258,0,0,0-.2-1.03l-.005-.006c-.761-2.07-3.579-3.018-6.767-4.506a7.908,7.908,0,0,1-4.212-5.715l.047-1.589a1.17,1.17,0,0,0-1.136-1.205l-6.158-.184a1.166,1.166,0,0,0-1.2,1.27,6.221,6.221,0,0,0,.141.819h.006a4.624,4.624,0,0,0,.278.841c-1.052,2.928-1.283,10.7-1.283,10.7" transform="translate(-105.348 -144.198)" fill="#fff"/>
            <path id="Trazado_992620" data-name="Trazado 992620" d="M454.478,262.9a4.681,4.681,0,0,0-3.808,3.369" transform="translate(-105.055 -143.925)" fill="none" stroke="#383736" stroke-miterlimit="10" stroke-width="1"/>
            <path id="Trazado_992621" data-name="Trazado 992621" d="M456.582,264.438a4.956,4.956,0,0,0-2.123,2.88" transform="translate(-104.893 -143.86)" fill="none" stroke="#383736" stroke-miterlimit="10" stroke-width="1"/>
            <path id="Trazado_992622" data-name="Trazado 992622" d="M443.813,270.05l20.487.609a3.258,3.258,0,0,0-.2-1.03l-.005-.006a24.8,24.8,0,0,1-7.22.31c-4.627-.346-9.752.216-11.172-1.5s-.905-6.195-.273-7.813c.327-.824,1.566-1.038,2.716-1.056a6.844,6.844,0,0,1-3.333-1.046,4.628,4.628,0,0,0,.278.841c-1.052,2.928-1.283,10.7-1.283,10.7" transform="translate(-105.348 -144.113)" fill="#ddd"/>
            <path id="Trazado_992623" data-name="Trazado 992623" d="M464.309,270.191a3.017,3.017,0,0,1-.041,1.382l-20.655-.614a2.649,2.649,0,0,1,.208-1.376c.31-.538,20.487.609,20.487.609" transform="translate(-105.357 -143.645)" fill="#eae9e8"/>
            <path id="Trazado_992624" data-name="Trazado 992624" d="M420.821,171.313,410.731,196.3l-8.422-3.054,7.72-25.791a5.691,5.691,0,0,1,4.788-4.021h3.874Z" transform="translate(-107.122 -148.176)" fill="#79ba6e"/>
            <path id="Trazado_992625" data-name="Trazado 992625" d="M412.178,205.648s1.245.736,10.094,1.809,20.531-1.073,20.531-1.073a6.521,6.521,0,0,0-2.856-3.979H415.023c-1.151.321-2.137,1.9-2.59,2.734-.161.3-.254.509-.254.509" transform="translate(-106.7 -146.511)" fill="#eae9e8"/>
            <path id="Trazado_992626" data-name="Trazado 992626" d="M412.178,205.648s1.245.736,10.094,1.809,20.531-1.073,20.531-1.073a6.521,6.521,0,0,0-2.856-3.979h-1.483c2.5,3.265-2.545,4.809-7.47,4.538s-12.313.526-15.567-.9a11.084,11.084,0,0,0-2.994-.907c-.161.3-.254.509-.254.509" transform="translate(-106.7 -146.511)" fill="#d6d5d4"/>
            <path id="Trazado_992627" data-name="Trazado 992627" d="M443.3,164.754c-3.676-2.952-13.9-5.206-13.9-5.206H426.29s-12.4,2.309-14.4,4.988l3.143,39.7h24.924Z" transform="translate(-106.712 -148.341)" fill="#79ba6e"/>
            <path id="Trazado_992628" data-name="Trazado 992628" d="M413.837,188.921c2.45,10.745,18.757,14.059,18.757,14.059H414.95Z" transform="translate(-106.629 -147.086)" fill="#5d8c53"/>
            <path id="Trazado_992629" data-name="Trazado 992629" d="M427.905,207.857c3.26-1.081,5.471-1.4,6.578-.288s1.438,4,2.1,4.883-2.5.262-2.632-.646c0,0-5.242,2.134-8.273-.713s0-3.523,0-3.523Z" transform="translate(-106.18 -146.32)" fill="#ffca9f"/>
            <path id="Trazado_992630" data-name="Trazado 992630" d="M404.094,204.059l22.621,7.589,2.225-3.236-27.252-14.524-.992,2.005a5.871,5.871,0,0,0,3.4,8.166" transform="translate(-107.216 -146.873)" fill="#ffca9f"/>
            <path id="Trazado_992631" data-name="Trazado 992631" d="M410.478,195.79l-.71,2.533-8.374-3.9.747-1.751,8.338,2.61Z" transform="translate(-107.161 -146.925)" fill="#fca781"/>
            <path id="Trazado_992632" data-name="Trazado 992632" d="M433.557,171.313l10.09,24.991,8.422-3.054-7.72-25.791a5.691,5.691,0,0,0-4.788-4.021H435.6Z" transform="translate(-105.786 -148.176)" fill="#79ba6e"/>
            <path id="Trazado_992633" data-name="Trazado 992633" d="M440.1,187.547l.751-8.867s1.859,14.442,7.114,14.241-4.323,3.41-4.323,3.41Z" transform="translate(-105.507 -147.523)" fill="#5d8c53"/>
            <path id="Trazado_992634" data-name="Trazado 992634" d="M405.918,188.229c5.745.934,9.054-7.927,9.054-7.927l.709,2.245-3.535,9.148-6.228-2.885Z" transform="translate(-106.967 -147.455)" fill="#5d8c53"/>
            <path id="Trazado_992635" data-name="Trazado 992635" d="M420.087,160.88l8.026,11.405,6.047-11.313-6.444-.867-2.49-.418-5.742,1.353Z" transform="translate(-106.388 -148.336)" fill="#eae9e8"/>
            <path id="Trazado_992636" data-name="Trazado 992636" d="M424.053,157.186v4.954a2.755,2.755,0,1,0,5.511,0v-4.954l-2.213-.738-.54-.177-.539.177Z" transform="translate(-106.192 -148.483)" fill="#ffab8a"/>
            <path id="Trazado_992637" data-name="Trazado 992637" d="M438.525,152.031c1.195-1.767,1.81-.8,1.471.7s-2.055,3.465-2.553,2.408l.439-2.538Z" transform="translate(-105.62 -148.703)" fill="#ffab8a"/>
            <path id="Trazado_992638" data-name="Trazado 992638" d="M422.785,149.506c-.532-2.067-1.436-1.362-1.623.17s.772,3.954,1.6,3.125l.439-2.538Z" transform="translate(-106.317 -148.827)" fill="#ffab8a"/>
            <path id="Trazado_992639" data-name="Trazado 992639" d="M422.586,149.846c-.358-.932-.88-.871-.929-.368s-.018,1.974.477,2.394c0,0-.5-1.813-.141-2.146s.593.12.593.12" transform="translate(-106.295 -148.789)" fill="#f99273"/>
            <path id="Trazado_992640" data-name="Trazado 992640" d="M422.6,150.078c-.307,5.474.147,11.335,6.979,12.379,5.822.889,8.069-4.243,9.622-9.5,2.2-7.822-4.532-10.316-6.618-10.887-.109-.03-.2-.053-.288-.074l-.034-.006-.295-.027c-2.161-.163-8.818.008-9.366,8.117" transform="translate(-106.257 -149.094)" fill="#ffca9f"/>
            <path id="Trazado_992641" data-name="Trazado 992641" d="M434.369,152.395c-.113.65.034,1.218.328,1.269s.622-.435.735-1.086-.034-1.218-.328-1.269-.622.435-.735,1.086" transform="translate(-105.753 -148.694)" fill="#5c301d"/>
            <path id="Trazado_992642" data-name="Trazado 992642" d="M428.022,151.3c-.113.651.034,1.219.328,1.269s.623-.435.735-1.086-.034-1.218-.328-1.269-.622.435-.735,1.085" transform="translate(-106.024 -148.741)" fill="#5c301d"/>
            <path id="Trazado_992643" data-name="Trazado 992643" d="M431.419,156.49l.547.169a.385.385,0,0,0,.5-.357l.085-3.112Z" transform="translate(-105.877 -148.614)" fill="#ffab8a"/>
            <path id="Trazado_992644" data-name="Trazado 992644" d="M432.689,158.167l-3.863-.688a2.276,2.276,0,0,0,1.912,1.583,1.667,1.667,0,0,0,1.951-.895" transform="translate(-105.988 -148.43)" fill="#fff"/>
            <path id="Trazado_992645" data-name="Trazado 992645" d="M439.928,151.5l-1.088,2.856.306-4.521-.668-2.133-1.61-2.035s-5.031,1.879-8.354.846a6.239,6.239,0,0,0,2.347-1.885,18.471,18.471,0,0,1-5.945,2s-2.3,2.391-2.235,4.155a3.831,3.831,0,0,1-1.509-3.654c.4-2.348,2.855-5.818,3.2-6.14a21.3,21.3,0,0,1,5.331-1.369c.6.1,5.717,2.288,5.717,2.288s3.582,2.3,4.063,2.613.961,2.916,1.089,3.243a26.607,26.607,0,0,1-.648,3.741" transform="translate(-106.318 -149.194)" fill="#f05823"/>
            <path id="Trazado_992646" data-name="Trazado 992646" d="M452.645,196.771l1.083,4.162-1.8,6.621-6.173-1.3.917-5.436-2.046-3.539Z" transform="translate(-105.313 -146.751)" fill="#ffca9f"/>
            <path id="Trazado_992647" data-name="Trazado 992647" d="M452.9,190.727l.945,5.908-9.688,3.528-2.237-5.763Z" transform="translate(-105.429 -147.009)" fill="#eae9e8"/>
            <path id="Trazado_992648" data-name="Trazado 992648" d="M413.244,190.911l-10.927-4.49-.208,6.518,9.463,3.407Z" transform="translate(-107.13 -147.194)" fill="#eae9e8"/>
            <path id="Trazado_992649" data-name="Trazado 992649" d="M438.635,152.429c.65-.758,1.12-.524,1-.034s-.647,1.865-1.253,2.095c0,0,1.077-1.541.853-1.975s-.6-.086-.6-.086" transform="translate(-105.58 -148.666)" fill="#f99273"/>
            <path id="Trazado_992650" data-name="Trazado 992650" d="M467.588,211.2h-35.51a2.088,2.088,0,0,1-2.047-2.5l3.206-15.793a2.089,2.089,0,0,1,2.047-1.673h35.51a2.088,2.088,0,0,1,2.046,2.5l-3.205,15.793a2.088,2.088,0,0,1-2.046,1.673" transform="translate(-105.938 -146.988)" fill="#e3f5fc"/>
            <path id="Trazado_992651" data-name="Trazado 992651" d="M468.88,211.2H433.37a2.088,2.088,0,0,1-2.046-2.5l3.205-15.793a2.089,2.089,0,0,1,2.047-1.673h35.51a2.088,2.088,0,0,1,2.046,2.5l-3.205,15.793a2.088,2.088,0,0,1-2.046,1.673" transform="translate(-105.883 -146.988)" fill="#f8fdff"/>
            <path id="Trazado_992652" data-name="Trazado 992652" d="M463.982,213.715H427.545a1.667,1.667,0,0,1,0-3.335h36.437a1.667,1.667,0,0,1,0,3.335" transform="translate(-106.114 -146.168)" fill="#e3f5fc"/>
            <path id="Trazado_992653" data-name="Trazado 992653" d="M468.938,213.715H432.5a1.667,1.667,0,0,1,0-3.335h36.436a1.667,1.667,0,0,1,0,3.335" transform="translate(-105.902 -146.168)" fill="#f8fdff"/>
            <path id="Trazado_992654" data-name="Trazado 992654" d="M455.082,201.182a2.263,2.263,0,1,1-2.263-2.263,2.262,2.262,0,0,1,2.263,2.263" transform="translate(-105.059 -146.659)" fill="#e3f5fc"/>
            <path id="Trazado_992703" data-name="Trazado 992703" d="M434.614,76.546h36.632S469.1,63.8,456.866,67.879c0,0-2.416-17.269-17.269-17.269s-10.8,17.779-10.8,17.779S417.371,55.2,410.86,63.578s4.7,12.969,4.7,12.969Z" transform="translate(-106.842 -99.998)" fill="#e1e7ff"/>
            <path id="Trazado_992704" data-name="Trazado 992704" d="M155.6,107.917h36.632s-2.143-12.746-14.379-8.667c0,0-2.416-17.269-17.269-17.269s-10.8,17.779-10.8,17.779-11.431-13.19-17.941-4.81,4.7,12.968,4.7,12.968Z" transform="translate(-117.422 -118.401)" fill="#e1e7ff"/>
            <path id="Trazado_992705" data-name="Trazado 992705" d="M323.715,25.936h36.632S358.2,13.19,345.967,17.269c0,0-2.416-17.269-17.269-17.269s-10.8,17.779-10.8,17.779-11.43-13.19-17.941-4.81,4.7,12.968,4.7,12.968Z" transform="translate(-111.263 -82.645)" fill="#e1e7ff"/>
          </g>
        </g>
      </g>
    </g>
  </g>
</svg>
