<svg xmlns="http://www.w3.org/2000/svg" width="74.053" height="79" viewBox="0 0 74.053 79">
  <g id="Grupo_1177456" data-name="Grupo 1177456" transform="translate(-16.032)">
    <path id="Trazado_992440" data-name="Trazado 992440" d="M146.985,252.931H125.746a2.473,2.473,0,0,1-1.749-.725l-3.136-3.136a3.71,3.71,0,0,0-2.624-1.087H107.406a3.711,3.711,0,0,0-3.711,3.711v32.159a3.711,3.711,0,0,0,3.711,3.711h39.58a3.711,3.711,0,0,0,3.711-3.711V256.641A3.711,3.711,0,0,0,146.985,252.931Z" transform="translate(-74.137 -209.72)" fill="#ffe09f"/>
    <path id="Trazado_992441" data-name="Trazado 992441" d="M150.468,283.853H113.589a6.191,6.191,0,0,1-6.184-6.184V247.984a3.711,3.711,0,0,0-3.711,3.711v32.159a3.711,3.711,0,0,0,3.711,3.711h39.58a3.711,3.711,0,0,0,3.711-3.711h-.227Z" transform="translate(-74.136 -209.721)" fill="#f6d190"/>
    <path id="Trazado_992442" data-name="Trazado 992442" d="M154.714,339.261l8.507-25.52a1.237,1.237,0,0,0-1.173-1.628h-42.61a3.711,3.711,0,0,0-3.52,2.537l-8.47,25.411a3.7,3.7,0,0,0,3.132,1.737h40.616A3.711,3.711,0,0,0,154.714,339.261Z" transform="translate(-77.309 -263.955)" fill="#ecbd83"/>
    <path id="Trazado_992443" data-name="Trazado 992443" d="M34.664,7.5H24.769a1.237,1.237,0,0,0-1.237,1.237v19.79a1.237,1.237,0,0,0,1.237,1.237H39.611a1.237,1.237,0,0,0,1.237-1.237V13.684Z" transform="translate(-6.343 -6.343)" fill="#eceaec"/>
    <circle id="Elipse_13668" data-name="Elipse 13668" cx="2.474" cy="2.474" r="2.474" transform="translate(50.585 28.368)" fill="#b6b1b7"/>
    <path id="Trazado_992444" data-name="Trazado 992444" d="M27.243,22.342V7.5H24.769a1.237,1.237,0,0,0-1.237,1.237v19.79a1.237,1.237,0,0,0,1.237,1.237H39.611a1.237,1.237,0,0,0,1.237-1.237V26.053H30.953a3.711,3.711,0,0,1-3.711-3.711Z" transform="translate(-6.343 -6.343)" fill="#dad8db"/>
    <path id="Trazado_992445" data-name="Trazado 992445" d="M95.677,12.448a1.237,1.237,0,0,0,1.237,1.237h4.948L95.677,7.5Z" transform="translate(-67.356 -6.343)" fill="#dad8db"/>
    <path id="Trazado_992446" data-name="Trazado 992446" d="M116.761,439.776a6.191,6.191,0,0,1-6.184-6.184v-1.237l-3.132,9.4a3.7,3.7,0,0,0,3.132,1.737h40.616a3.711,3.711,0,0,0,3.52-2.537l.391-1.173Z" transform="translate(-77.308 -365.644)" fill="#e2a975"/>
    <path id="Trazado_992447" data-name="Trazado 992447" d="M211.019,7.5h-9.895a1.237,1.237,0,0,0-1.237,1.237v19.79a1.237,1.237,0,0,0,1.237,1.237h14.842a1.237,1.237,0,0,0,1.237-1.237V13.684Z" transform="translate(-155.487 -6.343)" fill="#eceaec"/>
    <path id="Trazado_992448" data-name="Trazado 992448" d="M203.6,22.342V7.5h-2.474a1.237,1.237,0,0,0-1.237,1.237v19.79a1.237,1.237,0,0,0,1.237,1.237h14.842a1.237,1.237,0,0,0,1.237-1.237V26.053h-9.895a3.711,3.711,0,0,1-3.711-3.711Z" transform="translate(-155.487 -6.343)" fill="#dad8db"/>
    <path id="Trazado_992449" data-name="Trazado 992449" d="M272.032,12.448a1.237,1.237,0,0,0,1.237,1.237h4.948L272.032,7.5Z" transform="translate(-216.5 -6.343)" fill="#dad8db"/>
    <path id="Trazado_992450" data-name="Trazado 992450" d="M387.374,7.5h-9.895a1.237,1.237,0,0,0-1.237,1.237v19.79a1.237,1.237,0,0,0,1.237,1.237h14.842a1.237,1.237,0,0,0,1.237-1.237V13.684Z" transform="translate(-304.63 -6.343)" fill="#eceaec"/>
    <path id="Trazado_992451" data-name="Trazado 992451" d="M379.953,22.342V7.5h-2.474a1.237,1.237,0,0,0-1.237,1.237v19.79a1.237,1.237,0,0,0,1.237,1.237h14.842a1.237,1.237,0,0,0,1.237-1.237V26.053h-9.895A3.711,3.711,0,0,1,379.953,22.342Z" transform="translate(-304.63 -6.343)" fill="#dad8db"/>
    <path id="Trazado_992452" data-name="Trazado 992452" d="M448.387,12.448a1.237,1.237,0,0,0,1.237,1.237h4.948L448.387,7.5Z" transform="translate(-365.644 -6.343)" fill="#dad8db"/>
    <path id="Trazado_992453" data-name="Trazado 992453" d="M322.444,456.919h-8.658a1.157,1.157,0,0,0,0,2.314h8.658a1.157,1.157,0,0,0,0-2.314Z" transform="translate(-250.833 -386.418)"/>
    <path id="Trazado_992454" data-name="Trazado 992454" d="M338.476,424.854h-8.658a1.157,1.157,0,0,0,0,2.314h8.658a1.157,1.157,0,0,0,0-2.314Z" transform="translate(-264.391 -359.3)"/>
    <path id="Trazado_992455" data-name="Trazado 992455" d="M49.254,74.459h6.184a1.157,1.157,0,1,0,0-2.314H49.254a1.157,1.157,0,1,0,0,2.314Z" transform="translate(-27.117 -61.013)"/>
    <path id="Trazado_992456" data-name="Trazado 992456" d="M56.6,105.366a1.157,1.157,0,0,0-1.157-1.157H49.254a1.157,1.157,0,1,0,0,2.314h6.184A1.157,1.157,0,0,0,56.6,105.366Z" transform="translate(-27.117 -88.13)"/>
    <path id="Trazado_992457" data-name="Trazado 992457" d="M225.609,74.459h6.184a1.157,1.157,0,1,0,0-2.314h-6.184a1.157,1.157,0,0,0,0,2.314Z" transform="translate(-176.261 -61.013)"/>
    <path id="Trazado_992458" data-name="Trazado 992458" d="M232.95,105.366a1.157,1.157,0,0,0-1.157-1.157h-6.184a1.157,1.157,0,0,0,0,2.314h6.184A1.157,1.157,0,0,0,232.95,105.366Z" transform="translate(-176.26 -88.13)"/>
    <path id="Trazado_992459" data-name="Trazado 992459" d="M89.746,6.523,83.562.339A1.157,1.157,0,0,0,82.743,0H72.848a2.4,2.4,0,0,0-2.394,2.394v19.79a2.4,2.4,0,0,0,2.394,2.394h6.264v3.79A1.318,1.318,0,0,1,77.8,29.685H56.5A3.647,3.647,0,0,0,54.216,27.4V24.578H60.48a2.4,2.4,0,0,0,2.394-2.394V7.342a1.157,1.157,0,0,0-.339-.818L56.35.339A1.157,1.157,0,0,0,55.532,0H45.637a2.4,2.4,0,0,0-2.394,2.394v19.79a2.4,2.4,0,0,0,2.394,2.394H51.9V27.4a3.647,3.647,0,0,0-2.284,2.284h-21.3A1.318,1.318,0,0,1,27,28.368v-3.79h6.264a2.4,2.4,0,0,0,2.394-2.394V7.342a1.157,1.157,0,0,0-.339-.818L29.139.339A1.156,1.156,0,0,0,28.321,0H18.426a2.4,2.4,0,0,0-2.394,2.394v19.79a2.4,2.4,0,0,0,2.394,2.394H24.69v3.79A3.635,3.635,0,0,0,28.321,32h21.3A3.647,3.647,0,0,0,51.9,34.283v7.76a2.532,2.532,0,0,1-1.585-.737l-2.774-2.774A4.836,4.836,0,0,0,44.1,37.106H33.268A4.873,4.873,0,0,0,28.4,41.974V74.132A4.873,4.873,0,0,0,33.267,79H73.884A4.862,4.862,0,0,0,78.5,75.671l8.507-25.52A2.394,2.394,0,0,0,84.738,47H77.716v-.08a4.873,4.873,0,0,0-4.868-4.868H58.006a1.157,1.157,0,0,0,0,2.314H72.848A2.556,2.556,0,0,1,75.4,46.921V47H54.216V34.283A3.647,3.647,0,0,0,56.5,32H77.8a3.635,3.635,0,0,0,3.631-3.631v-3.79h6.264a2.4,2.4,0,0,0,2.394-2.394V7.342a1.157,1.157,0,0,0-.339-.818ZM56.689,3.951l2.233,2.233H56.769a.08.08,0,0,1-.08-.08ZM45.558,22.184V2.394a.08.08,0,0,1,.08-.08h8.738V6.1A2.4,2.4,0,0,0,56.769,8.5h3.79V22.184a.08.08,0,0,1-.08.08H45.637A.08.08,0,0,1,45.558,22.184ZM29.478,3.951l2.233,2.233H29.558a.08.08,0,0,1-.08-.08ZM18.346,22.184V2.394a.08.08,0,0,1,.08-.08h8.738V6.1A2.4,2.4,0,0,0,29.558,8.5h3.79V22.184a.08.08,0,0,1-.08.08H18.426A.08.08,0,0,1,18.346,22.184Zm34.712,7.342a1.318,1.318,0,0,1,1.316,1.314v0a1.316,1.316,0,1,1-1.316-1.319ZM84.8,49.348a.072.072,0,0,1,.011.072L76.307,74.94a2.55,2.55,0,0,1-2.422,1.746H33.269a2.544,2.544,0,0,1-1.842-.79l8.278-24.835a2.55,2.55,0,0,1,2.422-1.746h42.61a.073.073,0,0,1,.064.033ZM42.127,47a4.862,4.862,0,0,0-4.618,3.329L30.715,70.712V41.974a2.556,2.556,0,0,1,2.553-2.553H44.1a2.536,2.536,0,0,1,1.805.748l2.774,2.774a4.833,4.833,0,0,0,3.222,1.42V47ZM83.9,3.951l2.233,2.233H83.98a.08.08,0,0,1-.08-.08Zm3.79,18.313H72.848a.08.08,0,0,1-.08-.08V2.394a.08.08,0,0,1,.08-.08h8.738V6.1A2.4,2.4,0,0,0,83.98,8.5h3.79V22.184a.08.08,0,0,1-.08.08Z"/>
    <path id="Trazado_992460" data-name="Trazado 992460" d="M408.148,72.145h-6.184a1.157,1.157,0,0,0,0,2.314h6.184a1.157,1.157,0,0,0,0-2.314Z" transform="translate(-325.404 -61.013)"/>
    <path id="Trazado_992461" data-name="Trazado 992461" d="M408.148,104.209h-6.184a1.157,1.157,0,0,0,0,2.314h6.184a1.157,1.157,0,0,0,0-2.314Z" transform="translate(-325.404 -88.13)"/>
  </g>
</svg>
