<svg xmlns="http://www.w3.org/2000/svg" width="70.43" height="79" viewBox="0 0 70.43 79">
  <g id="Grupo_1177455" data-name="Grupo 1177455" transform="translate(-4.467 -1)">
    <g id="Grupo_1177422" data-name="Grupo 1177422" transform="translate(8.063 32.131)">
      <g id="Grupo_1177421" data-name="Grupo 1177421">
        <g id="Grupo_1177419" data-name="Grupo 1177419" transform="translate(0.926 0.926)">
          <path id="Trazado_992422" data-name="Trazado 992422" d="M69.528,38.771V70.111a2.866,2.866,0,0,1-2.864,2.864H10.994A2.866,2.866,0,0,1,8.13,70.111V29.834a2.866,2.866,0,0,1,2.864-2.864H24.2a2.7,2.7,0,0,1,2.185,1.123L30.077,33.3a2.7,2.7,0,0,0,2.185,1.123h34.39a2.866,2.866,0,0,1,2.864,2.864v1.481Z" transform="translate(-8.13 -26.97)" fill="#ffb95c"/>
        </g>
        <g id="Grupo_1177420" data-name="Grupo 1177420">
          <path id="Trazado_992423" data-name="Trazado 992423" d="M66.84,74.089H11.17A3.8,3.8,0,0,1,7.38,70.3V30.01a3.8,3.8,0,0,1,3.79-3.79H24.377a3.621,3.621,0,0,1,2.938,1.518l3.691,5.209a1.784,1.784,0,0,0,1.432.741h34.39a3.8,3.8,0,0,1,3.79,3.79v32.81A3.783,3.783,0,0,1,66.84,74.089ZM11.17,28.072A1.941,1.941,0,0,0,9.232,30.01V70.287a1.941,1.941,0,0,0,1.938,1.938H66.827a1.941,1.941,0,0,0,1.938-1.938V37.49a1.941,1.941,0,0,0-1.938-1.938H32.438A3.621,3.621,0,0,1,29.5,34.034l-3.691-5.209a1.784,1.784,0,0,0-1.432-.741H11.17Z" transform="translate(-7.38 -26.22)" fill="#12263f"/>
        </g>
      </g>
    </g>
    <g id="Grupo_1177425" data-name="Grupo 1177425" transform="translate(4.467 45.672)">
      <g id="Grupo_1177423" data-name="Grupo 1177423" transform="translate(0.932 0.938)">
        <path id="Trazado_992424" data-name="Trazado 992424" d="M67.543,70.414H11.478a3.016,3.016,0,0,1-3-2.654L5.244,41.332a3.015,3.015,0,0,1,3-3.382H70.79a3.021,3.021,0,0,1,3,3.382L70.53,67.76A3.013,3.013,0,0,1,67.543,70.414Z" transform="translate(-5.221 -37.95)" fill="#ffb95c"/>
      </g>
      <g id="Grupo_1177424" data-name="Grupo 1177424">
        <path id="Trazado_992425" data-name="Trazado 992425" d="M67.72,71.518H11.655a3.946,3.946,0,0,1-3.913-3.456L4.5,41.621A3.952,3.952,0,0,1,8.408,37.19H70.954a3.952,3.952,0,0,1,3.913,4.431l-3.234,26.44A3.955,3.955,0,0,1,67.72,71.518ZM8.421,39.054A2.084,2.084,0,0,0,6.347,41.4L9.593,67.827a2.093,2.093,0,0,0,2.074,1.839H67.72a2.093,2.093,0,0,0,2.074-1.839L73.04,41.4a2.084,2.084,0,0,0-2.074-2.345Z" transform="translate(-4.467 -37.19)" fill="#12263f"/>
      </g>
    </g>
    <g id="Grupo_1177430" data-name="Grupo 1177430" transform="translate(58.66 65.502)" opacity="0.4">
      <g id="Grupo_1177427" data-name="Grupo 1177427" transform="translate(0 6.246)">
        <g id="Grupo_1177426" data-name="Grupo 1177426">
          <path id="Trazado_992426" data-name="Trazado 992426" d="M56.813,62.864H49.3a.926.926,0,0,1,0-1.852H56l.235-1.889a.927.927,0,1,1,1.839.235l-.333,2.7A.932.932,0,0,1,56.813,62.864Z" transform="translate(-48.37 -58.314)" fill="#fff"/>
        </g>
      </g>
      <g id="Grupo_1177429" data-name="Grupo 1177429" transform="translate(8.399)">
        <g id="Grupo_1177428" data-name="Grupo 1177428">
          <path id="Trazado_992427" data-name="Trazado 992427" d="M56.095,57a.342.342,0,0,1-.111-.012.918.918,0,0,1-.8-1.025l.235-1.9a.926.926,0,0,1,1.839.222l-.235,1.9A.951.951,0,0,1,56.095,57Z" transform="translate(-55.174 -53.254)" fill="#fff"/>
        </g>
      </g>
    </g>
    <g id="Grupo_1177448" data-name="Grupo 1177448" transform="translate(16.16 1)">
      <g id="Grupo_1177437" data-name="Grupo 1177437">
        <g id="Grupo_1177433" data-name="Grupo 1177433">
          <g id="Grupo_1177431" data-name="Grupo 1177431" transform="translate(0.926 0.926)">
            <path id="Trazado_992428" data-name="Trazado 992428" d="M59.893,46.434V10.724h-10V1.75H19.331A4.521,4.521,0,0,0,14.69,6.12V46.434Z" transform="translate(-14.69 -1.75)" fill="#e5e5e5"/>
          </g>
          <g id="Grupo_1177432" data-name="Grupo 1177432">
            <path id="Trazado_992429" data-name="Trazado 992429" d="M60.069,47.536h-45.2a.933.933,0,0,1-.926-.926V6.3A5.436,5.436,0,0,1,19.507,1H50.058a.933.933,0,0,1,.926.926V9.974h9.073a.933.933,0,0,1,.926.926V46.61A.914.914,0,0,1,60.069,47.536ZM15.792,45.684H59.143V11.825H50.058a.933.933,0,0,1-.926-.926V2.852H19.507A3.59,3.59,0,0,0,15.792,6.3Z" transform="translate(-13.94 -1)" fill="#12263f"/>
          </g>
        </g>
        <g id="Grupo_1177436" data-name="Grupo 1177436" transform="translate(35.204 0.007)">
          <g id="Grupo_1177434" data-name="Grupo 1177434" transform="translate(0.913 0.919)">
            <path id="Trazado_992430" data-name="Trazado 992430" d="M43.2,1.75v8.974H53.211Z" transform="translate(-43.2 -1.75)" fill="#cccaca"/>
          </g>
          <g id="Grupo_1177435" data-name="Grupo 1177435">
            <path id="Trazado_992431" data-name="Trazado 992431" d="M53.384,11.824h-10a.933.933,0,0,1-.926-.926V1.924A.907.907,0,0,1,43,1.085a.93.93,0,0,1,1,.16l10,8.974a.94.94,0,0,1,.247,1.025.93.93,0,0,1-.864.58ZM44.3,9.973h6.666L44.3,4Z" transform="translate(-42.46 -1.006)" fill="#12263f"/>
          </g>
        </g>
      </g>
      <g id="Grupo_1177440" data-name="Grupo 1177440" transform="translate(10.011 15.084)">
        <g id="Grupo_1177438" data-name="Grupo 1177438" transform="translate(0.926 0.938)">
          <circle id="Elipse_13667" data-name="Elipse 13667" cx="12.591" cy="12.591" r="12.591" fill="#5f2bd6"/>
        </g>
        <g id="Grupo_1177439" data-name="Grupo 1177439">
          <path id="Trazado_992432" data-name="Trazado 992432" d="M35.566,40.265A13.523,13.523,0,1,1,49.083,26.736,13.528,13.528,0,0,1,35.566,40.265Zm0-25.194A11.665,11.665,0,1,0,47.231,26.736,11.679,11.679,0,0,0,35.566,15.072Z" transform="translate(-22.05 -13.22)" fill="#12263f"/>
        </g>
      </g>
      <g id="Grupo_1177443" data-name="Grupo 1177443" transform="translate(16.468 19.787)">
        <g id="Grupo_1177441" data-name="Grupo 1177441" transform="translate(0.924 0.938)">
          <path id="Trazado_992433" data-name="Trazado 992433" d="M36.448,27.418V17.79H31.881v9.628H28.03l6.135,6.135L40.3,27.418Z" transform="translate(-28.03 -17.79)" fill="#fff"/>
        </g>
        <g id="Grupo_1177442" data-name="Grupo 1177442">
          <path id="Trazado_992434" data-name="Trazado 992434" d="M34.34,34.657a.916.916,0,0,1-.654-.272L27.551,28.25a.926.926,0,0,1,.654-1.58h2.925V17.956a.933.933,0,0,1,.926-.926h4.567a.933.933,0,0,1,.926.926V26.67h2.925a.915.915,0,0,1,.852.568.957.957,0,0,1-.2,1.012l-6.135,6.135A.916.916,0,0,1,34.34,34.657Zm-3.9-6.135,3.9,3.9,3.9-3.9H36.624A.933.933,0,0,1,35.7,27.6V18.882H32.982V27.6a.933.933,0,0,1-.926.926Z" transform="translate(-27.281 -17.03)" fill="#12263f"/>
        </g>
      </g>
      <g id="Grupo_1177445" data-name="Grupo 1177445" transform="translate(5.616 4.629)">
        <g id="Grupo_1177444" data-name="Grupo 1177444">
          <path id="Trazado_992435" data-name="Trazado 992435" d="M43.227,6.6H19.416a.926.926,0,0,1,0-1.852H43.227a.926.926,0,0,1,0,1.852Z" transform="translate(-18.49 -4.75)" fill="#cccaca"/>
        </g>
      </g>
      <g id="Grupo_1177447" data-name="Grupo 1177447" transform="translate(5.616 10.295)">
        <g id="Grupo_1177446" data-name="Grupo 1177446">
          <path id="Trazado_992436" data-name="Trazado 992436" d="M43.227,11.192H19.416a.926.926,0,0,1,0-1.852H43.227a.926.926,0,0,1,0,1.852Z" transform="translate(-18.49 -9.34)" fill="#cccaca"/>
        </g>
      </g>
    </g>
    <g id="Grupo_1177450" data-name="Grupo 1177450" transform="translate(12.519 73.063)">
      <g id="Grupo_1177449" data-name="Grupo 1177449">
        <path id="Trazado_992437" data-name="Trazado 992437" d="M24.593,61.232H11.916a.926.926,0,1,1,0-1.852H24.593a.926.926,0,1,1,0,1.852Z" transform="translate(-10.99 -59.38)" fill="#f9a846"/>
      </g>
    </g>
    <g id="Grupo_1177452" data-name="Grupo 1177452" transform="translate(12.519 68.792)">
      <g id="Grupo_1177451" data-name="Grupo 1177451">
        <path id="Trazado_992438" data-name="Trazado 992438" d="M24.593,57.772H11.916a.926.926,0,0,1,0-1.852H24.593a.926.926,0,0,1,0,1.852Z" transform="translate(-10.99 -55.92)" fill="#f9a846"/>
      </g>
    </g>
    <g id="Grupo_1177454" data-name="Grupo 1177454" transform="translate(12.519 64.533)">
      <g id="Grupo_1177453" data-name="Grupo 1177453">
        <path id="Trazado_992439" data-name="Trazado 992439" d="M24.593,54.322H11.916a.926.926,0,0,1,0-1.852H24.593a.926.926,0,0,1,0,1.852Z" transform="translate(-10.99 -52.47)" fill="#f9a846"/>
      </g>
    </g>
  </g>
</svg>
