<svg xmlns="http://www.w3.org/2000/svg" width="126.855" height="127.046" viewBox="0 0 126.855 127.046">
  <g id="Grupo_1177393" data-name="Grupo 1177393" transform="translate(0 -5.501)">
    <path id="Trazado_992198" data-name="Trazado 992198" d="M86.98,5.5a60.446,60.446,0,0,0-27.03,6.34h0L34.933,97.454A60.7,60.7,0,1,0,86.98,5.5Z" transform="translate(-26.278)" fill="#5f2bd6"/>
    <path id="Trazado_992199" data-name="Trazado 992199" d="M170.242,31.092H82.377a60.9,60.9,0,0,0-17.63,13.256h92.574a4.893,4.893,0,0,1,4.888,4.888V103.88h8.033a5.325,5.325,0,0,0,5.319-5.318V36.41a5.324,5.324,0,0,0-5.318-5.318Z" transform="translate(-48.705 -19.25)" fill="#49ce8b"/>
    <path id="Trazado_992200" data-name="Trazado 992200" d="M89.619,31.092H82.377a60.9,60.9,0,0,0-17.63,13.256H93.486a1.84,1.84,0,0,0-.581-.912,4.175,4.175,0,0,1-1.327-4.67,1.889,1.889,0,0,0-.611-1.992,4.4,4.4,0,0,1-1.452-5.038,1.981,1.981,0,0,0,.105-.644Z" transform="translate(-48.705 -19.25)" fill="#36b277"/>
    <path id="Trazado_992201" data-name="Trazado 992201" d="M166.975,57.166H72.125a61.059,61.059,0,0,0-7.378,6.8h92.574a4.893,4.893,0,0,1,4.888,4.888v48.184h4.766a2.125,2.125,0,0,0,2.125-2.125V59.291A2.126,2.126,0,0,0,166.975,57.166Z" transform="translate(-48.705 -38.864)" fill="#36b277"/>
    <path id="Trazado_992202" data-name="Trazado 992202" d="M64.747,63.962H93.486a1.84,1.84,0,0,0-.581-.912,4.175,4.175,0,0,1-1.327-4.67,1.847,1.847,0,0,0-.055-1.214h-19.4a61.039,61.039,0,0,0-7.378,6.8Z" transform="translate(-48.705 -38.865)" fill="#279b61"/>
    <path id="Trazado_992203" data-name="Trazado 992203" d="M425.689,57.166H408.9a16.472,16.472,0,0,0,.29,6.8h6.846a4.893,4.893,0,0,1,4.888,4.888v6.916a16.443,16.443,0,0,0,6.891.317V59.291A2.125,2.125,0,0,0,425.689,57.166Z" transform="translate(-307.419 -38.864)" fill="#279b61"/>
    <path id="Trazado_992204" data-name="Trazado 992204" d="M108.616,82.855H16.44a60.715,60.715,0,0,0-7.785,72.788h99.961a5.325,5.325,0,0,0,5.319-5.318V88.174A5.324,5.324,0,0,0,108.616,82.855Z" transform="translate(0 -58.188)" fill="#49ce8b"/>
    <path id="Trazado_992205" data-name="Trazado 992205" d="M0,124.391a60.417,60.417,0,0,0,8.655,31.252H51.613V143.8a2.437,2.437,0,0,0-.892-1.852,2.681,2.681,0,0,1-.964-2.192,2.5,2.5,0,0,0-1.062-2.116,4.756,4.756,0,0,1-2.06-4.378,2.424,2.424,0,0,0-.108-.94l-.25-.784a2.451,2.451,0,0,1,.153-1.866c1.165-2.261,3.7-8.364-1.571-10.422a7.785,7.785,0,0,1-5.151-7.915,2.435,2.435,0,0,0-1.062-2.093,6.4,6.4,0,0,1-3-5.917,2.478,2.478,0,0,0-1.52-2.429c-5.894-2.5-5.72-7.8-5.275-10.269a2.449,2.449,0,0,0-.692-2.162,4.772,4.772,0,0,1-1.555-3.842,2.445,2.445,0,0,0-.572-1.767h-9.6A60.482,60.482,0,0,0,0,124.391Z" transform="translate(0 -58.188)" fill="#36b277"/>
    <path id="Trazado_992206" data-name="Trazado 992206" d="M105.349,108.93H11.157A60.762,60.762,0,0,0,5.281,168.8H105.349a2.125,2.125,0,0,0,2.125-2.125V111.055a2.125,2.125,0,0,0-2.125-2.125Z" transform="translate(0 -77.803)" fill="#36b277"/>
    <g id="Grupo_1177386" data-name="Grupo 1177386" transform="translate(0 31.127)">
      <path id="Trazado_992207" data-name="Trazado 992207" d="M0,144.005A60.472,60.472,0,0,0,5.281,168.8H51.613v-5.384a2.437,2.437,0,0,0-.892-1.852,2.681,2.681,0,0,1-.964-2.192,2.5,2.5,0,0,0-1.062-2.116,4.756,4.756,0,0,1-2.06-4.378,2.424,2.424,0,0,0-.108-.94l-.25-.784a2.451,2.451,0,0,1,.153-1.866c1.165-2.261,3.7-8.364-1.571-10.422a7.785,7.785,0,0,1-5.151-7.915,2.435,2.435,0,0,0-1.062-2.093,6.4,6.4,0,0,1-3-5.917,2.478,2.478,0,0,0-1.52-2.429c-5.894-2.5-5.72-7.8-5.275-10.269a2.4,2.4,0,0,0-.137-1.311H11.157A60.415,60.415,0,0,0,0,144.005Z" transform="translate(0 -108.929)" fill="#279b61"/>
      <path id="Trazado_992208" data-name="Trazado 992208" d="M375.664,111.056v16.79a16.433,16.433,0,0,1-18.916-18.915h16.79A2.125,2.125,0,0,1,375.664,111.056Z" transform="translate(-268.19 -108.93)" fill="#279b61"/>
      <path id="Trazado_992209" data-name="Trazado 992209" d="M375.664,290.322v-16.79a16.433,16.433,0,0,0-18.916,18.915h16.79A2.125,2.125,0,0,0,375.664,290.322Z" transform="translate(-268.19 -232.58)" fill="#279b61"/>
      <circle id="Elipse_13649" data-name="Elipse 13649" cx="19.812" cy="19.812" r="19.812" transform="translate(25.048 10.122)" fill="#279b61"/>
    </g>
    <path id="Trazado_992210" data-name="Trazado 992210" d="M124.742,195.458a4.756,4.756,0,0,1-2.06-4.378,2.425,2.425,0,0,0-.108-.94l-.25-.784a2.451,2.451,0,0,1,.153-1.866c1.165-2.261,3.7-8.364-1.571-10.422a7.785,7.785,0,0,1-5.151-7.915,2.435,2.435,0,0,0-1.062-2.093,6.4,6.4,0,0,1-3-5.917,2.445,2.445,0,0,0-.355-1.425,19.811,19.811,0,0,0,14.173,36.618,2.489,2.489,0,0,0-.77-.878Z" transform="translate(-76.047 -116.007)" fill="#1c8c51"/>
    <circle id="Elipse_13650" data-name="Elipse 13650" cx="24.175" cy="24.175" r="24.175" transform="translate(71.917 126.509) rotate(-82.875)" fill="#ffdd40"/>
    <path id="Trazado_992211" data-name="Trazado 992211" d="M301.57,344.733a24.168,24.168,0,0,0,40.824,17.519.768.768,0,0,0-.4-.183,1.789,1.789,0,0,1-1.79-1.856.78.78,0,0,0-.593-.754,2.346,2.346,0,0,1-1.97-2.357.765.765,0,0,0-.63-.729c-5.914-1.135-5.539-5.746-5.39-6.725a.764.764,0,0,0-.048-.409c-.292-.7-1.514-2.9-5.825-4.507-4.214-1.574-4.319-6.031-4.208-7.66a.774.774,0,0,0-.532-.782c-3.356-1.156-3.331-4.251-3.139-5.623a.777.777,0,0,0-.525-.839A2.356,2.356,0,0,1,315.764,327a.746.746,0,0,0-.449-.8,1.992,1.992,0,0,1-1.171-2.129.777.777,0,0,0-.12-.478A24.166,24.166,0,0,0,301.57,344.733Z" transform="translate(-226.852 -239.277)" fill="#ffb332"/>
    <circle id="Elipse_13651" data-name="Elipse 13651" cx="16.641" cy="16.641" r="16.641" transform="translate(75.341 105.456) rotate(-45)" fill="#fceca9"/>
    <path id="Trazado_992212" data-name="Trazado 992212" d="M360.289,376.477a.786.786,0,0,0-.408-.218c-5.914-1.135-5.539-5.746-5.39-6.725a.763.763,0,0,0-.048-.409c-.292-.7-1.514-2.9-5.825-4.507-4.214-1.574-4.319-6.031-4.208-7.66a.774.774,0,0,0-.532-.782c-3.356-1.156-3.331-4.251-3.139-5.623a.756.756,0,0,0-.122-.529,16.641,16.641,0,1,0,19.672,26.453Z" transform="translate(-249.724 -259.162)" fill="#ffdd40"/>
    <path id="Trazado_992213" data-name="Trazado 992213" d="M336.04,329.183A16.641,16.641,0,1,1,319.4,345.824a16.641,16.641,0,0,1,16.641-16.641m0-4.143a20.784,20.784,0,1,0,20.784,20.784A20.808,20.808,0,0,0,336.04,325.04Z" transform="translate(-237.147 -240.369)" fill="#ffb332"/>
    <path id="Trazado_992214" data-name="Trazado 992214" d="M336.041,374.507a20.7,20.7,0,0,0,14.318-5.74.774.774,0,0,0-.455-.318,2.346,2.346,0,0,1-1.97-2.357.74.74,0,0,0-.222-.51,16.641,16.641,0,1,1-19.672-26.452.8.8,0,0,0-.4-.311,2.356,2.356,0,0,1-1.579-2.829.729.729,0,0,0-.073-.449,20.779,20.779,0,0,0,10.054,38.967Z" transform="translate(-237.148 -248.267)" fill="#ff9100"/>
    <circle id="Elipse_13652" data-name="Elipse 13652" cx="24.175" cy="24.175" r="24.175" transform="translate(56.939 81.281)" fill="#ffdd40"/>
    <path id="Trazado_992215" data-name="Trazado 992215" d="M229.81,344.733a24.168,24.168,0,0,0,40.824,17.519.768.768,0,0,0-.4-.183,1.789,1.789,0,0,1-1.79-1.856.78.78,0,0,0-.593-.754,2.346,2.346,0,0,1-1.97-2.357.765.765,0,0,0-.63-.729c-5.914-1.135-5.539-5.746-5.39-6.725a.764.764,0,0,0-.048-.409c-.291-.7-1.514-2.9-5.825-4.507-4.214-1.574-4.319-6.031-4.208-7.66a.774.774,0,0,0-.532-.782c-3.355-1.156-3.331-4.251-3.139-5.623a.777.777,0,0,0-.525-.839A2.356,2.356,0,0,1,244,327a.746.746,0,0,0-.449-.8,1.993,1.993,0,0,1-1.171-2.129.777.777,0,0,0-.12-.478A24.166,24.166,0,0,0,229.81,344.733Z" transform="translate(-172.871 -239.277)" fill="#ffb332"/>
    <circle id="Elipse_13653" data-name="Elipse 13653" cx="16.641" cy="16.641" r="16.641" transform="translate(59.213 114.049) rotate(-66.485)" fill="#fceca9"/>
    <path id="Trazado_992216" data-name="Trazado 992216" d="M288.529,376.477a.786.786,0,0,0-.408-.218c-5.914-1.135-5.539-5.746-5.39-6.725a.764.764,0,0,0-.048-.409c-.291-.7-1.514-2.9-5.825-4.507-4.214-1.574-4.319-6.031-4.208-7.66a.774.774,0,0,0-.532-.782c-3.355-1.156-3.331-4.251-3.139-5.623a.756.756,0,0,0-.122-.529,16.641,16.641,0,1,0,19.672,26.453Z" transform="translate(-195.744 -259.162)" fill="#ffdd40"/>
    <path id="Trazado_992217" data-name="Trazado 992217" d="M264.28,329.183a16.641,16.641,0,1,1-16.641,16.641,16.641,16.641,0,0,1,16.641-16.641m0-4.143a20.784,20.784,0,1,0,20.784,20.784A20.808,20.808,0,0,0,264.28,325.04Z" transform="translate(-183.166 -240.369)" fill="#ffb332"/>
    <path id="Trazado_992218" data-name="Trazado 992218" d="M264.281,374.507a20.7,20.7,0,0,0,14.318-5.74.774.774,0,0,0-.455-.318,2.346,2.346,0,0,1-1.97-2.357.74.74,0,0,0-.222-.51,16.641,16.641,0,1,1-19.672-26.452.8.8,0,0,0-.4-.311,2.356,2.356,0,0,1-1.579-2.829.729.729,0,0,0-.073-.449,20.779,20.779,0,0,0,10.054,38.967Z" transform="translate(-183.167 -248.267)" fill="#ff9100"/>
    <circle id="Elipse_13654" data-name="Elipse 13654" cx="24.175" cy="24.175" r="24.175" transform="matrix(0.128, -0.992, 0.992, 0.128, 36.295, 126.358)" fill="#ffdd40"/>
    <path id="Trazado_992219" data-name="Trazado 992219" d="M158.05,344.733a24.168,24.168,0,0,0,40.824,17.519.769.769,0,0,0-.4-.183,1.789,1.789,0,0,1-1.79-1.856.78.78,0,0,0-.593-.754,2.346,2.346,0,0,1-1.97-2.357.765.765,0,0,0-.63-.729c-5.914-1.135-5.539-5.746-5.39-6.725a.764.764,0,0,0-.048-.409c-.291-.7-1.514-2.9-5.825-4.507-4.214-1.574-4.319-6.031-4.208-7.66a.774.774,0,0,0-.532-.782c-3.356-1.156-3.331-4.251-3.139-5.623a.777.777,0,0,0-.525-.839A2.356,2.356,0,0,1,172.244,327a.746.746,0,0,0-.449-.8,1.992,1.992,0,0,1-1.171-2.129.779.779,0,0,0-.12-.478A24.165,24.165,0,0,0,158.05,344.733Z" transform="translate(-118.891 -239.277)" fill="#ffb332"/>
    <circle id="Elipse_13655" data-name="Elipse 13655" cx="16.641" cy="16.641" r="16.641" transform="translate(39.786 105.452) rotate(-45)" fill="#fceca9"/>
    <path id="Trazado_992220" data-name="Trazado 992220" d="M216.769,376.477a.786.786,0,0,0-.408-.218c-5.914-1.135-5.539-5.746-5.39-6.725a.763.763,0,0,0-.048-.409c-.291-.7-1.514-2.9-5.825-4.507-4.214-1.574-4.319-6.031-4.208-7.66a.774.774,0,0,0-.532-.782c-3.356-1.156-3.331-4.251-3.139-5.623a.756.756,0,0,0-.122-.529,16.641,16.641,0,1,0,19.672,26.453Z" transform="translate(-141.763 -259.162)" fill="#ffdd40"/>
    <path id="Trazado_992221" data-name="Trazado 992221" d="M192.52,329.183a16.641,16.641,0,1,1-16.641,16.641,16.641,16.641,0,0,1,16.641-16.641m0-4.143A20.784,20.784,0,1,0,213.3,345.824,20.808,20.808,0,0,0,192.52,325.04Z" transform="translate(-129.186 -240.369)" fill="#ffb332"/>
    <path id="Trazado_992222" data-name="Trazado 992222" d="M192.521,374.507a20.7,20.7,0,0,0,14.318-5.74.774.774,0,0,0-.455-.318,2.346,2.346,0,0,1-1.97-2.357.74.74,0,0,0-.222-.51,16.641,16.641,0,1,1-19.672-26.452.8.8,0,0,0-.4-.311,2.356,2.356,0,0,1-1.579-2.829.729.729,0,0,0-.073-.449,20.779,20.779,0,0,0,10.054,38.967Z" transform="translate(-129.187 -248.267)" fill="#ff9100"/>
    <g id="Grupo_1177387" data-name="Grupo 1177387" transform="translate(61.263 111.137)">
      <path id="Trazado_992223" data-name="Trazado 992223" d="M249.334,438.719a2.071,2.071,0,0,1-2.071-2.071V433.93a2.071,2.071,0,1,1,4.143,0v2.718A2.071,2.071,0,0,1,249.334,438.719Z" transform="translate(-247.263 -431.859)" fill="#ff9100"/>
    </g>
    <g id="Grupo_1177388" data-name="Grupo 1177388" transform="translate(61.263 92.914)">
      <path id="Trazado_992224" data-name="Trazado 992224" d="M249.334,365a2.071,2.071,0,0,1-2.071-2.071v-2.547a2.071,2.071,0,1,1,4.143,0v2.547A2.071,2.071,0,0,1,249.334,365Z" transform="translate(-247.263 -358.306)" fill="#ff9100"/>
    </g>
    <g id="Grupo_1177389" data-name="Grupo 1177389" transform="translate(57.345 95.461)">
      <path id="Trazado_992225" data-name="Trazado 992225" d="M237.185,388.406a7.5,7.5,0,0,1-4.8-1.368,2.071,2.071,0,0,1,2.268-3.467,3.627,3.627,0,0,0,2.678.692,1.926,1.926,0,0,0,1.926-1.636,1.338,1.338,0,0,0-1.013-1.612L238.2,381l-2.976-1.125a5.478,5.478,0,0,1-3.7-6.2,6.1,6.1,0,0,1,5.984-5.092,7.622,7.622,0,0,1,4.973,1.368,2.071,2.071,0,0,1-2.268,3.467,3.62,3.62,0,0,0-2.677-.692,1.926,1.926,0,0,0-1.926,1.637,1.339,1.339,0,0,0,1.013,1.612l.042.015,2.976,1.125a5.478,5.478,0,0,1,3.695,6.2,6.1,6.1,0,0,1-5.984,5.092h-.174Z" transform="translate(-231.448 -368.586)" fill="#ffb332"/>
    </g>
    <path id="Trazado_992226" data-name="Trazado 992226" d="M309.447,225.359h-7.314a2.154,2.154,0,1,1,0-4.307h7.314a2.154,2.154,0,0,1,0,4.307Z" transform="translate(-225.656 -162.145)" fill="#49ce8b"/>
    <path id="Trazado_992227" data-name="Trazado 992227" d="M24.7,225.359H17.388a2.154,2.154,0,0,1,0-4.307H24.7a2.154,2.154,0,1,1,0,4.307Z" transform="translate(-11.46 -162.145)" fill="#36b277"/>
    <g id="Grupo_1177390" data-name="Grupo 1177390" transform="translate(42.706 68.137)">
      <path id="Trazado_992228" data-name="Trazado 992228" d="M174.52,265.849a2.154,2.154,0,0,1-2.154-2.154V260.46a2.154,2.154,0,0,1,4.307,0V263.7A2.154,2.154,0,0,1,174.52,265.849Z" transform="translate(-172.366 -258.306)" fill="#49ce8b"/>
    </g>
    <g id="Grupo_1177391" data-name="Grupo 1177391" transform="translate(42.706 46.441)">
      <path id="Trazado_992229" data-name="Trazado 992229" d="M174.52,178.079a2.154,2.154,0,0,1-2.154-2.154v-3.033a2.154,2.154,0,0,1,4.307,0v3.033A2.154,2.154,0,0,1,174.52,178.079Z" transform="translate(-172.366 -170.739)" fill="#49ce8b"/>
    </g>
    <g id="Grupo_1177392" data-name="Grupo 1177392" transform="translate(38.042 49.472)">
      <path id="Trazado_992230" data-name="Trazado 992230" d="M160.047,205.946a8.558,8.558,0,0,1-5.53-1.578,2.154,2.154,0,0,1,2.358-3.6,4.6,4.6,0,0,0,3.361.875,2.619,2.619,0,0,0,2.6-2.209,1.912,1.912,0,0,0-1.411-2.266l-.044-.016-3.545-1.34a6.217,6.217,0,0,1-4.2-7.032,6.954,6.954,0,0,1,6.818-5.8,8.666,8.666,0,0,1,5.747,1.577,2.154,2.154,0,0,1-2.358,3.6,4.593,4.593,0,0,0-3.361-.874,2.619,2.619,0,0,0-2.6,2.209,1.912,1.912,0,0,0,1.411,2.265l.044.016,3.545,1.34a6.217,6.217,0,0,1,4.2,7.032,6.954,6.954,0,0,1-6.818,5.8Z" transform="translate(-153.541 -182.974)" fill="#67e8a4"/>
    </g>
  </g>
</svg>
