<svg xmlns="http://www.w3.org/2000/svg" width="128.779" height="124" viewBox="0 0 128.779 124">
  <g id="Grupo_1177362" data-name="Grupo 1177362" transform="translate(0 -9.5)">
    <g id="Grupo_1177329" data-name="Grupo 1177329" transform="translate(0 10.255)">
      <path id="Trazado_992099" data-name="Trazado 992099" d="M86.728,444.5a61.61,61.61,0,0,0,79.618,0Z" transform="translate(-64.914 -335.843)" fill="#5f2bd6"/>
      <path id="Trazado_992100" data-name="Trazado 992100" d="M153.505,23.818v-8.3a3.5,3.5,0,0,1,.235-1.255,61.73,61.73,0,0,0-50.277,9.555Z" transform="translate(-77.44 -12.5)" fill="#5f2bd6"/>
      <path id="Trazado_992101" data-name="Trazado 992101" d="M8.049,136.372a61.686,61.686,0,0,0,0,60.933Z" transform="translate(0 -105.216)" fill="#5f2bd6"/>
    </g>
    <g id="Grupo_1177353" data-name="Grupo 1177353" transform="translate(7.797 21.321)">
      <path id="Trazado_992102" data-name="Trazado 992102" d="M233.506,116.944H196.332a3.525,3.525,0,0,1-3.521-3.521V106.5H155.983v85.014h-.006l.257.252h61.645a61.645,61.645,0,0,0,15.627-74.822Z" transform="translate(-124.543 -93.924)" fill="#678d98"/>
      <path id="Trazado_992103" data-name="Trazado 992103" d="M165.792,191.514V106.5h-9.809v85.014h-.006l.257.252h9.809l-.257-.252Z" transform="translate(-124.543 -93.924)" fill="#537983"/>
      <path id="Trazado_992104" data-name="Trazado 992104" d="M32.006,106.5,31,106.752v81.241a3.773,3.773,0,0,0,3.773,3.773H62.692V106.5Z" transform="translate(-31 -93.924)" fill="#cbe5e8"/>
      <path id="Trazado_992105" data-name="Trazado 992105" d="M41.71,187.993V106.752l1.006-.252H32.006L31,106.752v81.241a3.773,3.773,0,0,0,3.773,3.773h10.71A3.773,3.773,0,0,1,41.71,187.993Z" transform="translate(-31 -93.924)" fill="#a8d3d8"/>
      <g id="Grupo_1177330" data-name="Grupo 1177330" transform="translate(5.785 19.712)">
        <path id="Trazado_992106" data-name="Trazado 992106" d="M58.024,134.873h-3.27a.755.755,0,0,0-.755.755v2.264a.754.754,0,0,0,.755.755h3.27a.754.754,0,0,0,.755-.755v-2.264A.755.755,0,0,0,58.024,134.873Z" transform="translate(-54 -134.873)" fill="#7ca1b1"/>
        <path id="Trazado_992107" data-name="Trazado 992107" d="M88,135.628v2.264a.754.754,0,0,0,.755.755H99.318a.754.754,0,0,0,.755-.755v-2.264a.755.755,0,0,0-.755-.755H88.755A.755.755,0,0,0,88,135.628Z" transform="translate(-79.448 -134.873)" fill="#7ca1b1"/>
      </g>
      <g id="Grupo_1177331" data-name="Grupo 1177331" transform="translate(5.785 28.799)">
        <path id="Trazado_992108" data-name="Trazado 992108" d="M58.024,171h-3.27a.755.755,0,0,0-.755.755v2.264a.755.755,0,0,0,.755.755h3.27a.755.755,0,0,0,.755-.755v-2.264A.755.755,0,0,0,58.024,171Z" transform="translate(-54 -171)" fill="#7ca1b1"/>
        <path id="Trazado_992109" data-name="Trazado 992109" d="M88,171.755v2.264a.755.755,0,0,0,.755.755H99.318a.755.755,0,0,0,.755-.755v-2.264a.755.755,0,0,0-.755-.755H88.755A.755.755,0,0,0,88,171.755Z" transform="translate(-79.448 -171)" fill="#7ca1b1"/>
      </g>
      <g id="Grupo_1177332" data-name="Grupo 1177332" transform="translate(5.785 37.854)">
        <path id="Trazado_992110" data-name="Trazado 992110" d="M73.87,210.773H54.755a.755.755,0,0,1-.755-.755v-2.264a.755.755,0,0,1,.755-.755H73.87a.755.755,0,0,1,.755.755v2.264A.755.755,0,0,1,73.87,210.773Z" transform="translate(-54 -207)" fill="#7ca1b1"/>
      </g>
      <g id="Grupo_1177333" data-name="Grupo 1177333" transform="translate(5.785 55.963)">
        <path id="Trazado_992111" data-name="Trazado 992111" d="M73.87,282.773H54.755a.755.755,0,0,1-.755-.755v-2.264a.755.755,0,0,1,.755-.755H73.87a.755.755,0,0,1,.755.755v2.264A.755.755,0,0,1,73.87,282.773Z" transform="translate(-54 -279)" fill="#7ca1b1"/>
      </g>
      <g id="Grupo_1177334" data-name="Grupo 1177334" transform="translate(5.785 65.018)">
        <path id="Trazado_992112" data-name="Trazado 992112" d="M58.024,315h-3.27a.755.755,0,0,0-.755.755v2.264a.755.755,0,0,0,.755.755h3.27a.755.755,0,0,0,.755-.755v-2.264A.755.755,0,0,0,58.024,315Z" transform="translate(-54 -315)" fill="#7ca1b1"/>
        <path id="Trazado_992113" data-name="Trazado 992113" d="M88,315.755v2.264a.755.755,0,0,0,.755.755H99.318a.755.755,0,0,0,.755-.755v-2.264a.755.755,0,0,0-.755-.755H88.755A.755.755,0,0,0,88,315.755Z" transform="translate(-79.448 -315)" fill="#7ca1b1"/>
      </g>
      <g id="Grupo_1177335" data-name="Grupo 1177335" transform="translate(5.785 74.073)">
        <path id="Trazado_992114" data-name="Trazado 992114" d="M73.87,354.773H54.755a.754.754,0,0,1-.755-.755v-2.264a.754.754,0,0,1,.755-.755H73.87a.754.754,0,0,1,.755.755v2.264A.754.754,0,0,1,73.87,354.773Z" transform="translate(-54 -351)" fill="#7ca1b1"/>
      </g>
      <g id="Grupo_1177336" data-name="Grupo 1177336" transform="translate(5.785 83.128)">
        <path id="Trazado_992115" data-name="Trazado 992115" d="M58.024,387h-3.27a.755.755,0,0,0-.755.755v2.264a.754.754,0,0,0,.755.755h3.27a.754.754,0,0,0,.755-.755v-2.264A.755.755,0,0,0,58.024,387Z" transform="translate(-54 -387)" fill="#7ca1b1"/>
        <path id="Trazado_992116" data-name="Trazado 992116" d="M88,387.755v2.264a.754.754,0,0,0,.755.755H99.318a.754.754,0,0,0,.755-.755v-2.264a.755.755,0,0,0-.755-.755H88.755A.755.755,0,0,0,88,387.755Z" transform="translate(-79.448 -387)" fill="#7ca1b1"/>
      </g>
      <path id="Trazado_992117" data-name="Trazado 992117" d="M99.268,56.5h-64.5A3.773,3.773,0,0,0,31,60.273v9.055H99.268Z" transform="translate(-31 -56.5)" fill="#8ebac5"/>
      <path id="Trazado_992118" data-name="Trazado 992118" d="M45.482,56.5H34.773A3.773,3.773,0,0,0,31,60.273v9.055H41.71V60.273A3.773,3.773,0,0,1,45.482,56.5Z" transform="translate(-31 -56.5)" fill="#7ca1b1"/>
      <g id="Grupo_1177340" data-name="Grupo 1177340" transform="translate(5.549 4.296)">
        <g id="Grupo_1177337" data-name="Grupo 1177337" transform="translate(0 0)">
          <circle id="Elipse_13646" data-name="Elipse 13646" cx="2.224" cy="2.224" r="2.224" fill="#fe7d43"/>
        </g>
        <g id="Grupo_1177338" data-name="Grupo 1177338" transform="translate(6.673 0)">
          <ellipse id="Elipse_13647" data-name="Elipse 13647" cx="1.668" cy="2.224" rx="1.668" ry="2.224" transform="translate(0)" fill="#ffd15b"/>
        </g>
        <g id="Grupo_1177339" data-name="Grupo 1177339" transform="translate(12.234 0)">
          <ellipse id="Elipse_13648" data-name="Elipse 13648" cx="1.668" cy="2.224" rx="1.668" ry="2.224" transform="translate(0)" fill="#00f2a6"/>
        </g>
      </g>
      <g id="Grupo_1177341" data-name="Grupo 1177341" transform="translate(38.986 19.744)">
        <path id="Trazado_992119" data-name="Trazado 992119" d="M216,135.755v2.264a.755.755,0,0,0,.755.755h11.318a.755.755,0,0,0,.755-.755v-2.264a.755.755,0,0,0-.755-.755H216.755A.755.755,0,0,0,216,135.755Z" transform="translate(-208.454 -135)" fill="#fe7d43"/>
        <path id="Trazado_992120" data-name="Trazado 992120" d="M189.018,135h-2.264a.755.755,0,0,0-.755.755v2.264a.755.755,0,0,0,.755.755h2.264a.755.755,0,0,0,.755-.755v-2.264A.755.755,0,0,0,189.018,135Z" transform="translate(-186 -135)" fill="#fff"/>
      </g>
      <g id="Grupo_1177343" data-name="Grupo 1177343" transform="translate(38.986 28.799)">
        <path id="Trazado_992121" data-name="Trazado 992121" d="M189.018,171h-2.264a.755.755,0,0,0-.755.755v2.264a.755.755,0,0,0,.755.755h2.264a.755.755,0,0,0,.755-.755v-2.264A.755.755,0,0,0,189.018,171Z" transform="translate(-186 -171)" fill="#fff"/>
        <g id="Grupo_1177342" data-name="Grupo 1177342" transform="translate(7.546)">
          <path id="Trazado_992122" data-name="Trazado 992122" d="M230.337,171H216.755a.755.755,0,0,0-.755.755v2.264a.755.755,0,0,0,.755.755h13.582a.755.755,0,0,0,.755-.755v-2.264A.755.755,0,0,0,230.337,171Z" transform="translate(-216 -171)" fill="#6cf5c2"/>
          <path id="Trazado_992123" data-name="Trazado 992123" d="M291,171.755v2.264a.755.755,0,0,0,.755.755h38.734a.755.755,0,0,0,.755-.755v-2.264a.755.755,0,0,0-.755-.755H291.755A.755.755,0,0,0,291,171.755Z" transform="translate(-272.136 -171)" fill="#6cf5c2"/>
        </g>
      </g>
      <g id="Grupo_1177345" data-name="Grupo 1177345" transform="translate(38.986 37.854)">
        <path id="Trazado_992124" data-name="Trazado 992124" d="M189.018,207h-2.264a.755.755,0,0,0-.755.755v2.264a.755.755,0,0,0,.755.755h2.264a.755.755,0,0,0,.755-.755v-2.264A.755.755,0,0,0,189.018,207Z" transform="translate(-186 -207)" fill="#fff"/>
        <g id="Grupo_1177344" data-name="Grupo 1177344" transform="translate(7.546)">
          <path id="Trazado_992125" data-name="Trazado 992125" d="M248.195,207h-31.44a.755.755,0,0,0-.755.755v2.264a.755.755,0,0,0,.755.755h31.44a.755.755,0,0,0,.755-.755v-2.264A.755.755,0,0,0,248.195,207Z" transform="translate(-216 -207)" fill="#ffd15b"/>
          <path id="Trazado_992126" data-name="Trazado 992126" d="M362,207.755v2.264a.755.755,0,0,0,.755.755h20.876a.755.755,0,0,0,.755-.755v-2.264a.755.755,0,0,0-.755-.755H362.755A.755.755,0,0,0,362,207.755Z" transform="translate(-325.278 -207)" fill="#fe7d43"/>
        </g>
      </g>
      <g id="Grupo_1177346" data-name="Grupo 1177346" transform="translate(38.986 46.909)">
        <path id="Trazado_992127" data-name="Trazado 992127" d="M189.018,243h-2.264a.755.755,0,0,0-.755.755v2.264a.755.755,0,0,0,.755.755h2.264a.755.755,0,0,0,.755-.755v-2.264A.755.755,0,0,0,189.018,243Z" transform="translate(-186 -243)" fill="#fff"/>
        <path id="Trazado_992128" data-name="Trazado 992128" d="M216,243.755v2.264a.755.755,0,0,0,.755.755h11.318a.755.755,0,0,0,.755-.755v-2.264a.755.755,0,0,0-.755-.755H216.755A.755.755,0,0,0,216,243.755Z" transform="translate(-208.454 -243)" fill="#fff"/>
      </g>
      <g id="Grupo_1177347" data-name="Grupo 1177347" transform="translate(38.986 55.963)">
        <path id="Trazado_992129" data-name="Trazado 992129" d="M189.018,279h-2.264a.755.755,0,0,0-.755.755v2.264a.755.755,0,0,0,.755.755h2.264a.755.755,0,0,0,.755-.755v-2.264A.755.755,0,0,0,189.018,279Z" transform="translate(-186 -279)" fill="#fff"/>
        <path id="Trazado_992130" data-name="Trazado 992130" d="M216,279.755v2.264a.755.755,0,0,0,.755.755h57.6a.755.755,0,0,0,.755-.755v-2.264a.755.755,0,0,0-.755-.755h-57.6A.755.755,0,0,0,216,279.755Z" transform="translate(-208.454 -279)" fill="#fff"/>
      </g>
      <g id="Grupo_1177349" data-name="Grupo 1177349" transform="translate(38.986 65.018)">
        <path id="Trazado_992131" data-name="Trazado 992131" d="M189.018,315h-2.264a.755.755,0,0,0-.755.755v2.264a.755.755,0,0,0,.755.755h2.264a.755.755,0,0,0,.755-.755v-2.264A.755.755,0,0,0,189.018,315Z" transform="translate(-186 -315)" fill="#fff"/>
        <g id="Grupo_1177348" data-name="Grupo 1177348" transform="translate(7.546)">
          <path id="Trazado_992132" data-name="Trazado 992132" d="M310.755,318.773h14.84a.755.755,0,0,0,.755-.755v-2.264a.755.755,0,0,0-.755-.755h-14.84a.755.755,0,0,0-.755.755v2.264A.755.755,0,0,0,310.755,318.773Z" transform="translate(-286.357 -315)" fill="#ffd15b"/>
          <path id="Trazado_992133" data-name="Trazado 992133" d="M235.116,315H216.755a.755.755,0,0,0-.755.755v2.264a.755.755,0,0,0,.755.755h18.361a.755.755,0,0,0,.755-.755v-2.264A.755.755,0,0,0,235.116,315Z" transform="translate(-216 -315)" fill="#fff"/>
          <path id="Trazado_992134" data-name="Trazado 992134" d="M390,315.755v2.264a.755.755,0,0,0,.755.755h13.834a.755.755,0,0,0,.755-.755v-2.264a.755.755,0,0,0-.755-.755H390.755A.754.754,0,0,0,390,315.755Z" transform="translate(-346.235 -315)" fill="#ffd15b"/>
        </g>
      </g>
      <g id="Grupo_1177350" data-name="Grupo 1177350" transform="translate(38.986 74.073)">
        <path id="Trazado_992135" data-name="Trazado 992135" d="M189.018,351h-2.264a.755.755,0,0,0-.755.755v2.264a.755.755,0,0,0,.755.755h2.264a.755.755,0,0,0,.755-.755v-2.264A.755.755,0,0,0,189.018,351Z" transform="translate(-186 -351)" fill="#fff"/>
        <path id="Trazado_992136" data-name="Trazado 992136" d="M216,351.755v2.264a.755.755,0,0,0,.755.755h11.318a.755.755,0,0,0,.755-.755v-2.264a.755.755,0,0,0-.755-.755H216.755A.755.755,0,0,0,216,351.755Z" transform="translate(-208.454 -351)" fill="#fe7d43"/>
      </g>
      <g id="Grupo_1177352" data-name="Grupo 1177352" transform="translate(38.986 83.128)">
        <path id="Trazado_992137" data-name="Trazado 992137" d="M189.018,387h-2.264a.755.755,0,0,0-.755.755v2.264a.755.755,0,0,0,.755.755h2.264a.755.755,0,0,0,.755-.755v-2.264A.755.755,0,0,0,189.018,387Z" transform="translate(-186 -387)" fill="#fff"/>
        <g id="Grupo_1177351" data-name="Grupo 1177351" transform="translate(7.546)">
          <path id="Trazado_992138" data-name="Trazado 992138" d="M299.755,390.773h13.582a.754.754,0,0,0,.755-.755v-2.264a.755.755,0,0,0-.755-.755H299.755a.755.755,0,0,0-.755.755v2.264A.755.755,0,0,0,299.755,390.773Z" transform="translate(-278.124 -387)" fill="#fff"/>
          <path id="Trazado_992139" data-name="Trazado 992139" d="M232.349,387H216.755a.755.755,0,0,0-.755.755v2.264a.755.755,0,0,0,.755.755h15.594a.754.754,0,0,0,.755-.755v-2.264A.754.754,0,0,0,232.349,387Z" transform="translate(-216 -387)" fill="#fff"/>
          <path id="Trazado_992140" data-name="Trazado 992140" d="M374,387.755v2.264a.755.755,0,0,0,.755.755h11.822a.754.754,0,0,0,.755-.755v-2.264a.755.755,0,0,0-.755-.755H374.755A.755.755,0,0,0,374,387.755Z" transform="translate(-334.26 -387)" fill="#fff"/>
        </g>
      </g>
    </g>
    <g id="Grupo_1177361" data-name="Grupo 1177361" transform="translate(75.814 9.5)">
      <g id="Grupo_1177354" data-name="Grupo 1177354" transform="translate(0)">
        <path id="Trazado_992141" data-name="Trazado 992141" d="M350.613,44.594H305.194a3.773,3.773,0,0,1-3.773-3.773V13.273A3.773,3.773,0,0,1,305.194,9.5h45.419a3.773,3.773,0,0,1,3.773,3.773V40.821A3.773,3.773,0,0,1,350.613,44.594Z" transform="translate(-301.421 -9.5)" fill="#0593fc"/>
      </g>
      <path id="Trazado_992142" data-name="Trazado 992142" d="M311.376,40.821V13.273A3.773,3.773,0,0,1,315.149,9.5h-9.955a3.773,3.773,0,0,0-3.773,3.773V40.821a3.773,3.773,0,0,0,3.773,3.773h9.955A3.773,3.773,0,0,1,311.376,40.821Z" transform="translate(-301.421 -9.5)" fill="#0182fc"/>
      <g id="Grupo_1177360" data-name="Grupo 1177360" transform="translate(5.651 8.289)">
        <g id="Grupo_1177358" data-name="Grupo 1177358" transform="translate(0 0.966)">
          <g id="Grupo_1177357" data-name="Grupo 1177357">
            <g id="Grupo_1177355" data-name="Grupo 1177355">
              <path id="Trazado_992143" data-name="Trazado 992143" d="M334.02,62.483l-9.783-6.22a.755.755,0,0,1-.35-.637V53.272a.755.755,0,0,1,.35-.637l9.783-6.22a.755.755,0,0,1,1.042.232l1.214,1.91a.755.755,0,0,1-.232,1.042l-6.627,4.213a.754.754,0,0,0,0,1.273l6.627,4.213a.755.755,0,0,1,.232,1.042l-1.214,1.91A.754.754,0,0,1,334.02,62.483Z" transform="translate(-323.887 -46.297)" fill="#fff"/>
            </g>
            <g id="Grupo_1177356" data-name="Grupo 1177356" transform="translate(29.157 0)">
              <path id="Trazado_992144" data-name="Trazado 992144" d="M441.142,62.253l-1.214-1.91a.755.755,0,0,1,.232-1.042l6.627-4.213a.754.754,0,0,0,0-1.273L440.16,49.6a.755.755,0,0,1-.232-1.042l1.214-1.91a.755.755,0,0,1,1.042-.232l9.783,6.22a.755.755,0,0,1,.35.637v2.355a.755.755,0,0,1-.35.637l-9.783,6.22a.755.755,0,0,1-1.042-.232Z" transform="translate(-439.81 -46.299)" fill="#fff"/>
            </g>
          </g>
        </g>
        <g id="Grupo_1177359" data-name="Grupo 1177359" transform="translate(15.096)">
          <path id="Trazado_992145" data-name="Trazado 992145" d="M386.355,60.893l-2.028-1.006a.755.755,0,0,1-.341-1.011l7.933-16a.755.755,0,0,1,1.011-.341l2.028,1.006a.755.755,0,0,1,.341,1.011l-7.933,16a.755.755,0,0,1-1.011.341Z" transform="translate(-383.907 -42.456)" fill="#fff"/>
        </g>
      </g>
    </g>
  </g>
</svg>
