<svg xmlns="http://www.w3.org/2000/svg" width="118.672" height="124" viewBox="0 0 118.672 124">
  <g id="Grupo_1177385" data-name="Grupo 1177385" transform="translate(-11)">
    <g id="Grupo_1177365" data-name="Grupo 1177365" transform="translate(11 5.328)">
      <path id="Trazado_992153" data-name="Trazado 992153" d="M20.445,60.724A25.064,25.064,0,0,0,43.472,65.9l10.021,6.009a.715.715,0,0,0,.373.105.743.743,0,0,0,.558-.261.711.711,0,0,0,.16-.585L52.9,60.94a25.118,25.118,0,0,0,5.029-5.731h60.986l1.309.207v58.048a59.336,59.336,0,1,0-99.781,0Z" transform="translate(-11 -21.999)" fill="#5f2bd6"/>
      <path id="Trazado_992154" data-name="Trazado 992154" d="M104.91,459.875a59.345,59.345,0,0,0,73.184,0Z" transform="translate(-82.166 -353.827)" fill="#5f2bd6"/>
    </g>
    <g id="Grupo_1177377" data-name="Grupo 1177377" transform="translate(20.203 17.71)">
      <path id="Trazado_992155" data-name="Trazado 992155" d="M147.734,158.125H86.6a24.9,24.9,0,0,1-5.051,5.787l-.106.089,1.7,10.367a.473.473,0,0,1-.106.389.5.5,0,0,1-.373.176.478.478,0,0,1-.248-.071L72.3,168.8l-.1.028A24.822,24.822,0,0,1,49,163.345v52.9a59.653,59.653,0,0,0,13.857,15.2h72.553a59.645,59.645,0,0,0,13.857-15.2V158.367Z" transform="translate(-49 -137.539)" fill="#eaf9fa"/>
      <g id="Grupo_1177366" data-name="Grupo 1177366" transform="translate(0 25.806)">
        <path id="Trazado_992156" data-name="Trazado 992156" d="M62.8,185.9A24.74,24.74,0,0,1,49,179.68v52.9a59.649,59.649,0,0,0,13.8,15.163Z" transform="translate(-49 -179.68)" fill="#d4f2f6"/>
      </g>
      <path id="Trazado_992157" data-name="Trazado 992157" d="M241.641,282.227h-9.93a1.211,1.211,0,0,1-1.211-1.211v-9.93a1.211,1.211,0,0,1,1.211-1.211h9.93a1.211,1.211,0,0,1,1.211,1.211v9.93A1.211,1.211,0,0,1,241.641,282.227Z" transform="translate(-186.543 -222.225)" fill="#fedf30"/>
      <g id="Grupo_1177367" data-name="Grupo 1177367" transform="translate(43.957 47.65)">
        <path id="Trazado_992158" data-name="Trazado 992158" d="M241.641,352.227h-9.93a1.211,1.211,0,0,1-1.211-1.211v-9.93a1.211,1.211,0,0,1,1.211-1.211h9.93a1.211,1.211,0,0,1,1.211,1.211v9.93A1.211,1.211,0,0,1,241.641,352.227Z" transform="translate(-230.5 -322.922)" fill="#fcede1"/>
        <path id="Trazado_992159" data-name="Trazado 992159" d="M311.641,282.227h-9.93a1.211,1.211,0,0,1-1.211-1.211v-9.93a1.211,1.211,0,0,1,1.211-1.211h9.93a1.211,1.211,0,0,1,1.211,1.211v9.93A1.211,1.211,0,0,1,311.641,282.227Z" transform="translate(-283.547 -269.875)" fill="#fcede1"/>
        <path id="Trazado_992160" data-name="Trazado 992160" d="M311.641,352.227h-9.93a1.211,1.211,0,0,1-1.211-1.211v-9.93a1.211,1.211,0,0,1,1.211-1.211h9.93a1.211,1.211,0,0,1,1.211,1.211v9.93A1.211,1.211,0,0,1,311.641,352.227Z" transform="translate(-283.547 -322.922)" fill="#fcede1"/>
      </g>
      <path id="Trazado_992161" data-name="Trazado 992161" d="M261.581,73.125H206.461A24.847,24.847,0,0,1,203.6,93.953h62.823V77.969A4.844,4.844,0,0,0,261.581,73.125Z" transform="translate(-166.159 -73.125)" fill="#bfaaef"/>
      <g id="Grupo_1177375" data-name="Grupo 1177375" transform="translate(10.051 30.697)">
        <g id="Grupo_1177371" data-name="Grupo 1177371">
          <path id="Trazado_992162" data-name="Trazado 992162" d="M97.039,203.383a24.774,24.774,0,0,1-6.394-.836,1.2,1.2,0,0,0-.145.564v9.93a1.211,1.211,0,0,0,1.211,1.211h9.93a1.211,1.211,0,0,0,1.211-1.211v-9.93a1.2,1.2,0,0,0-.072-.4A24.915,24.915,0,0,1,97.039,203.383Z" transform="translate(-90.5 -201.9)" fill="#fcede1"/>
          <g id="Grupo_1177368" data-name="Grupo 1177368" transform="translate(0 0.647)">
            <path id="Trazado_992163" data-name="Trazado 992163" d="M96.434,213.04v-9.667a24.752,24.752,0,0,1-5.788-.826,1.2,1.2,0,0,0-.145.564v9.93a1.211,1.211,0,0,0,1.211,1.211h5.934A1.211,1.211,0,0,1,96.434,213.04Z" transform="translate(-90.5 -202.547)" fill="#ffdabe"/>
          </g>
          <path id="Trazado_992164" data-name="Trazado 992164" d="M171.641,199.875h-5.01l1.007,6.131a.473.473,0,0,1-.106.389.5.5,0,0,1-.373.176.478.478,0,0,1-.248-.071l-6.41-3.844v8.359a1.211,1.211,0,0,0,1.211,1.211h9.93a1.211,1.211,0,0,0,1.211-1.211v-9.93A1.211,1.211,0,0,0,171.641,199.875Z" transform="translate(-143.547 -199.875)" fill="#efebeb"/>
          <g id="Grupo_1177369" data-name="Grupo 1177369" transform="translate(16.953 2.781)">
            <path id="Trazado_992165" data-name="Trazado 992165" d="M166.434,219.718v-4.8l-5.934-3.558v8.359a1.211,1.211,0,0,0,1.211,1.211h5.934A1.211,1.211,0,0,1,166.434,219.718Z" transform="translate(-160.5 -211.359)" fill="#c2b2b2"/>
          </g>
          <path id="Trazado_992166" data-name="Trazado 992166" d="M241.641,212.227h-9.93a1.211,1.211,0,0,1-1.211-1.211v-9.93a1.211,1.211,0,0,1,1.211-1.211h9.93a1.211,1.211,0,0,1,1.211,1.211v9.93A1.211,1.211,0,0,1,241.641,212.227Z" transform="translate(-196.594 -199.875)" fill="#fcede1"/>
          <path id="Trazado_992167" data-name="Trazado 992167" d="M236.434,211.016v-9.93a1.211,1.211,0,0,1,1.211-1.211h-5.934a1.211,1.211,0,0,0-1.211,1.211v9.93a1.211,1.211,0,0,0,1.211,1.211h5.934A1.211,1.211,0,0,1,236.434,211.016Z" transform="translate(-196.594 -199.875)" fill="#ffdabe"/>
          <path id="Trazado_992168" data-name="Trazado 992168" d="M236.434,281.016v-9.93a1.211,1.211,0,0,1,1.211-1.211h-5.934a1.211,1.211,0,0,0-1.211,1.211v9.93a1.211,1.211,0,0,0,1.211,1.211h5.934A1.211,1.211,0,0,1,236.434,281.016Z" transform="translate(-196.594 -252.922)" fill="#fed402"/>
          <path id="Trazado_992169" data-name="Trazado 992169" d="M236.434,351.016v-9.93a1.211,1.211,0,0,1,1.211-1.211h-5.934a1.211,1.211,0,0,0-1.211,1.211v9.93a1.211,1.211,0,0,0,1.211,1.211h5.934A1.211,1.211,0,0,1,236.434,351.016Z" transform="translate(-196.594 -305.969)" fill="#ffdabe"/>
          <path id="Trazado_992170" data-name="Trazado 992170" d="M311.641,212.227h-9.93a1.211,1.211,0,0,1-1.211-1.211v-9.93a1.211,1.211,0,0,1,1.211-1.211h9.93a1.211,1.211,0,0,1,1.211,1.211v9.93A1.211,1.211,0,0,1,311.641,212.227Z" transform="translate(-249.641 -199.875)" fill="#fcede1"/>
          <g id="Grupo_1177370" data-name="Grupo 1177370" transform="translate(50.859)">
            <path id="Trazado_992171" data-name="Trazado 992171" d="M306.434,211.016v-9.93a1.211,1.211,0,0,1,1.211-1.211h-5.934a1.211,1.211,0,0,0-1.211,1.211v9.93a1.211,1.211,0,0,0,1.211,1.211h5.934A1.211,1.211,0,0,1,306.434,211.016Z" transform="translate(-300.5 -199.875)" fill="#ffdabe"/>
            <path id="Trazado_992172" data-name="Trazado 992172" d="M306.434,281.016v-9.93a1.211,1.211,0,0,1,1.211-1.211h-5.934a1.211,1.211,0,0,0-1.211,1.211v9.93a1.211,1.211,0,0,0,1.211,1.211h5.934A1.211,1.211,0,0,1,306.434,281.016Z" transform="translate(-300.5 -252.922)" fill="#ffdabe"/>
            <path id="Trazado_992173" data-name="Trazado 992173" d="M306.434,351.016v-9.93a1.211,1.211,0,0,1,1.211-1.211h-5.934a1.211,1.211,0,0,0-1.211,1.211v9.93a1.211,1.211,0,0,0,1.211,1.211h5.934A1.211,1.211,0,0,1,306.434,351.016Z" transform="translate(-300.5 -305.969)" fill="#ffdabe"/>
          </g>
          <path id="Trazado_992174" data-name="Trazado 992174" d="M381.641,212.227h-9.93a1.211,1.211,0,0,1-1.211-1.211v-9.93a1.211,1.211,0,0,1,1.211-1.211h9.93a1.211,1.211,0,0,1,1.211,1.211v9.93A1.211,1.211,0,0,1,381.641,212.227Z" transform="translate(-302.688 -199.875)" fill="#efebeb"/>
        </g>
        <g id="Grupo_1177372" data-name="Grupo 1177372" transform="translate(0 16.953)">
          <path id="Trazado_992175" data-name="Trazado 992175" d="M101.641,282.227h-9.93a1.211,1.211,0,0,1-1.211-1.211v-9.93a1.211,1.211,0,0,1,1.211-1.211h9.93a1.211,1.211,0,0,1,1.211,1.211v9.93A1.211,1.211,0,0,1,101.641,282.227Z" transform="translate(-90.5 -269.875)" fill="#fcede1"/>
          <path id="Trazado_992176" data-name="Trazado 992176" d="M96.434,281.016v-9.93a1.211,1.211,0,0,1,1.211-1.211H91.711a1.211,1.211,0,0,0-1.211,1.211v9.93a1.211,1.211,0,0,0,1.211,1.211h5.934A1.211,1.211,0,0,1,96.434,281.016Z" transform="translate(-90.5 -269.875)" fill="#ffdabe"/>
          <path id="Trazado_992177" data-name="Trazado 992177" d="M171.641,282.227h-9.93a1.211,1.211,0,0,1-1.211-1.211v-9.93a1.211,1.211,0,0,1,1.211-1.211h9.93a1.211,1.211,0,0,1,1.211,1.211v9.93A1.211,1.211,0,0,1,171.641,282.227Z" transform="translate(-143.547 -269.875)" fill="#fcede1"/>
          <path id="Trazado_992178" data-name="Trazado 992178" d="M166.434,281.016v-9.93a1.211,1.211,0,0,1,1.211-1.211h-5.934a1.211,1.211,0,0,0-1.211,1.211v9.93a1.211,1.211,0,0,0,1.211,1.211h5.934A1.211,1.211,0,0,1,166.434,281.016Z" transform="translate(-143.547 -269.875)" fill="#ffdabe"/>
          <path id="Trazado_992179" data-name="Trazado 992179" d="M381.641,282.227h-9.93a1.211,1.211,0,0,1-1.211-1.211v-9.93a1.211,1.211,0,0,1,1.211-1.211h9.93a1.211,1.211,0,0,1,1.211,1.211v9.93A1.211,1.211,0,0,1,381.641,282.227Z" transform="translate(-302.688 -269.875)" fill="#efebeb"/>
        </g>
        <g id="Grupo_1177374" data-name="Grupo 1177374">
          <path id="Trazado_992180" data-name="Trazado 992180" d="M101.641,352.227h-9.93a1.211,1.211,0,0,1-1.211-1.211v-9.93a1.211,1.211,0,0,1,1.211-1.211h9.93a1.211,1.211,0,0,1,1.211,1.211v9.93A1.211,1.211,0,0,1,101.641,352.227Z" transform="translate(-90.5 -305.969)" fill="#efebeb"/>
          <path id="Trazado_992181" data-name="Trazado 992181" d="M96.434,351.016v-9.93a1.211,1.211,0,0,1,1.211-1.211H91.711a1.211,1.211,0,0,0-1.211,1.211v9.93a1.211,1.211,0,0,0,1.211,1.211h5.934A1.211,1.211,0,0,1,96.434,351.016Z" transform="translate(-90.5 -305.969)" fill="#c2b2b2"/>
          <path id="Trazado_992182" data-name="Trazado 992182" d="M171.641,352.227h-9.93a1.211,1.211,0,0,1-1.211-1.211v-9.93a1.211,1.211,0,0,1,1.211-1.211h9.93a1.211,1.211,0,0,1,1.211,1.211v9.93A1.211,1.211,0,0,1,171.641,352.227Z" transform="translate(-143.547 -305.969)" fill="#efebeb"/>
          <path id="Trazado_992183" data-name="Trazado 992183" d="M166.434,351.016v-9.93a1.211,1.211,0,0,1,1.211-1.211h-5.934a1.211,1.211,0,0,0-1.211,1.211v9.93a1.211,1.211,0,0,0,1.211,1.211h5.934A1.211,1.211,0,0,1,166.434,351.016Z" transform="translate(-143.547 -305.969)" fill="#c2b2b2"/>
          <path id="Trazado_992184" data-name="Trazado 992184" d="M381.641,352.227h-9.93a1.211,1.211,0,0,1-1.211-1.211v-9.93a1.211,1.211,0,0,1,1.211-1.211h9.93a1.211,1.211,0,0,1,1.211,1.211v9.93A1.211,1.211,0,0,1,381.641,352.227Z" transform="translate(-302.688 -305.969)" fill="#efebeb"/>
          <g id="Grupo_1177373" data-name="Grupo 1177373" transform="translate(67.813)">
            <path id="Trazado_992185" data-name="Trazado 992185" d="M376.434,211.016v-9.93a1.211,1.211,0,0,1,1.211-1.211h-5.934a1.211,1.211,0,0,0-1.211,1.211v9.93a1.211,1.211,0,0,0,1.211,1.211h5.934A1.211,1.211,0,0,1,376.434,211.016Z" transform="translate(-370.5 -199.875)" fill="#c2b2b2"/>
            <path id="Trazado_992186" data-name="Trazado 992186" d="M376.434,281.016v-9.93a1.211,1.211,0,0,1,1.211-1.211h-5.934a1.211,1.211,0,0,0-1.211,1.211v9.93a1.211,1.211,0,0,0,1.211,1.211h5.934A1.211,1.211,0,0,1,376.434,281.016Z" transform="translate(-370.5 -252.922)" fill="#c2b2b2"/>
            <path id="Trazado_992187" data-name="Trazado 992187" d="M376.434,351.016v-9.93a1.211,1.211,0,0,1,1.211-1.211h-5.934a1.211,1.211,0,0,0-1.211,1.211v9.93a1.211,1.211,0,0,0,1.211,1.211h5.934A1.211,1.211,0,0,1,376.434,351.016Z" transform="translate(-370.5 -305.969)" fill="#c2b2b2"/>
          </g>
        </g>
      </g>
      <g id="Grupo_1177376" data-name="Grupo 1177376" transform="translate(46.621 6.902)">
        <path id="Trazado_992188" data-name="Trazado 992188" d="M247.313,108.648h-4.6a1.211,1.211,0,0,1-1.211-1.211v-4.6a1.211,1.211,0,0,1,1.211-1.211h4.6a1.211,1.211,0,0,1,1.211,1.211v4.6A1.211,1.211,0,0,1,247.313,108.648Z" transform="translate(-241.5 -101.625)" fill="#210f4b"/>
        <path id="Trazado_992189" data-name="Trazado 992189" d="M299.313,108.648h-4.6a1.211,1.211,0,0,1-1.211-1.211v-4.6a1.211,1.211,0,0,1,1.211-1.211h4.6a1.211,1.211,0,0,1,1.211,1.211v4.6A1.211,1.211,0,0,1,299.313,108.648Z" transform="translate(-280.906 -101.625)" fill="#210f4b"/>
        <path id="Trazado_992190" data-name="Trazado 992190" d="M351.313,108.648h-4.6a1.211,1.211,0,0,1-1.211-1.211v-4.6a1.211,1.211,0,0,1,1.211-1.211h4.6a1.211,1.211,0,0,1,1.211,1.211v4.6A1.211,1.211,0,0,1,351.313,108.648Z" transform="translate(-320.313 -101.625)" fill="#210f4b"/>
        <path id="Trazado_992191" data-name="Trazado 992191" d="M403.313,108.648h-4.6a1.211,1.211,0,0,1-1.211-1.211v-4.6a1.211,1.211,0,0,1,1.211-1.211h4.6a1.211,1.211,0,0,1,1.211,1.211v4.6A1.211,1.211,0,0,1,403.313,108.648Z" transform="translate(-359.719 -101.625)" fill="#210f4b"/>
      </g>
    </g>
    <g id="Grupo_1177384" data-name="Grupo 1177384" transform="translate(11.727)">
      <g id="Grupo_1177383" data-name="Grupo 1177383">
        <g id="Grupo_1177378" data-name="Grupo 1177378">
          <path id="Trazado_992192" data-name="Trazado 992192" d="M55.177,44.269a24.982,24.982,0,1,0-9.431,4.963L55.766,55.24a.727.727,0,0,0,1.091-.741Z" transform="translate(-14)" fill="#ae0d20"/>
        </g>
        <path id="Trazado_992193" data-name="Trazado 992193" d="M23.324,25.066A25.073,25.073,0,0,1,43.723.436a25.067,25.067,0,1,0,0,49.261,25.073,25.073,0,0,1-20.4-24.63Z" transform="translate(-14 0)" fill="#680713"/>
        <g id="Grupo_1177379" data-name="Grupo 1177379" transform="translate(26.883 7.75)">
          <path id="Trazado_992194" data-name="Trazado 992194" d="M128.148,32H125a1.211,1.211,0,0,1,1.211,1.211V54.789A1.211,1.211,0,0,1,125,56h3.148a1.211,1.211,0,0,0,1.211-1.211V33.211A1.211,1.211,0,0,0,128.148,32Z" transform="translate(-125 -32)" fill="#680713"/>
          <path id="Trazado_992195" data-name="Trazado 992195" d="M128.148,145.81H125a1.211,1.211,0,0,1,1.211,1.211v3.692A1.211,1.211,0,0,1,125,151.924h3.148a1.211,1.211,0,0,0,1.211-1.211v-3.692A1.211,1.211,0,0,0,128.148,145.81Z" transform="translate(-125 -118.247)" fill="#680713"/>
        </g>
        <g id="Grupo_1177382" data-name="Grupo 1177382" transform="translate(22.039 7.75)">
          <g id="Grupo_1177380" data-name="Grupo 1177380">
            <path id="Trazado_992196" data-name="Trazado 992196" d="M109.844,56h-3.633A1.211,1.211,0,0,1,105,54.789V33.211A1.211,1.211,0,0,1,106.211,32h3.633a1.211,1.211,0,0,1,1.211,1.211V54.789A1.211,1.211,0,0,1,109.844,56Z" transform="translate(-105 -32)" fill="#fff"/>
          </g>
          <g id="Grupo_1177381" data-name="Grupo 1177381" transform="translate(0 27.563)">
            <path id="Trazado_992197" data-name="Trazado 992197" d="M109.844,151.924h-3.633A1.211,1.211,0,0,1,105,150.713v-3.692a1.211,1.211,0,0,1,1.211-1.211h3.633a1.211,1.211,0,0,1,1.211,1.211v3.692A1.211,1.211,0,0,1,109.844,151.924Z" transform="translate(-105 -145.81)" fill="#fff"/>
          </g>
        </g>
      </g>
    </g>
  </g>
</svg>
