<svg xmlns="http://www.w3.org/2000/svg" width="84" height="85" viewBox="0 0 84 85">
  <g id="Grupo_1177504" data-name="Grupo 1177504" transform="translate(-185.711 -1493)">
    <g id="Grupo_1177275" data-name="Grupo 1177275" transform="translate(10.564 -4028.08)">
      <rect id="Rectángulo_402006" data-name="Rectángulo 402006" width="84" height="85" rx="5" transform="translate(175.146 5521.08)" fill="#ae0d20"/>
      <g id="Grupo_1176970" data-name="Grupo 1176970" transform="translate(189.153 5533.588)">
        <path id="Trazado_991836" data-name="Trazado 991836" d="M320.02,456.919H313.5a.871.871,0,0,0,0,1.743h6.519a.871.871,0,1,0,0-1.743Z" transform="translate(-278.17 -403.834)" fill="#fff"/>
        <path id="Trazado_991837" data-name="Trazado 991837" d="M336.052,424.854h-6.519a.871.871,0,0,0,0,1.743h6.519a.871.871,0,0,0,0-1.743Z" transform="translate(-292.339 -375.494)" fill="#fff"/>
        <path id="Trazado_991838" data-name="Trazado 991838" d="M48.968,73.888h4.657a.871.871,0,1,0,0-1.743H48.968a.871.871,0,1,0,0,1.743Z" transform="translate(-44.372 -63.763)" fill="#fff"/>
        <path id="Trazado_991839" data-name="Trazado 991839" d="M54.5,105.08a.871.871,0,0,0-.871-.871H48.968a.871.871,0,1,0,0,1.743h4.657A.871.871,0,0,0,54.5,105.08Z" transform="translate(-44.372 -92.102)" fill="#fff"/>
        <path id="Trazado_991840" data-name="Trazado 991840" d="M225.323,73.888h4.657a.871.871,0,1,0,0-1.743h-4.657a.871.871,0,1,0,0,1.743Z" transform="translate(-200.237 -63.763)" fill="#fff"/>
        <path id="Trazado_991841" data-name="Trazado 991841" d="M230.85,105.08a.871.871,0,0,0-.871-.871h-4.657a.871.871,0,1,0,0,1.743h4.657A.871.871,0,0,0,230.85,105.08Z" transform="translate(-200.237 -92.102)" fill="#fff"/>
        <path id="Trazado_991842" data-name="Trazado 991842" d="M71.536,4.912,66.88.255A.871.871,0,0,0,66.264,0H58.813a1.8,1.8,0,0,0-1.8,1.8V16.7a1.8,1.8,0,0,0,1.8,1.8H63.53V21.36a.992.992,0,0,1-.991.991H46.5a2.746,2.746,0,0,0-1.719-1.719V18.506H49.5a1.8,1.8,0,0,0,1.8-1.8V5.528a.871.871,0,0,0-.255-.616L46.39.255A.871.871,0,0,0,45.774,0H38.324a1.8,1.8,0,0,0-1.8,1.8V16.7a1.8,1.8,0,0,0,1.8,1.8H43.04v2.126a2.746,2.746,0,0,0-1.719,1.719H25.285a.992.992,0,0,1-.991-.991V18.507h4.717a1.8,1.8,0,0,0,1.8-1.8V5.528a.871.871,0,0,0-.255-.616L25.9.255A.871.871,0,0,0,25.285,0H17.835a1.8,1.8,0,0,0-1.8,1.8V16.7a1.8,1.8,0,0,0,1.8,1.8h4.717V21.36a2.737,2.737,0,0,0,2.734,2.734H41.321a2.746,2.746,0,0,0,1.719,1.719v5.843a1.907,1.907,0,0,1-1.193-.555l-2.089-2.089a3.641,3.641,0,0,0-2.592-1.074H29.01A3.669,3.669,0,0,0,25.345,31.6V55.819a3.669,3.669,0,0,0,3.665,3.665H59.593a3.661,3.661,0,0,0,3.477-2.506l6.405-19.215a1.8,1.8,0,0,0-1.71-2.373H62.478v-.06a3.669,3.669,0,0,0-3.665-3.665H47.637a.871.871,0,0,0,0,1.743H58.813a1.925,1.925,0,0,1,1.923,1.923v.06H44.783V25.814A2.746,2.746,0,0,0,46.5,24.094H62.538a2.737,2.737,0,0,0,2.734-2.734V18.506h4.717a1.8,1.8,0,0,0,1.8-1.8V5.528a.871.871,0,0,0-.255-.616ZM46.646,2.975l1.682,1.682H46.706a.06.06,0,0,1-.06-.06ZM38.264,16.7V1.8a.06.06,0,0,1,.06-.06H44.9V4.6a1.8,1.8,0,0,0,1.8,1.8H49.56V16.7a.06.06,0,0,1-.06.06H38.324A.06.06,0,0,1,38.264,16.7ZM26.157,2.975l1.682,1.682H26.217a.06.06,0,0,1-.06-.06ZM17.775,16.7V1.8a.06.06,0,0,1,.06-.06h6.579V4.6a1.8,1.8,0,0,0,1.8,1.8h2.854V16.7a.06.06,0,0,1-.06.06H17.835A.06.06,0,0,1,17.775,16.7Zm26.137,5.528a.992.992,0,0,1,.991.99v0a.991.991,0,1,1-.991-.993Zm23.9,14.926a.054.054,0,0,1,.008.054L61.417,56.427a1.92,1.92,0,0,1-1.824,1.315H29.011a1.916,1.916,0,0,1-1.387-.595l6.233-18.7a1.92,1.92,0,0,1,1.824-1.315H67.765a.055.055,0,0,1,.049.025ZM35.681,35.39A3.661,3.661,0,0,0,32.2,37.9L27.088,53.244V31.6a1.925,1.925,0,0,1,1.923-1.923h8.156a1.91,1.91,0,0,1,1.359.563l2.089,2.089A3.639,3.639,0,0,0,43.04,33.4V35.39ZM67.135,2.975l1.682,1.682H67.195a.06.06,0,0,1-.06-.06Zm2.854,13.789H58.813a.06.06,0,0,1-.06-.06V1.8a.06.06,0,0,1,.06-.06h6.579V4.6a1.8,1.8,0,0,0,1.8,1.8h2.854V16.7a.06.06,0,0,1-.06.06Z" transform="translate(-16.032 0)" fill="#fff"/>
        <path id="Trazado_991843" data-name="Trazado 991843" d="M406.334,72.145h-4.657a.871.871,0,0,0,0,1.743h4.657a.871.871,0,1,0,0-1.743Z" transform="translate(-356.102 -63.763)" fill="#fff"/>
        <path id="Trazado_991844" data-name="Trazado 991844" d="M406.334,104.209h-4.657a.871.871,0,0,0,0,1.743h4.657a.871.871,0,1,0,0-1.743Z" transform="translate(-356.102 -92.102)" fill="#fff"/>
      </g>
    </g>
  </g>
</svg>
