<svg xmlns="http://www.w3.org/2000/svg" width="84" height="84" viewBox="0 0 84 84">
  <g id="Grupo_1177511" data-name="Grupo 1177511" transform="translate(-1018 -2978)">
    <g id="Grupo_1177496" data-name="Grupo 1177496">
      <g id="Rectángulo_454776" data-name="Rectángulo 454776" transform="translate(1018 2978)" fill="#ae0d20" stroke="#707070" stroke-width="1">
        <rect width="84" height="84" stroke="none"/>
        <rect x="0.5" y="0.5" width="83" height="83" fill="none"/>
      </g>
      <g id="Grupo_1177495" data-name="Grupo 1177495" transform="translate(1026.711 2987)">
        <path id="Trazado_992706" data-name="Trazado 992706" d="M28,50.57H5A4.07,4.07,0,0,1,1,46.5V5.07A4.08,4.08,0,0,1,5.06,1H28.83a1,1,0,0,1,.71.29l9.14,9.13a1,1,0,0,1,.3.71v5.29a1,1,0,0,1-2,0V11.55L28.42,3H5.06A2.07,2.07,0,0,0,3,5.07V46.5a2.07,2.07,0,0,0,2.06,2.07H28a1,1,0,0,1,0,2Z" fill="#fff"/>
        <path id="Trazado_992707" data-name="Trazado 992707" d="M38,12.13H30.4A2.54,2.54,0,0,1,27.84,9.6V2a1.006,1.006,0,0,1,1.71-.71l9.13,9.13a1,1,0,0,1-.7,1.71ZM29.84,4.41V9.6a.54.54,0,0,0,.54.53h5.18Z" fill="#fff"/>
        <path id="Trazado_992708" data-name="Trazado 992708" d="M24.43,12.66h-18a1,1,0,0,1,0-2h18a1,1,0,0,1,0,2Z" fill="#fff"/>
        <path id="Trazado_992709" data-name="Trazado 992709" d="M15.81,19H6.41a1,1,0,0,1,0-2h9.4a1,1,0,1,1,0,2Z" fill="#fff"/>
        <path id="Trazado_992710" data-name="Trazado 992710" d="M8.72,25.26H6.41a1,1,0,0,1,0-2H8.72a1,1,0,0,1,0,2Z" fill="#fff"/>
        <path id="Trazado_992711" data-name="Trazado 992711" d="M9.28,31.56H6.41a1,1,0,0,1,0-2H9.28a1,1,0,0,1,0,2Z" fill="#fff"/>
        <path id="Trazado_992712" data-name="Trazado 992712" d="M16.49,37.86H6.41a1,1,0,0,1,0-2H16.49a1,1,0,1,1,0,2Z" fill="#fff"/>
        <path id="Trazado_992713" data-name="Trazado 992713" d="M20.78,44.15H6.41a1,1,0,0,1,0-2H20.78a1,1,0,1,1,0,2Z" fill="#fff"/>
        <path id="Trazado_992714" data-name="Trazado 992714" d="M28,36.07a1,1,0,0,1-1-1V30.92a1,1,0,1,1,2,0v4.15A1,1,0,0,1,28,36.07Z" fill="#fff"/>
        <path id="Trazado_992715" data-name="Trazado 992715" d="M60.92,65H31.08A4.07,4.07,0,0,1,27,60.93V42.69a1,1,0,0,1,2,0V60.93A2.07,2.07,0,0,0,31.08,63H60.92A2.08,2.08,0,0,0,63,60.93V26l-8.56-8.55H31.08A2.07,2.07,0,0,0,29,19.49V23.3a1,1,0,0,1-2,0V19.49a4.07,4.07,0,0,1,4.06-4.07H54.85a1,1,0,0,1,.71.29l9.14,9.13a1,1,0,0,1,.3.71V60.93A4.08,4.08,0,0,1,60.92,65Z" fill="#fff"/>
        <path id="Trazado_992716" data-name="Trazado 992716" d="M64,26.56H56.4A2.54,2.54,0,0,1,53.86,24V16.43a1,1,0,0,1,1.71-.71l9.13,9.13a1,1,0,0,1-.7,1.71Zm-8.14-7.72V24a.54.54,0,0,0,.54.54h5.18Z" fill="#fff"/>
        <path id="Trazado_992717" data-name="Trazado 992717" d="M50.45,27.09H40a1,1,0,0,1,0-2H50.45a1,1,0,0,1,0,2Z" fill="#fff"/>
        <path id="Trazado_992718" data-name="Trazado 992718" d="M59.58,33.39H47.87a1,1,0,0,1,0-2H59.58a1,1,0,1,1,0,2Z" fill="#fff"/>
        <path id="Trazado_992719" data-name="Trazado 992719" d="M59.58,39.69H52.9a1,1,0,0,1,0-2h6.68a1,1,0,0,1,0,2Z" fill="#fff"/>
        <path id="Trazado_992720" data-name="Trazado 992720" d="M59.58,46H48.3a1,1,0,0,1,0-2H59.58a1,1,0,0,1,0,2Z" fill="#fff"/>
        <path id="Trazado_992721" data-name="Trazado 992721" d="M59.58,52.28H32.43a1,1,0,0,1,0-2H59.58a1,1,0,0,1,0,2Z" fill="#fff"/>
        <path id="Trazado_992722" data-name="Trazado 992722" d="M59.58,58.58H32.43a1,1,0,0,1,0-2H59.58a1,1,0,0,1,0,2Z" fill="#fff"/>
        <path id="Trazado_992723" data-name="Trazado 992723" d="M20.31,35.71a1.58,1.58,0,0,1-1-.39l-8-7a1.6,1.6,0,0,1-.55-1.2,1.63,1.63,0,0,1,.55-1.2l8-7A1.6,1.6,0,0,1,21,18.67a1.56,1.56,0,0,1,.94,1.44V22.3H35.39A1.6,1.6,0,0,1,37,23.91v6.41a1.6,1.6,0,0,1-1.59,1.6H21.92v2.19a1.62,1.62,0,0,1-1.61,1.6Zm-7.38-8.59,7,6.1V31.28a1.36,1.36,0,0,1,1.36-1.36H35V24.3H21.28A1.35,1.35,0,0,1,19.92,23V21Z" fill="#fff"/>
        <path id="Trazado_992724" data-name="Trazado 992724" d="M40.31,47.47a1.58,1.58,0,0,1-1.6-1.6V43.69H25.24a1.6,1.6,0,0,1-1.59-1.61V35.67a1.6,1.6,0,0,1,1.59-1.6H38.71V31.88a1.59,1.59,0,0,1,2.64-1.2l8,7a1.58,1.58,0,0,1,0,2.4l-8,7a1.58,1.58,0,0,1-1.04.39ZM25.65,41.69h13.7a1.36,1.36,0,0,1,1.36,1.36V45l7-6.11-7-6.11v1.94a1.36,1.36,0,0,1-1.36,1.36H25.65Z" fill="#fff"/>
      </g>
    </g>
  </g>
</svg>
