<svg xmlns="http://www.w3.org/2000/svg" width="84" height="91" viewBox="0 0 84 91">
  <g id="Grupo_1177500" data-name="Grupo 1177500" transform="translate(-185.711 -5172)">
    <g id="Grupo_1119665" data-name="Grupo 1119665" transform="translate(10.564 -349.08)">
      <rect id="Rectángulo_402006" data-name="Rectángulo 402006" width="84" height="91" rx="5" transform="translate(175.146 5521.08)" fill="#ae0d20"/>
      <g id="Grupo_1177415" data-name="Grupo 1177415" transform="translate(181.147 5530.08)">
        <path id="Trazado_992388" data-name="Trazado 992388" d="M103.458,426.151H63.866A3.871,3.871,0,0,1,60,422.285v-3.017a.773.773,0,0,1,.773-.773H94.944a.773.773,0,1,1,0,1.547h-33.4v2.243a2.322,2.322,0,0,0,2.32,2.32h39.591a.773.773,0,0,1,0,1.547Z" transform="translate(-50.721 -353.773)" fill="#fff"/>
        <g id="Grupo_1177412" data-name="Grupo 1177412" transform="translate(46.767 7.575)">
          <g id="Grupo_1177410" data-name="Grupo 1177410" transform="translate(0 10.156)">
            <path id="Trazado_992389" data-name="Trazado 992389" d="M302.4,127.418l5.8,3v-1.744l-3.608-1.815,3.608-1.815V123.3l-5.8,3Z" transform="translate(-302.4 -121.961)" fill="#fff"/>
            <path id="Trazado_992390" data-name="Trazado 992390" d="M347.423,123.243h1.665l3.307-8.593h-1.677Z" transform="translate(-340.46 -114.65)" fill="#fff"/>
            <path id="Trazado_992391" data-name="Trazado 992391" d="M383.361,123.309v1.743l3.634,1.814-3.634,1.814v1.743l5.759-2.965.042-.022V126.3Z" transform="translate(-370.84 -121.97)" fill="#fff"/>
          </g>
          <g id="Grupo_1177411" data-name="Grupo 1177411" transform="translate(13.261)">
            <ellipse id="Elipse_13664" data-name="Elipse 13664" cx="0.844" cy="0.847" rx="0.844" ry="0.847" fill="#fff"/>
            <ellipse id="Elipse_13665" data-name="Elipse 13665" cx="0.844" cy="0.847" rx="0.844" ry="0.847" transform="translate(3.618)" fill="#fff"/>
            <ellipse id="Elipse_13666" data-name="Elipse 13666" cx="0.844" cy="0.847" rx="0.844" ry="0.847" transform="translate(7.235)" fill="#fff"/>
          </g>
        </g>
        <g id="XMLID_157_">
          <path id="Trazado_992392" data-name="Trazado 992392" d="M56.421,64.833a.773.773,0,0,1-.773-.773,8.18,8.18,0,0,1,8.2-8.145.773.773,0,0,1,0,1.547,6.632,6.632,0,0,0-6.65,6.6A.773.773,0,0,1,56.421,64.833Z" transform="translate(-47.042 -47.267)" fill="#fff"/>
          <g id="XMLID_158_">
            <path id="Trazado_992393" data-name="Trazado 992393" d="M104.488,2.893a.773.773,0,0,1-.773-.773V.773a.773.773,0,0,1,1.547,0V2.12A.773.773,0,0,1,104.488,2.893Z" transform="translate(-87.675)" fill="#fff"/>
            <path id="Trazado_992394" data-name="Trazado 992394" d="M25.59,37.872a.771.771,0,0,1-.551-.231l-.937-.952A.773.773,0,0,1,25.2,35.6l.937.952A.793.793,0,0,1,25.59,37.872Z" transform="translate(-20.187 -29.902)" fill="#fff"/>
            <path id="Trazado_992395" data-name="Trazado 992395" d="M2.1,95.134H.773a.773.773,0,0,1,0-1.547H2.1a.773.773,0,0,1,0,1.547Z" transform="translate(0 -79.113)" fill="#fff"/>
            <path id="Trazado_992396" data-name="Trazado 992396" d="M201.313,94.778h-1.325a.773.773,0,1,1,0-1.547h1.325a.773.773,0,0,1,0,1.547Z" transform="translate(-168.406 -78.812)" fill="#fff"/>
            <path id="Trazado_992397" data-name="Trazado 992397" d="M178.472,37.62a.793.793,0,0,1-.551-1.316l.937-.952a.773.773,0,0,1,1.1,1.085l-.937.952A.772.772,0,0,1,178.472,37.62Z" transform="translate(-150.233 -29.689)" fill="#fff"/>
          </g>
        </g>
        <g id="Grupo_1177413" data-name="Grupo 1177413" transform="translate(23.817 35.668)">
          <path id="Trazado_992398" data-name="Trazado 992398" d="M166.45,252.284h-3.27a.773.773,0,0,1-.751-.59l-.466-1.906a8.764,8.764,0,0,1-1.025-.427l-1.671,1.015a.773.773,0,0,1-.948-.114l-2.312-2.312a.773.773,0,0,1-.114-.948l1.019-1.678a8.745,8.745,0,0,1-.424-1.026l-1.9-.464a.773.773,0,0,1-.59-.751v-3.27a.773.773,0,0,1,.59-.751l1.906-.466a8.756,8.756,0,0,1,.427-1.025l-1.015-1.671a.773.773,0,0,1,.114-.948l2.312-2.312a.773.773,0,0,1,.948-.114l1.678,1.019a8.791,8.791,0,0,1,1.026-.424l.464-1.9a.774.774,0,0,1,.751-.59h3.27a.773.773,0,0,1,.751.59l.466,1.906a8.763,8.763,0,0,1,1.025.427l1.671-1.015a.773.773,0,0,1,.948.114l2.312,2.312a.773.773,0,0,1,.114.948l-1.019,1.678a8.744,8.744,0,0,1,.424,1.026l1.9.464a.773.773,0,0,1,.59.751v3.27a.773.773,0,0,1-.59.751l-1.906.466a8.73,8.73,0,0,1-.427,1.025l1.015,1.671a.773.773,0,0,1-.114.948l-2.312,2.312a.773.773,0,0,1-.948.114l-1.678-1.019a8.766,8.766,0,0,1-1.026.424l-.464,1.9A.773.773,0,0,1,166.45,252.284Zm-2.663-1.547h2.056l.423-1.733a.774.774,0,0,1,.541-.56,7.223,7.223,0,0,0,1.537-.635.773.773,0,0,1,.777.015l1.532.93,1.454-1.454-.926-1.526a.773.773,0,0,1-.014-.779,7.223,7.223,0,0,0,.64-1.535.773.773,0,0,1,.56-.538l1.74-.425v-2.056l-1.733-.424a.773.773,0,0,1-.56-.541,7.235,7.235,0,0,0-.635-1.538.773.773,0,0,1,.015-.777l.93-1.531-1.454-1.454-1.526.926a.773.773,0,0,1-.779.014,7.217,7.217,0,0,0-1.535-.64.773.773,0,0,1-.538-.56l-.425-1.739h-2.056l-.423,1.733a.774.774,0,0,1-.541.56,7.222,7.222,0,0,0-1.537.635.773.773,0,0,1-.777-.015l-1.532-.93-1.454,1.454.926,1.526a.773.773,0,0,1,.014.779,7.227,7.227,0,0,0-.64,1.535.773.773,0,0,1-.56.538l-1.74.425v2.056l1.733.423a.773.773,0,0,1,.56.541,7.234,7.234,0,0,0,.635,1.538.773.773,0,0,1-.015.777l-.93,1.531,1.454,1.454,1.526-.926a.773.773,0,0,1,.779-.014,7.218,7.218,0,0,0,1.535.64.773.773,0,0,1,.538.56Z" transform="translate(-154 -230.632)" fill="#fff"/>
          <path id="Trazado_992399" data-name="Trazado 992399" d="M198.366,279.688a4.69,4.69,0,1,1,4.69-4.69A4.7,4.7,0,0,1,198.366,279.688Zm0-7.833A3.143,3.143,0,1,0,201.509,275,3.147,3.147,0,0,0,198.366,271.855Z" transform="translate(-187.54 -264.172)" fill="#fff"/>
        </g>
        <g id="Grupo_1177414" data-name="Grupo 1177414" transform="translate(5.089 4.794)">
          <path id="Trazado_992400" data-name="Trazado 992400" d="M96.638,60.694a3.561,3.561,0,0,0,3.557-3.557V34.866A3.871,3.871,0,0,0,96.329,31H70.853A3.561,3.561,0,0,0,67.3,34.557V52.925h-16a8.57,8.57,0,0,1,1.1-1.176,11.714,11.714,0,1,0-15.552,0,8.471,8.471,0,0,1,2.072,2.789,3.246,3.246,0,0,0,.686,5.97v2.041a2.306,2.306,0,0,0,.141.789V87.989a.773.773,0,1,0,1.547,0V64.779a2.307,2.307,0,0,0,.632.09h2.593V87a.773.773,0,0,0,.773.773H73.9l1.652.4a11.25,11.25,0,0,0,.642,1.553l-1.4,2.306a.773.773,0,0,0,.114.948l3.024,3.024a.773.773,0,0,0,.948.114l2.3-1.395a11.234,11.234,0,0,0,1.551.646l.64,2.62a.774.774,0,0,0,.751.59H88.4a.773.773,0,0,0,.751-.59l.638-2.609a11.229,11.229,0,0,0,1.553-.642l2.306,1.4a.773.773,0,0,0,.948-.114L97.62,93a.773.773,0,0,0,.114-.948l-1.395-2.3a11.236,11.236,0,0,0,.646-1.551l2.62-.64a.773.773,0,0,0,.59-.751V82.541a.773.773,0,0,0-.59-.751L97,81.152a11.249,11.249,0,0,0-.642-1.553l1.4-2.306a.773.773,0,0,0-.114-.948l-3.024-3.024a.773.773,0,0,0-.948-.114l-2.3,1.395a11.233,11.233,0,0,0-1.551-.646l-.64-2.62a.774.774,0,0,0-.751-.59H85.176V60.694Zm-27.8-26.136a2.013,2.013,0,0,1,2.01-2.011H96.329a2.322,2.322,0,0,1,2.32,2.32v1.843H68.842ZM67.3,54.472v2.665a3.587,3.587,0,0,0,.034.489H52.069c.006-.08.012-.161.012-.242a3.251,3.251,0,0,0-1.742-2.876l.016-.035ZM37.87,50.593a10.167,10.167,0,1,1,13.5,0,10.014,10.014,0,0,0-2.561,3.541H45.43V48.511a3.7,3.7,0,1,0-1.547,0v5.622h-3.4l-.05,0a10.008,10.008,0,0,0-2.563-3.543Zm6.787-3.546a2.191,2.191,0,1,1,2.158-2.191A2.177,2.177,0,0,1,44.657,47.047ZM38.78,57.383a1.705,1.705,0,0,1,1.7-1.7h8.349a1.7,1.7,0,1,1,0,3.406H40.483A1.705,1.705,0,0,1,38.78,57.383Zm2.368,5.167V60.633h7.019v1.917a.774.774,0,0,1-.773.773H41.921A.774.774,0,0,1,41.148,62.549Zm4.913,2.32h1.332a2.322,2.322,0,0,0,2.32-2.32v-2.04a3.262,3.262,0,0,0,1.829-1.338h16.4a3.555,3.555,0,0,0,2.915,1.522h8V73.164a.771.771,0,0,0-.9.137l-3.024,3.024a.773.773,0,0,0-.114.948l1.395,2.3a11.236,11.236,0,0,0-.646,1.551l-2.62.64a.773.773,0,0,0-.59.751v3.715h-26.3Zm41.76,7.423.6,2.456a.773.773,0,0,0,.538.56,9.687,9.687,0,0,1,2.059.858.773.773,0,0,0,.779-.014l2.155-1.308,2.165,2.165L94.8,79.171a.773.773,0,0,0-.015.777,9.674,9.674,0,0,1,.851,2.061.773.773,0,0,0,.56.541l2.447.6V86.21l-2.456.6a.773.773,0,0,0-.56.538,9.687,9.687,0,0,1-.858,2.058.773.773,0,0,0,.014.779L96.1,92.341l-2.165,2.165L91.77,93.193a.772.772,0,0,0-.777-.015,9.685,9.685,0,0,1-2.061.852.774.774,0,0,0-.541.56l-.6,2.447H84.731l-.6-2.456a.773.773,0,0,0-.538-.56,9.687,9.687,0,0,1-2.059-.858.773.773,0,0,0-.779.014L78.6,94.486l-2.165-2.165,1.313-2.162a.773.773,0,0,0,.015-.777,9.674,9.674,0,0,1-.851-2.061.773.773,0,0,0-.56-.541l-2.447-.6V83.12l2.456-.6a.773.773,0,0,0,.56-.538,9.687,9.687,0,0,1,.858-2.058.773.773,0,0,0-.014-.779l-1.308-2.155,2.165-2.165,2.162,1.313a.773.773,0,0,0,.777.015A9.685,9.685,0,0,1,83.62,75.3a.774.774,0,0,0,.541-.56l.6-2.447ZM80.4,74.1v-13.4H83.63V70.953a.768.768,0,0,0-.229.383l-.638,2.609a11.233,11.233,0,0,0-1.553.642ZM70.853,59.147a2.013,2.013,0,0,1-2.01-2.01V38.255H98.648V57.136a2.013,2.013,0,0,1-2.01,2.01Z" transform="translate(-32.906 -31)" fill="#fff"/>
          <path id="Trazado_992401" data-name="Trazado 992401" d="M336.136,343.794a7.659,7.659,0,1,1,7.659-7.659A7.668,7.668,0,0,1,336.136,343.794Zm0-13.772a6.113,6.113,0,1,0,6.112,6.113A6.119,6.119,0,0,0,336.136,330.023Z" transform="translate(-282.766 -282.47)" fill="#fff"/>
          <path id="Trazado_992402" data-name="Trazado 992402" d="M360.087,363.364a3.277,3.277,0,1,1,3.277-3.277A3.281,3.281,0,0,1,360.087,363.364Zm0-5.008a1.731,1.731,0,1,0,1.731,1.731A1.732,1.732,0,0,0,360.087,358.357Z" transform="translate(-306.717 -306.422)" fill="#fff"/>
        </g>
      </g>
    </g>
  </g>
</svg>
