<svg xmlns="http://www.w3.org/2000/svg" width="84" height="85" viewBox="0 0 84 85">
  <g id="Grupo_1177505" data-name="Grupo 1177505" transform="translate(-1017.711 -2345)">
    <g id="Grupo_1177417" data-name="Grupo 1177417">
      <g id="Grupo_1177297" data-name="Grupo 1177297" transform="translate(842.564 -3176.08)">
        <rect id="Rectángulo_402006" data-name="Rectángulo 402006" width="84" height="85" rx="5" transform="translate(175.146 5521.08)" fill="#5f2bd6"/>
      </g>
      <g id="Grupo_1177416" data-name="Grupo 1177416" transform="translate(1022.71 2361)">
        <path id="Trazado_992403" data-name="Trazado 992403" d="M138.074,81.193a1.085,1.085,0,0,0,1.085-1.085V73.082A1.085,1.085,0,0,0,138.074,72H126.753a1.085,1.085,0,0,0-1.085,1.086V75.51h-16.7a1.085,1.085,0,0,0-1.085,1.085V97.847a1.085,1.085,0,0,0,1.085,1.085h5.453v2.428a1.085,1.085,0,0,0,1.085,1.086h11.321a1.085,1.085,0,0,0,1.085-1.086V94.333a1.085,1.085,0,0,0-1.085-1.085h-4.576V89.529h6.156l3.235,3.235a1.1,1.1,0,0,0,1.535,0l3.235-3.235h6.156v3.719H138a1.085,1.085,0,0,0-1.085,1.085v7.026A1.085,1.085,0,0,0,138,102.444h11.321a1.085,1.085,0,0,0,1.085-1.085V94.333a1.085,1.085,0,0,0-1.085-1.085h-4.576v-4.8a1.085,1.085,0,0,0-1.085-1.085h-7.241L133.5,84.442V81.193Zm10.158,14.225v4.856h-9.151V95.418Zm-22.487,0v4.856h-9.151V95.418Zm-4.575-8.059a1.084,1.084,0,0,0-1.085,1.085v4.8h-4.576a1.085,1.085,0,0,0-1.085,1.085v2.428h-4.368V77.679h15.612v2.428a1.085,1.085,0,0,0,1.085,1.085h4.575v3.249l-2.917,2.917Zm13.262,1.085-2.018,2.018L130.4,88.444l2.018-2.018Zm-6.594-9.422V74.167h9.151v4.856Zm0,0" transform="translate(-92.336 -61.619)" fill="#fff"/>
        <path id="Trazado_992404" data-name="Trazado 992404" d="M351.921,80.818h6.592a1.085,1.085,0,1,0,0-2.17h-6.592a1.085,1.085,0,1,0,0,2.17Zm0,0" transform="translate(-300.267 -67.312)" fill="#fff"/>
        <path id="Trazado_992405" data-name="Trazado 992405" d="M351.921,116.263h6.592a1.085,1.085,0,1,0,0-2.17h-6.592a1.085,1.085,0,1,0,0,2.17Zm0,0" transform="translate(-300.267 -97.648)" fill="#fff"/>
        <path id="Trazado_992406" data-name="Trazado 992406" d="M72.713,43.453H70V36.107a1.085,1.085,0,0,0-2.17,0v7.346H64.342V7.336a1.085,1.085,0,0,0-1.085-1.085H10.541A1.085,1.085,0,0,0,9.456,7.336v7.085a1.085,1.085,0,0,0,2.17,0v-6H62.172V43.453H11.626V18.719a1.085,1.085,0,0,0-2.17,0V43.453H5.971V5.383A3.217,3.217,0,0,1,9.184,2.17h55.43a3.216,3.216,0,0,1,3.213,3.213V31.809a1.085,1.085,0,0,0,2.17,0V5.383A5.389,5.389,0,0,0,64.614,0H9.184A5.389,5.389,0,0,0,3.8,5.383v38.07H1.085A1.085,1.085,0,0,0,0,44.538v1.387a6.451,6.451,0,0,0,6.443,6.443h45.8a1.085,1.085,0,1,0,0-2.17H6.444A4.278,4.278,0,0,1,2.17,45.925v-.3h25.9a4.11,4.11,0,0,0,3.956,3.017h9.752a4.109,4.109,0,0,0,3.956-3.017h25.9v.3A4.278,4.278,0,0,1,67.355,50.2H56.537a1.085,1.085,0,0,0,0,2.17H67.355A6.451,6.451,0,0,0,73.8,45.925V44.538a1.085,1.085,0,0,0-1.085-1.085ZM41.775,46.47H32.023a1.931,1.931,0,0,1-1.6-.847H43.373a1.931,1.931,0,0,1-1.6.847Zm0,0" fill="#fff"/>
        <path id="Trazado_992407" data-name="Trazado 992407" d="M250.642,21.651a1.085,1.085,0,1,1-1.085-1.085A1.085,1.085,0,0,1,250.642,21.651Zm0,0" transform="translate(-212.658 -17.602)" fill="#fff"/>
      </g>
    </g>
  </g>
</svg>
