<svg xmlns="http://www.w3.org/2000/svg" width="84" height="163" viewBox="0 0 84 163">
  <g id="Grupo_1177501" data-name="Grupo 1177501" transform="translate(-186.711 -5632)">
    <g id="Grupo_1176969" data-name="Grupo 1176969" transform="translate(1.082 4250)">
      <rect id="Rectángulo_454554" data-name="Rectángulo 454554" width="84" height="163" rx="5" transform="translate(185.629 1382)" fill="#673f3f"/>
      <g id="Grupo_1176968" data-name="Grupo 1176968" transform="translate(194.786 1428)">
        <path id="Trazado_991827" data-name="Trazado 991827" d="M321.326,456.919h-7.672a1.025,1.025,0,1,0,0,2.051h7.672a1.025,1.025,0,0,0,0-2.051Z" transform="translate(-272.08 -394.451)" fill="#efebeb"/>
        <path id="Trazado_991828" data-name="Trazado 991828" d="M337.358,424.854h-7.672a1.025,1.025,0,1,0,0,2.051h7.672a1.025,1.025,0,0,0,0-2.051Z" transform="translate(-285.92 -366.77)" fill="#efebeb"/>
        <path id="Trazado_991829" data-name="Trazado 991829" d="M49.122,74.2H54.6a1.025,1.025,0,1,0,0-2.051h-5.48a1.025,1.025,0,1,0,0,2.051Z" transform="translate(-43.713 -62.282)" fill="#efebeb"/>
        <path id="Trazado_991830" data-name="Trazado 991830" d="M55.627,105.234a1.025,1.025,0,0,0-1.025-1.025h-5.48a1.025,1.025,0,1,0,0,2.051H54.6A1.025,1.025,0,0,0,55.627,105.234Z" transform="translate(-43.713 -89.962)" fill="#efebeb"/>
        <path id="Trazado_991831" data-name="Trazado 991831" d="M225.477,74.2h5.48a1.025,1.025,0,1,0,0-2.051h-5.48a1.025,1.025,0,0,0,0,2.051Z" transform="translate(-195.958 -62.282)" fill="#efebeb"/>
        <path id="Trazado_991832" data-name="Trazado 991832" d="M231.981,105.234a1.025,1.025,0,0,0-1.025-1.025h-5.48a1.025,1.025,0,0,0,0,2.051h5.48A1.025,1.025,0,0,0,231.981,105.234Z" transform="translate(-195.957 -89.962)" fill="#efebeb"/>
        <path id="Trazado_991833" data-name="Trazado 991833" d="M81.346,5.78,75.866.3a1.025,1.025,0,0,0-.725-.3H66.374a2.124,2.124,0,0,0-2.121,2.121V19.656a2.124,2.124,0,0,0,2.121,2.121h5.55v3.358A1.168,1.168,0,0,1,70.758,26.3H51.888a3.232,3.232,0,0,0-2.023-2.023v-2.5h5.55a2.124,2.124,0,0,0,2.121-2.121V6.505a1.025,1.025,0,0,0-.3-.725L51.756.3a1.025,1.025,0,0,0-.725-.3H42.264a2.124,2.124,0,0,0-2.121,2.121V19.656a2.124,2.124,0,0,0,2.121,2.121h5.55v2.5A3.232,3.232,0,0,0,45.791,26.3H26.921a1.168,1.168,0,0,1-1.166-1.166V21.777H31.3a2.124,2.124,0,0,0,2.121-2.121V6.505a1.025,1.025,0,0,0-.3-.725L27.646.3a1.025,1.025,0,0,0-.725-.3H18.153a2.124,2.124,0,0,0-2.121,2.121V19.656a2.124,2.124,0,0,0,2.121,2.121H23.7v3.358a3.221,3.221,0,0,0,3.217,3.217h18.87a3.232,3.232,0,0,0,2.023,2.023v6.876a2.244,2.244,0,0,1-1.4-.653l-2.458-2.458a4.285,4.285,0,0,0-3.05-1.263H31.3a4.318,4.318,0,0,0-4.313,4.313V65.685A4.318,4.318,0,0,0,31.3,70H67.292a4.308,4.308,0,0,0,4.092-2.949l7.537-22.612a2.121,2.121,0,0,0-2.012-2.792H70.687v-.071a4.318,4.318,0,0,0-4.313-4.313H53.223a1.025,1.025,0,1,0,0,2.051H66.374a2.265,2.265,0,0,1,2.262,2.262v.071H49.865V30.376a3.232,3.232,0,0,0,2.023-2.023h18.87a3.221,3.221,0,0,0,3.217-3.217V21.777h5.55a2.124,2.124,0,0,0,2.121-2.121V6.505a1.025,1.025,0,0,0-.3-.725ZM52.056,3.5,54.035,5.48H52.127a.071.071,0,0,1-.071-.071ZM42.193,19.656V2.121a.071.071,0,0,1,.071-.071h7.742V5.409A2.124,2.124,0,0,0,52.127,7.53h3.358V19.656a.071.071,0,0,1-.071.071H42.264a.071.071,0,0,1-.071-.071ZM27.946,3.5,29.925,5.48H28.017a.071.071,0,0,1-.071-.071ZM18.083,19.656V2.121a.071.071,0,0,1,.071-.071H25.9V5.409A2.124,2.124,0,0,0,28.017,7.53h3.358V19.656a.071.071,0,0,1-.071.071H18.153A.071.071,0,0,1,18.083,19.656Zm30.757,6.505a1.168,1.168,0,0,1,1.166,1.165v0a1.166,1.166,0,1,1-1.166-1.168ZM76.966,43.725a.064.064,0,0,1,.01.064L69.438,66.4a2.259,2.259,0,0,1-2.146,1.547H31.3a2.254,2.254,0,0,1-1.632-.7l7.335-22A2.259,2.259,0,0,1,39.154,43.7H76.909a.064.064,0,0,1,.057.029Zm-37.812-2.08a4.308,4.308,0,0,0-4.092,2.949l-6.02,18.06V37.191A2.265,2.265,0,0,1,31.3,34.929h9.6a2.247,2.247,0,0,1,1.6.663l2.458,2.458a4.282,4.282,0,0,0,2.854,1.259v2.338ZM76.167,3.5,78.146,5.48H76.237a.071.071,0,0,1-.071-.071Zm3.358,16.226H66.374a.071.071,0,0,1-.071-.071V2.121a.071.071,0,0,1,.071-.071h7.742V5.409A2.124,2.124,0,0,0,76.238,7.53H79.6V19.656a.071.071,0,0,1-.071.071Z" transform="translate(-16.032 0)" fill="#efebeb"/>
        <path id="Trazado_991834" data-name="Trazado 991834" d="M407.311,72.145h-5.48a1.025,1.025,0,1,0,0,2.051h5.48a1.025,1.025,0,1,0,0-2.051Z" transform="translate(-348.202 -62.282)" fill="#efebeb"/>
        <path id="Trazado_991835" data-name="Trazado 991835" d="M407.311,104.209h-5.48a1.025,1.025,0,1,0,0,2.051h5.48a1.025,1.025,0,1,0,0-2.051Z" transform="translate(-348.202 -89.962)" fill="#efebeb"/>
      </g>
    </g>
  </g>
</svg>
