<svg xmlns="http://www.w3.org/2000/svg" width="84" height="85" viewBox="0 0 84 85">
  <g id="Grupo_1177508" data-name="Grupo 1177508" transform="translate(-1017.711 -4932)">
    <g id="Grupo_1177303" data-name="Grupo 1177303" transform="translate(842.564 -589.08)">
      <rect id="Rectángulo_402006" data-name="Rectángulo 402006" width="84" height="85" rx="5" transform="translate(175.146 5521.08)" fill="#5f2bd6"/>
      <g id="Grupo_1177418" data-name="Grupo 1177418" transform="translate(183.857 5518.821)">
        <path id="Trazado_992408" data-name="Trazado 992408" d="M202.473,122.446a7.531,7.531,0,1,0-7.531-7.531A7.539,7.539,0,0,0,202.473,122.446Zm0-13.149a5.618,5.618,0,1,1-5.618,5.618A5.625,5.625,0,0,1,202.473,109.3Z" transform="translate(-170.083 -81.677)" fill="#fff"/>
        <path id="Trazado_992409" data-name="Trazado 992409" d="M142.5,66.411v5.5l2.333.386a12.154,12.154,0,0,0,1.264,3.049L144.72,77.27l3.889,3.889,1.924-1.378a12.154,12.154,0,0,0,3.049,1.264l.386,2.333h5.5l.386-2.333a12.152,12.152,0,0,0,3.049-1.264l1.924,1.378,3.889-3.889-1.378-1.924A12.154,12.154,0,0,0,168.6,72.3l2.333-.386v-5.5l-2.333-.386a12.152,12.152,0,0,0-1.264-3.049l1.378-1.924-3.889-3.889L162.9,58.54a12.152,12.152,0,0,0-3.049-1.264l-.386-2.333h-5.5l-.386,2.333a12.152,12.152,0,0,0-3.049,1.264l-1.924-1.378-3.889,3.889,1.378,1.924a12.152,12.152,0,0,0-1.264,3.049Zm3.923,1.29a10.748,10.748,0,0,1,1.984-4.786l-1.187-1.658,1.6-1.595,1.658,1.187a10.752,10.752,0,0,1,4.786-1.984l.332-2.01h2.256l.332,2.01a10.748,10.748,0,0,1,4.786,1.984l1.658-1.187,1.595,1.595-1.187,1.658a10.752,10.752,0,0,1,1.984,4.786l2.01.332v2.256l-2.01.332a10.749,10.749,0,0,1-1.984,4.786l1.187,1.658-1.595,1.595-1.658-1.187a10.748,10.748,0,0,1-4.786,1.984l-.332,2.01H155.59l-.332-2.01a10.748,10.748,0,0,1-4.786-1.984l-1.658,1.187-1.6-1.595,1.187-1.658a10.754,10.754,0,0,1-1.984-4.786l-2.01-.332V68.033Z" transform="translate(-124.329 -35.923)" fill="#fff"/>
        <path id="Trazado_992410" data-name="Trazado 992410" d="M39.031,65.114H49.566v1.913H39.031Z" transform="translate(-34.054 -44.797)" fill="#fff"/>
        <path id="Trazado_992411" data-name="Trazado 992411" d="M39.031,93.9H49.566v1.913H39.031Z" transform="translate(-34.054 -69.915)" fill="#fff"/>
        <path id="Trazado_992412" data-name="Trazado 992412" d="M362.662,65.114H373.2v1.913H362.662Z" transform="translate(-316.416 -44.797)" fill="#fff"/>
        <path id="Trazado_992413" data-name="Trazado 992413" d="M362.662,93.9H373.2v1.913H362.662Z" transform="translate(-316.416 -69.915)" fill="#fff"/>
        <path id="Trazado_992414" data-name="Trazado 992414" d="M39.031,123.43H49.566v1.913H39.031Z" transform="translate(-34.054 -95.676)" fill="#fff"/>
        <path id="Trazado_992415" data-name="Trazado 992415" d="M39.031,152.219H49.566v1.913H39.031Z" transform="translate(-34.054 -120.794)" fill="#fff"/>
        <path id="Trazado_992416" data-name="Trazado 992416" d="M39.031,181.746H49.566v1.913H39.031Z" transform="translate(-34.054 -146.556)" fill="#fff"/>
        <path id="Trazado_992417" data-name="Trazado 992417" d="M39.031,210.535H45.74v1.913H39.031Z" transform="translate(-34.054 -171.674)" fill="#fff"/>
        <path id="Trazado_992418" data-name="Trazado 992418" d="M61.137,13.77h-49.4v1.913h49.4a2.242,2.242,0,0,1,2.239,2.239V50.793H1.913V17.922a2.242,2.242,0,0,1,2.239-2.239H9.827V13.77H4.152A4.157,4.157,0,0,0,0,17.922V57.933a4.157,4.157,0,0,0,4.152,4.152H24.54l-1.206,6.027H16.782v7.435H48.507V68.112H41.955l-1.206-6.027h12.8V60.172H4.152a2.242,2.242,0,0,1-2.239-2.239V52.706H63.376v5.227a2.242,2.242,0,0,1-2.239,2.239H55.463v1.913h5.675a4.157,4.157,0,0,0,4.152-4.152V17.922a4.157,4.157,0,0,0-4.152-4.152ZM46.595,70.025v3.609h-27.9V70.025ZM40,68.112H25.284l1.206-6.027H38.8Z" fill="#fff"/>
        <path id="Trazado_992419" data-name="Trazado 992419" d="M248.5,340.887h1.913V342.8H248.5Z" transform="translate(-216.812 -285.404)" fill="#fff"/>
        <path id="Trazado_992420" data-name="Trazado 992420" d="M462.193,123.441H460.28v-8.782h1.913Zm0-10.695H460.28v-1.913h1.913Zm0-3.826H460.28v-1.913h1.913Z" transform="translate(-401.586 -81.349)" fill="#fff"/>
        <path id="Trazado_992421" data-name="Trazado 992421" d="M462.193,123.441H460.28v-8.782h1.913Zm0-10.695H460.28v-1.913h1.913Zm0-3.826H460.28v-1.913h1.913Z" transform="translate(-401.586 -81.349)" fill="#fff"/>
      </g>
    </g>
  </g>
</svg>
