<svg xmlns="http://www.w3.org/2000/svg" width="493" height="607" viewBox="0 0 493 607">
  <g id="Grupo_1177503" data-name="Grupo 1177503" transform="translate(-553.711 -6005)">
    <path id="Trazado_992772" data-name="Trazado 992772" d="M21,0H187a21,21,0,0,1,0,42H21A21,21,0,0,1,21,0Z" transform="translate(553.711 6005)" fill="#ae0d20"/>
    <path id="Trazado_992773" data-name="Trazado 992773" d="M27,0H181a27,27,0,0,1,0,54H27A27,27,0,0,1,27,0Z" transform="translate(553.711 6558)" fill="#ffdabe"/>
    <path id="Trazado_992774" data-name="Trazado 992774" d="M10,0H198a10,10,0,0,1,10,10V44a10,10,0,0,1-10,10H10A10,10,0,0,1,0,44V10A10,10,0,0,1,10,0Z" transform="translate(553.711 6093)" fill="#673f3f"/>
    <path id="Trazado_992775" data-name="Trazado 992775" d="M0,0H208V54H0Z" transform="translate(838.711 6321)" fill="#df9ea5"/>
    <path id="Trazado_992776" data-name="Trazado 992776" d="M27,0H57a27,27,0,0,1,0,54H27A27,27,0,0,1,27,0Z" transform="translate(677.711 6364)" fill="#3d2525"/>
    <path id="Trazado_992777" data-name="Trazado 992777" d="M27,0H57a27,27,0,0,1,0,54H27A27,27,0,0,1,27,0Z" transform="translate(781.711 6210)" fill="#ffdc30"/>
    <path id="Trazado_992778" data-name="Trazado 992778" d="M20,0H188a20,20,0,0,1,20,20V72a20,20,0,0,1-20,20H20A20,20,0,0,1,0,72V20A20,20,0,0,1,20,0Z" transform="translate(553.711 6210)" fill="#ffdc30"/>
    <path id="Trazado_992779" data-name="Trazado 992779" d="M20,0H208a20,20,0,0,1,20,20V40a20,20,0,0,1-20,20H20A20,20,0,0,1,0,40V20A20,20,0,0,1,20,0Z" transform="translate(553.711 6438)" fill="#5f2bd6"/>
    <path id="Trazado_992780" data-name="Trazado 992780" d="M-14.214-3.848q.215-1.1-1.191-1.709l-1.6-.664q-3.369-1.514-3.2-4.121a3.638,3.638,0,0,1,.82-2.124,4.872,4.872,0,0,1,2.08-1.45,7.654,7.654,0,0,1,2.9-.5,4.932,4.932,0,0,1,3.394,1.23A4.088,4.088,0,0,1-9.751-9.99h-3.32a1.989,1.989,0,0,0-.347-1.313,1.5,1.5,0,0,0-1.235-.513,2.588,2.588,0,0,0-1.484.391,1.585,1.585,0,0,0-.762,1.1q-.186.977,1.45,1.6a15.947,15.947,0,0,1,2.378,1.074,3.927,3.927,0,0,1,2.188,3.77,3.86,3.86,0,0,1-.791,2.158A4.573,4.573,0,0,1-13.652-.283a7.307,7.307,0,0,1-2.837.488,6.849,6.849,0,0,1-2.139-.361,4.706,4.706,0,0,1-1.689-1,4.327,4.327,0,0,1-1.367-3.467l3.35.01a2.293,2.293,0,0,0,.42,1.655,2.017,2.017,0,0,0,1.611.562,2.418,2.418,0,0,0,1.4-.386A1.6,1.6,0,0,0-14.214-3.848ZM-3.9-13.193l-.459,2.627h1.689l-.4,2.285H-4.761l-.82,4.854a1.294,1.294,0,0,0,.063.752q.132.254.659.273a7.637,7.637,0,0,0,.84-.049L-4.253-.068A5.192,5.192,0,0,1-5.981.176,2.847,2.847,0,0,1-8.218-.7a3,3,0,0,1-.605-2.334l.859-5.244H-9.272l.391-2.285h1.309l.459-2.627ZM2.788,0a2.865,2.865,0,0,1-.137-.957A3.259,3.259,0,0,1,.063.2,3.184,3.184,0,0,1-2.222-.723,2.759,2.759,0,0,1-3.071-2.9,3.1,3.1,0,0,1-1.636-5.542a6.768,6.768,0,0,1,3.789-.923l1.074.02.117-.6.039-.518A.839.839,0,0,0,2.5-8.477,1.235,1.235,0,0,0,1.2-7.314l-3.223.01a3.06,3.06,0,0,1,.693-1.851A4.109,4.109,0,0,1,.42-10.366a6.125,6.125,0,0,1,2.358-.4,4.723,4.723,0,0,1,2.1.5A3.133,3.133,0,0,1,6.235-8.94a3.368,3.368,0,0,1,.342,1.948L5.786-2.021l-.049.605a2.669,2.669,0,0,0,.186,1.23L5.913,0ZM.952-2.129A2.072,2.072,0,0,0,2.681-3L3-4.7l-.83-.01a2.188,2.188,0,0,0-1.328.454A1.722,1.722,0,0,0,.19-3.066a.865.865,0,0,0,.151.659A.773.773,0,0,0,.952-2.129Zm13.9-5.459a9.192,9.192,0,0,0-1-.1,2.481,2.481,0,0,0-2.207,1L10.454,0H7.241L9.077-10.566l3-.01-.244,1.387a2.933,2.933,0,0,1,2.441-1.6,4.6,4.6,0,0,1,1,.137Zm6.338-5.605-.459,2.627h1.689l-.4,2.285H20.327l-.82,4.854a1.294,1.294,0,0,0,.063.752q.132.254.659.273a7.637,7.637,0,0,0,.84-.049L20.835-.068a5.192,5.192,0,0,1-1.729.244A2.847,2.847,0,0,1,16.87-.7a3,3,0,0,1-.605-2.334l.859-5.244H15.815l.391-2.285h1.309l.459-2.627Z" transform="translate(657.711 6033)" fill="#fff"/>
    <path id="Trazado_992781" data-name="Trazado 992781" d="M-41.47-4.844a5.127,5.127,0,0,1-.981,2.656A5.551,5.551,0,0,1-44.7-.4,6.954,6.954,0,0,1-47.71.2,4.683,4.683,0,0,1-51.216-1.24,5.77,5.77,0,0,1-52.612-5a12.245,12.245,0,0,1,.347-3.447,9.112,9.112,0,0,1,1.416-3.247,6.506,6.506,0,0,1,2.314-2.07,6.008,6.008,0,0,1,2.915-.659,5.086,5.086,0,0,1,3.677,1.4,5.467,5.467,0,0,1,1.47,3.74L-43.8-9.3a2.739,2.739,0,0,0-.469-1.855,2.058,2.058,0,0,0-1.543-.6q-2.637-.088-3.213,4.1a22.537,22.537,0,0,0-.264,2.705q-.049,2.4,1.777,2.471a2.609,2.609,0,0,0,1.885-.581,2.906,2.906,0,0,0,.9-1.753ZM-37.31,0h-3.223l2.6-15h3.223Zm5.43,0H-35.1l1.836-10.566h3.223Zm-1.1-13.232a1.49,1.49,0,0,1,.5-1.191,1.806,1.806,0,0,1,1.265-.479,1.864,1.864,0,0,1,1.255.43,1.464,1.464,0,0,1,.522,1.123,1.493,1.493,0,0,1-.5,1.2,1.811,1.811,0,0,1-1.27.474,1.887,1.887,0,0,1-1.245-.425A1.447,1.447,0,0,1-32.983-13.232Zm8.037,10.889a1.382,1.382,0,0,0,1.084-.383,1.907,1.907,0,0,0,.5-1.043l3.008-.01a3.954,3.954,0,0,1-.688,2.08,4.161,4.161,0,0,1-1.7,1.421A5.023,5.023,0,0,1-25.034.2a3.967,3.967,0,0,1-3.252-1.519,5.251,5.251,0,0,1-.928-3.823l.029-.234a7.079,7.079,0,0,1,.9-2.837,5.14,5.14,0,0,1,1.9-1.909,4.926,4.926,0,0,1,2.632-.635A3.929,3.929,0,0,1-20.84-9.585a4.173,4.173,0,0,1,1.03,3.071l-3.008-.01q.049-1.67-1.2-1.7-1.7-.059-1.953,2.852l-.088.993-.01.37Q-26.069-2.373-24.946-2.344ZM-14.761-3.9l-1.172,1.016L-16.431,0h-3.213l2.607-15.01h3.213L-15.308-7l.391-.469,2.92-3.1h4.072l-4.492,4.492L-9.692,0h-3.525ZM6.4-5.264A7.657,7.657,0,0,1,4.888-1.221,3.788,3.788,0,0,1,1.7.205,2.8,2.8,0,0,1-.7-1.1L-1.1,0h-2.91L-1.4-15H1.812L.767-9.7A3.189,3.189,0,0,1,3.14-10.762,2.977,2.977,0,0,1,5.562-9.653a4.834,4.834,0,0,1,.918,2.964,10.749,10.749,0,0,1-.049,1.221Zm-3.193-.19A10.114,10.114,0,0,0,3.3-6.585q0-1.57-1.123-1.638A1.924,1.924,0,0,0,.5-7.374L-.259-3.163a1.292,1.292,0,0,0,1.328.829q1.572.049,1.982-2.047l.137-.868Zm10.313,4.3A3.5,3.5,0,0,1,10.669.205,2.769,2.769,0,0,1,8.33-.879,4,4,0,0,1,7.72-3.73l1.143-6.836h3.213L10.913-3.683a2.294,2.294,0,0,0,0,.518.851.851,0,0,0,.947.831,2.076,2.076,0,0,0,1.729-.8L14.9-10.566H18.13L16.294,0H13.306ZM24.048-13.193l-.459,2.627h1.689l-.4,2.285H23.188l-.82,4.854a1.294,1.294,0,0,0,.063.752q.132.254.659.273a7.637,7.637,0,0,0,.84-.049L23.7-.068a5.192,5.192,0,0,1-1.729.244A2.847,2.847,0,0,1,19.731-.7a3,3,0,0,1-.605-2.334l.859-5.244H18.677l.391-2.285h1.309l.459-2.627Zm6.758,0-.459,2.627h1.689l-.4,2.285H29.946l-.82,4.854a1.294,1.294,0,0,0,.063.752q.132.254.659.273a7.637,7.637,0,0,0,.84-.049L30.454-.068a5.192,5.192,0,0,1-1.729.244A2.847,2.847,0,0,1,26.489-.7a3,3,0,0,1-.605-2.334l.859-5.244H25.435l.391-2.285h1.309l.459-2.627Zm6.6,2.432a4.438,4.438,0,0,1,2.451.708,3.989,3.989,0,0,1,1.519,1.919A5.922,5.922,0,0,1,41.724-5.4l-.02.215A6.262,6.262,0,0,1,39.9-1.26,5.083,5.083,0,0,1,36.108.2a4.419,4.419,0,0,1-2.432-.7,4.014,4.014,0,0,1-1.519-1.9A5.755,5.755,0,0,1,31.8-5.117a6.514,6.514,0,0,1,1.782-4.141A5.052,5.052,0,0,1,37.407-10.762ZM35.015-5.113l-.029.575q-.137,2.174,1.328,2.213,1.895.059,2.2-3.071l.039-.887a2.394,2.394,0,0,0-.327-1.4A1.192,1.192,0,0,0,37.2-8.223a1.68,1.68,0,0,0-1.46.726A4.753,4.753,0,0,0,35.015-5.113Zm11.992-5.464-.225,1.27a3.756,3.756,0,0,1,3.057-1.465,2.523,2.523,0,0,1,2.183,1.089,4.557,4.557,0,0,1,.522,3.032L51.431,0H48.208l1.123-6.678a3.454,3.454,0,0,0,.02-.626q-.068-.929-1.094-.929A2.008,2.008,0,0,0,46.7-7.48L45.386,0H42.173l1.836-10.566Z" transform="translate(657.711 6127)" fill="#fff"/>
    <path id="Trazado_992782" data-name="Trazado 992782" d="M-50.088-14.219l1.357,9.863,4.766-9.863h4.453L-41.973,0h-3.359l.605-3.486,1.445-6.426L-48.262,0h-2.217L-52.09-10.283l-.9,7.129L-53.545,0h-3.34l2.461-14.219ZM-36.543,0h-3.223l1.836-10.566h3.223Zm-1.1-13.232a1.49,1.49,0,0,1,.5-1.191,1.806,1.806,0,0,1,1.265-.479,1.864,1.864,0,0,1,1.255.43A1.464,1.464,0,0,1-34.1-13.35a1.493,1.493,0,0,1-.5,1.2,1.811,1.811,0,0,1-1.27.474,1.887,1.887,0,0,1-1.245-.425A1.447,1.447,0,0,1-37.646-13.232Zm9.1,10.205q.127-.645-1-.967l-.693-.176a5.34,5.34,0,0,1-2.49-1.26,2.494,2.494,0,0,1-.742-1.924,3.065,3.065,0,0,1,1.353-2.476,5.148,5.148,0,0,1,3.179-.933,4.769,4.769,0,0,1,3.022.947,3.09,3.09,0,0,1,1.177,2.5l-3.2-.01q.039-1.25-1.1-1.25a1.574,1.574,0,0,0-.908.288,1.119,1.119,0,0,0-.5.767q-.166.791,1.4,1.084a8.116,8.116,0,0,1,2.1.747,3.135,3.135,0,0,1,1.133,1.05,2.611,2.611,0,0,1,.361,1.5,2.824,2.824,0,0,1-.625,1.709,4.047,4.047,0,0,1-1.724,1.2A6.174,6.174,0,0,1-30.254.2a4.965,4.965,0,0,1-2.124-.479,3.787,3.787,0,0,1-1.533-1.274,3.31,3.31,0,0,1-.571-1.851l2.988.02A1.234,1.234,0,0,0-30.088-2a1.846,1.846,0,0,0,1.016-.269A1.161,1.161,0,0,0-28.545-3.027Zm10.039,0q.127-.645-1-.967L-20.2-4.17a5.34,5.34,0,0,1-2.49-1.26,2.494,2.494,0,0,1-.742-1.924,3.065,3.065,0,0,1,1.353-2.476,5.148,5.148,0,0,1,3.179-.933,4.769,4.769,0,0,1,3.022.947,3.09,3.09,0,0,1,1.177,2.5l-3.2-.01q.039-1.25-1.1-1.25a1.574,1.574,0,0,0-.908.288,1.119,1.119,0,0,0-.5.767q-.166.791,1.4,1.084a8.116,8.116,0,0,1,2.1.747,3.135,3.135,0,0,1,1.133,1.05,2.611,2.611,0,0,1,.361,1.5,2.824,2.824,0,0,1-.625,1.709,4.047,4.047,0,0,1-1.724,1.2A6.174,6.174,0,0,1-20.215.2a4.965,4.965,0,0,1-2.124-.479,3.787,3.787,0,0,1-1.533-1.274,3.31,3.31,0,0,1-.571-1.851l2.988.02A1.234,1.234,0,0,0-20.049-2a1.846,1.846,0,0,0,1.016-.269A1.161,1.161,0,0,0-18.506-3.027ZM-11.035,0h-3.223l1.836-10.566H-9.2Zm-1.1-13.232a1.49,1.49,0,0,1,.5-1.191,1.806,1.806,0,0,1,1.265-.479,1.864,1.864,0,0,1,1.255.43,1.464,1.464,0,0,1,.522,1.123,1.493,1.493,0,0,1-.5,1.2,1.811,1.811,0,0,1-1.27.474,1.887,1.887,0,0,1-1.245-.425A1.447,1.447,0,0,1-12.139-13.232Zm7.91,2.656-.225,1.27A3.756,3.756,0,0,1-1.4-10.771,2.523,2.523,0,0,1,.786-9.683,4.557,4.557,0,0,1,1.309-6.65L.2,0H-3.027L-1.9-6.678a3.454,3.454,0,0,0,.02-.626q-.068-.929-1.094-.929a2.008,2.008,0,0,0-1.553.753L-5.85,0H-9.062l1.836-10.566ZM2.588-5.3a8.029,8.029,0,0,1,.874-2.881,5.071,5.071,0,0,1,1.724-1.948,4.15,4.15,0,0,1,2.344-.64,2.885,2.885,0,0,1,2.4,1.143l.342-.947,2.969.01L11.514-.41A4.964,4.964,0,0,1,9.629,2.979,6,6,0,0,1,5.664,4.16a5.661,5.661,0,0,1-2.041-.42A4.4,4.4,0,0,1,1.934,2.529L3.457.635a2.766,2.766,0,0,0,2.207,1.1A2.582,2.582,0,0,0,8.379-.537l.078-.322A3.3,3.3,0,0,1,6.045.2,3.258,3.258,0,0,1,4.258-.317a3.371,3.371,0,0,1-1.211-1.45,5.64,5.64,0,0,1-.5-2.109A9.17,9.17,0,0,1,2.588-5.3ZM5.762-4.258a2.562,2.562,0,0,0,.322,1.4,1.093,1.093,0,0,0,.938.518,2.147,2.147,0,0,0,1.65-.7L9.5-7.529a1.424,1.424,0,0,0-1.309-.7,1.87,1.87,0,0,0-1.572.8,4.291,4.291,0,0,0-.8,2.144Q5.762-4.678,5.762-4.258Zm13-1.045a7.685,7.685,0,0,1,1.523-4,3.775,3.775,0,0,1,3.184-1.455A2.88,2.88,0,0,1,25.7-9.629L26.729-15h3.223l-2.6,15H24.492l.137-1.143A3.3,3.3,0,0,1,22,.205,2.911,2.911,0,0,1,19.614-.923,4.974,4.974,0,0,1,18.691-3.9a9.146,9.146,0,0,1,.039-1.2Zm3.2.225a7.669,7.669,0,0,0-.068,1.094q0,1.621,1.094,1.65a2.049,2.049,0,0,0,1.689-.908L25.4-7.295a1.3,1.3,0,0,0-1.289-.928,1.643,1.643,0,0,0-1.45.776A5.007,5.007,0,0,0,21.963-5.078ZM35.2,0a2.865,2.865,0,0,1-.137-.957A3.259,3.259,0,0,1,32.471.2a3.184,3.184,0,0,1-2.285-.918,2.759,2.759,0,0,1-.85-2.178,3.1,3.1,0,0,1,1.436-2.642,6.768,6.768,0,0,1,3.789-.923l1.074.02.117-.6.039-.518a.839.839,0,0,0-.889-.918,1.235,1.235,0,0,0-1.3,1.162l-3.223.01a3.06,3.06,0,0,1,.693-1.851,4.109,4.109,0,0,1,1.753-1.211,6.125,6.125,0,0,1,2.358-.4,4.723,4.723,0,0,1,2.1.5A3.133,3.133,0,0,1,38.643-8.94a3.368,3.368,0,0,1,.342,1.948l-.791,4.971-.049.605a2.669,2.669,0,0,0,.186,1.23L38.32,0ZM33.359-2.129A2.072,2.072,0,0,0,35.088-3l.322-1.7-.83-.01a2.188,2.188,0,0,0-1.328.454A1.722,1.722,0,0,0,32.6-3.066a.865.865,0,0,0,.151.659A.773.773,0,0,0,33.359-2.129ZM45.654-13.193,45.2-10.566h1.689l-.4,2.285H44.795l-.82,4.854a1.294,1.294,0,0,0,.063.752q.132.254.659.273a7.637,7.637,0,0,0,.84-.049L45.3-.068a5.192,5.192,0,0,1-1.729.244A2.847,2.847,0,0,1,41.338-.7a3,3,0,0,1-.605-2.334l.859-5.244H40.283l.391-2.285h1.309l.459-2.627ZM52.344,0a2.865,2.865,0,0,1-.137-.957A3.259,3.259,0,0,1,49.619.2a3.184,3.184,0,0,1-2.285-.918,2.759,2.759,0,0,1-.85-2.178A3.1,3.1,0,0,1,47.92-5.542a6.768,6.768,0,0,1,3.789-.923l1.074.02.117-.6.039-.518a.839.839,0,0,0-.889-.918,1.235,1.235,0,0,0-1.3,1.162l-3.223.01a3.06,3.06,0,0,1,.693-1.851,4.109,4.109,0,0,1,1.753-1.211,6.125,6.125,0,0,1,2.358-.4,4.723,4.723,0,0,1,2.1.5A3.133,3.133,0,0,1,55.791-8.94a3.368,3.368,0,0,1,.342,1.948l-.791,4.971-.049.605a2.669,2.669,0,0,0,.186,1.23L55.469,0ZM50.508-2.129A2.072,2.072,0,0,0,52.236-3l.322-1.7-.83-.01a2.188,2.188,0,0,0-1.328.454,1.722,1.722,0,0,0-.654,1.187.865.865,0,0,0,.151.659A.773.773,0,0,0,50.508-2.129Z" transform="translate(657.711 6281)" fill="#12263f"/>
    <path id="Trazado_992783" data-name="Trazado 992783" d="M-6.86-6.035h-5.225l-.6,3.4H-6.5L-6.958,0h-9.521l2.461-14.219h9.541l-.459,2.646h-6.191l-.527,3h5.234ZM-.9-10.576l-.225,1.27a3.756,3.756,0,0,1,3.057-1.465A2.523,2.523,0,0,1,4.111-9.683,4.557,4.557,0,0,1,4.634-6.65L3.521,0H.3L1.421-6.678A3.454,3.454,0,0,0,1.44-7.3Q1.372-8.232.347-8.232a2.008,2.008,0,0,0-1.553.753L-2.524,0H-5.737L-3.9-10.566ZM5.894-5.3a7.685,7.685,0,0,1,1.523-4A3.775,3.775,0,0,1,10.6-10.762a2.88,2.88,0,0,1,2.236,1.133L13.862-15h3.223l-2.6,15H11.626l.137-1.143A3.3,3.3,0,0,1,9.136.205,2.911,2.911,0,0,1,6.748-.923,4.974,4.974,0,0,1,5.825-3.9a9.146,9.146,0,0,1,.039-1.2Zm3.2.225a7.669,7.669,0,0,0-.068,1.094q0,1.621,1.094,1.65a2.049,2.049,0,0,0,1.689-.908l.723-4.053a1.3,1.3,0,0,0-1.289-.928,1.643,1.643,0,0,0-1.45.776A5.007,5.007,0,0,0,9.1-5.078Z" transform="translate(657.711 6592)" fill="#12263f"/>
    <path id="Trazado_992784" data-name="Trazado 992784" d="M-58.6-3.848q.215-1.1-1.191-1.709l-1.6-.664q-3.369-1.514-3.2-4.121a3.638,3.638,0,0,1,.82-2.124,4.872,4.872,0,0,1,2.08-1.45,7.654,7.654,0,0,1,2.9-.5,4.932,4.932,0,0,1,3.394,1.23A4.088,4.088,0,0,1-54.141-9.99h-3.32a1.989,1.989,0,0,0-.347-1.313,1.5,1.5,0,0,0-1.235-.513,2.588,2.588,0,0,0-1.484.391,1.585,1.585,0,0,0-.762,1.1q-.186.977,1.45,1.6a15.947,15.947,0,0,1,2.378,1.074,3.927,3.927,0,0,1,2.188,3.77,3.86,3.86,0,0,1-.791,2.158A4.573,4.573,0,0,1-58.042-.283a7.307,7.307,0,0,1-2.837.488,6.849,6.849,0,0,1-2.139-.361,4.706,4.706,0,0,1-1.689-1,4.327,4.327,0,0,1-1.367-3.467l3.35.01a2.293,2.293,0,0,0,.42,1.655,2.017,2.017,0,0,0,1.611.562,2.418,2.418,0,0,0,1.4-.386A1.6,1.6,0,0,0-58.6-3.848ZM-48.359,0A2.865,2.865,0,0,1-48.5-.957,3.259,3.259,0,0,1-51.084.2a3.184,3.184,0,0,1-2.285-.918,2.759,2.759,0,0,1-.85-2.178,3.1,3.1,0,0,1,1.436-2.642,6.768,6.768,0,0,1,3.789-.923l1.074.02.117-.6.039-.518a.839.839,0,0,0-.889-.918,1.235,1.235,0,0,0-1.3,1.162l-3.223.01a3.06,3.06,0,0,1,.693-1.851,4.109,4.109,0,0,1,1.753-1.211,6.125,6.125,0,0,1,2.358-.4,4.723,4.723,0,0,1,2.1.5A3.133,3.133,0,0,1-44.912-8.94a3.368,3.368,0,0,1,.342,1.948l-.791,4.971-.049.605a2.669,2.669,0,0,0,.186,1.23l-.01.186ZM-50.2-2.129A2.072,2.072,0,0,0-48.467-3l.322-1.7-.83-.01a2.188,2.188,0,0,0-1.328.454,1.722,1.722,0,0,0-.654,1.187.865.865,0,0,0,.151.659A.773.773,0,0,0-50.2-2.129Zm10.9-1.826,2.646-6.611h3.467L-38.184,0h-3.271l-1.689-10.566h3.3ZM-28.7.2a4.912,4.912,0,0,1-2.524-.669A4.215,4.215,0,0,1-32.9-2.31,4.933,4.933,0,0,1-33.35-4.9l.029-.273A6.477,6.477,0,0,1-31.509-9.3a5.011,5.011,0,0,1,3.794-1.46,4.086,4.086,0,0,1,2.324.689,3.853,3.853,0,0,1,1.416,1.848,5.662,5.662,0,0,1,.293,2.646l-.186,1.34h-6.289a2.06,2.06,0,0,0,.469,1.348,1.722,1.722,0,0,0,1.309.547,3.325,3.325,0,0,0,2.51-1.074l1.348,1.782A3.976,3.976,0,0,1-26.187-.306a5.848,5.848,0,0,1-2.339.5Zm.781-8.418a1.653,1.653,0,0,0-1.187.427,3.588,3.588,0,0,0-.874,1.5h3.213l.059-.282a2.143,2.143,0,0,0,.02-.641A1.131,1.131,0,0,0-27.92-8.223ZM-12.4,0a2.865,2.865,0,0,1-.137-.957A3.259,3.259,0,0,1-15.127.2a3.184,3.184,0,0,1-2.285-.918,2.759,2.759,0,0,1-.85-2.178,3.1,3.1,0,0,1,1.436-2.642,6.768,6.768,0,0,1,3.789-.923l1.074.02.117-.6.039-.518a.839.839,0,0,0-.889-.918,1.235,1.235,0,0,0-1.3,1.162l-3.223.01a3.06,3.06,0,0,1,.693-1.851,4.109,4.109,0,0,1,1.753-1.211,6.125,6.125,0,0,1,2.358-.4,4.723,4.723,0,0,1,2.1.5A3.133,3.133,0,0,1-8.955-8.94a3.368,3.368,0,0,1,.342,1.948L-9.4-2.021l-.049.605a2.669,2.669,0,0,0,.186,1.23L-9.277,0Zm-1.836-2.129A2.072,2.072,0,0,0-12.51-3l.322-1.7-.83-.01a2.188,2.188,0,0,0-1.328.454A1.722,1.722,0,0,0-15-3.066a.865.865,0,0,0,.151.659A.773.773,0,0,0-14.238-2.129ZM-3.2-10.576l-.225,1.27A3.756,3.756,0,0,1-.371-10.771,2.523,2.523,0,0,1,1.812-9.683,4.557,4.557,0,0,1,2.334-6.65L1.221,0H-2L-.879-6.678A3.454,3.454,0,0,0-.859-7.3q-.068-.929-1.094-.929a2.008,2.008,0,0,0-1.553.753L-4.824,0H-8.037L-6.2-10.566ZM3.594-5.3a7.685,7.685,0,0,1,1.523-4A3.775,3.775,0,0,1,8.3-10.762a2.88,2.88,0,0,1,2.236,1.133L11.563-15h3.223l-2.6,15H9.326l.137-1.143A3.3,3.3,0,0,1,6.836.205,2.911,2.911,0,0,1,4.448-.923,4.974,4.974,0,0,1,3.525-3.9a9.146,9.146,0,0,1,.039-1.2Zm3.2.225a7.669,7.669,0,0,0-.068,1.094q0,1.621,1.094,1.65a2.049,2.049,0,0,0,1.689-.908l.723-4.053a1.3,1.3,0,0,0-1.289-.928,1.643,1.643,0,0,0-1.45.776A5.007,5.007,0,0,0,6.8-5.078ZM23.9-2.344a1.382,1.382,0,0,0,1.084-.383,1.907,1.907,0,0,0,.5-1.043l3.008-.01A3.954,3.954,0,0,1,27.8-1.7,4.161,4.161,0,0,1,26.1-.278,5.023,5.023,0,0,1,23.809.2a3.967,3.967,0,0,1-3.252-1.519,5.251,5.251,0,0,1-.928-3.823l.029-.234a7.079,7.079,0,0,1,.9-2.837,5.14,5.14,0,0,1,1.9-1.909,4.926,4.926,0,0,1,2.632-.635A3.929,3.929,0,0,1,28-9.585a4.173,4.173,0,0,1,1.03,3.071l-3.008-.01q.049-1.67-1.2-1.7-1.7-.059-1.953,2.852l-.088.993-.01.37Q22.773-2.373,23.9-2.344ZM32.568,0H29.346l2.6-15h3.223Zm8.2-10.762a4.438,4.438,0,0,1,2.451.708,3.989,3.989,0,0,1,1.519,1.919A5.922,5.922,0,0,1,45.088-5.4l-.02.215A6.262,6.262,0,0,1,43.262-1.26,5.083,5.083,0,0,1,39.473.2a4.419,4.419,0,0,1-2.432-.7,4.014,4.014,0,0,1-1.519-1.9,5.755,5.755,0,0,1-.356-2.715,6.514,6.514,0,0,1,1.782-4.141A5.052,5.052,0,0,1,40.771-10.762ZM38.379-5.113l-.029.575q-.137,2.174,1.328,2.213,1.895.059,2.2-3.071l.039-.887a2.394,2.394,0,0,0-.327-1.4,1.192,1.192,0,0,0-1.021-.541,1.68,1.68,0,0,0-1.46.726A4.753,4.753,0,0,0,38.379-5.113ZM51.563-3.027q.127-.645-1-.967l-.693-.176a5.34,5.34,0,0,1-2.49-1.26,2.494,2.494,0,0,1-.742-1.924,3.065,3.065,0,0,1,1.353-2.476,5.148,5.148,0,0,1,3.179-.933,4.769,4.769,0,0,1,3.022.947,3.09,3.09,0,0,1,1.177,2.5l-3.2-.01q.039-1.25-1.1-1.25a1.574,1.574,0,0,0-.908.288,1.119,1.119,0,0,0-.5.767q-.166.791,1.4,1.084a8.116,8.116,0,0,1,2.1.747,3.135,3.135,0,0,1,1.133,1.05,2.611,2.611,0,0,1,.361,1.5,2.824,2.824,0,0,1-.625,1.709A4.047,4.047,0,0,1,52.3-.225,6.174,6.174,0,0,1,49.854.2a4.965,4.965,0,0,1-2.124-.479A3.787,3.787,0,0,1,46.2-1.558a3.31,3.31,0,0,1-.571-1.851l2.988.02A1.234,1.234,0,0,0,50.02-2a1.846,1.846,0,0,0,1.016-.269A1.161,1.161,0,0,0,51.563-3.027ZM60.9.2a4.912,4.912,0,0,1-2.524-.669A4.215,4.215,0,0,1,56.7-2.31,4.933,4.933,0,0,1,56.25-4.9l.029-.273A6.477,6.477,0,0,1,58.091-9.3a5.011,5.011,0,0,1,3.794-1.46,4.086,4.086,0,0,1,2.324.689,3.853,3.853,0,0,1,1.416,1.848,5.662,5.662,0,0,1,.293,2.646l-.186,1.34H59.443a2.06,2.06,0,0,0,.469,1.348,1.722,1.722,0,0,0,1.309.547,3.325,3.325,0,0,0,2.51-1.074l1.348,1.782A3.976,3.976,0,0,1,63.413-.306a5.848,5.848,0,0,1-2.339.5Zm.781-8.418a1.653,1.653,0,0,0-1.187.427,3.588,3.588,0,0,0-.874,1.5h3.213l.059-.282a2.143,2.143,0,0,0,.02-.641A1.131,1.131,0,0,0,61.68-8.223Z" transform="translate(667.711 6475)" fill="#fff"/>
    <path id="Trazado_992785" data-name="Trazado 992785" d="M-40.7-3.848q.215-1.1-1.191-1.709l-1.6-.664q-3.369-1.514-3.2-4.121a3.638,3.638,0,0,1,.82-2.124,4.872,4.872,0,0,1,2.08-1.45,7.654,7.654,0,0,1,2.9-.5,4.932,4.932,0,0,1,3.394,1.23A4.088,4.088,0,0,1-36.235-9.99h-3.32A1.989,1.989,0,0,0-39.9-11.3a1.5,1.5,0,0,0-1.235-.513,2.588,2.588,0,0,0-1.484.391,1.585,1.585,0,0,0-.762,1.1q-.186.977,1.45,1.6a15.947,15.947,0,0,1,2.378,1.074,3.927,3.927,0,0,1,2.188,3.77,3.86,3.86,0,0,1-.791,2.158A4.573,4.573,0,0,1-40.137-.283a7.307,7.307,0,0,1-2.837.488,6.849,6.849,0,0,1-2.139-.361,4.706,4.706,0,0,1-1.689-1,4.327,4.327,0,0,1-1.367-3.467l3.35.01a2.293,2.293,0,0,0,.42,1.655,2.017,2.017,0,0,0,1.611.562,2.418,2.418,0,0,0,1.4-.386A1.6,1.6,0,0,0-40.7-3.848Zm8.936-5.566a3.453,3.453,0,0,1,2.725-1.357A2.746,2.746,0,0,1-26.68-9.609a4.424,4.424,0,0,1,.552,3.047L-27.222,0h-3.213l1.1-6.609a3.421,3.421,0,0,0,.02-.626.976.976,0,0,0-1.074-1,2.081,2.081,0,0,0-1.543.636L-33.276,0h-3.213l2.607-15h3.213ZM-19.2-10.762a4.438,4.438,0,0,1,2.451.708,3.989,3.989,0,0,1,1.519,1.919A5.922,5.922,0,0,1-14.888-5.4l-.02.215A6.262,6.262,0,0,1-16.714-1.26,5.083,5.083,0,0,1-20.5.2a4.419,4.419,0,0,1-2.432-.7,4.014,4.014,0,0,1-1.519-1.9,5.755,5.755,0,0,1-.356-2.715,6.514,6.514,0,0,1,1.782-4.141A5.052,5.052,0,0,1-19.2-10.762ZM-21.6-5.113l-.029.575q-.137,2.174,1.328,2.213,1.895.059,2.2-3.071l.039-.887a2.394,2.394,0,0,0-.327-1.4,1.192,1.192,0,0,0-1.021-.541,1.68,1.68,0,0,0-1.46.726A4.753,4.753,0,0,0-21.6-5.113Zm16.8.767,2.119-6.221H.464L-3.784,0H-6.489l-.605-6.23L-9.878,0H-12.6l-.586-10.566h3.018l-.1,6.289,2.705-6.289h2.236ZM10,.2A4.912,4.912,0,0,1,7.471-.474,4.215,4.215,0,0,1,5.8-2.31,4.933,4.933,0,0,1,5.347-4.9l.029-.273A6.477,6.477,0,0,1,7.188-9.3a5.011,5.011,0,0,1,3.794-1.46,4.086,4.086,0,0,1,2.324.689,3.853,3.853,0,0,1,1.416,1.848,5.662,5.662,0,0,1,.293,2.646l-.186,1.34H8.54a2.06,2.06,0,0,0,.469,1.348,1.722,1.722,0,0,0,1.309.547,3.325,3.325,0,0,0,2.51-1.074l1.348,1.782A3.976,3.976,0,0,1,12.51-.306a5.848,5.848,0,0,1-2.339.5Zm.781-8.418A1.653,1.653,0,0,0,9.59-7.8a3.588,3.588,0,0,0-.874,1.5h3.213l.059-.282a2.143,2.143,0,0,0,.02-.641A1.131,1.131,0,0,0,10.776-8.223Zm12.256.635a9.192,9.192,0,0,0-1-.1,2.481,2.481,0,0,0-2.207,1L18.638,0H15.425l1.836-10.566,3-.01-.244,1.387a2.933,2.933,0,0,1,2.441-1.6,4.6,4.6,0,0,1,1,.137Zm7.451,0a9.192,9.192,0,0,0-1-.1,2.481,2.481,0,0,0-2.207,1L26.089,0H22.876l1.836-10.566,3-.01-.244,1.387a2.933,2.933,0,0,1,2.441-1.6,4.6,4.6,0,0,1,1,.137Zm5.635-3.174a4.438,4.438,0,0,1,2.451.708,3.989,3.989,0,0,1,1.519,1.919A5.922,5.922,0,0,1,40.435-5.4l-.02.215A6.262,6.262,0,0,1,38.608-1.26,5.083,5.083,0,0,1,34.819.2a4.419,4.419,0,0,1-2.432-.7,4.014,4.014,0,0,1-1.519-1.9,5.755,5.755,0,0,1-.356-2.715,6.514,6.514,0,0,1,1.782-4.141A5.052,5.052,0,0,1,36.118-10.762ZM33.726-5.113l-.029.575q-.137,2.174,1.328,2.213,1.895.059,2.2-3.071l.039-.887a2.394,2.394,0,0,0-.327-1.4,1.192,1.192,0,0,0-1.021-.541,1.68,1.68,0,0,0-1.46.726A4.753,4.753,0,0,0,33.726-5.113ZM48.579-7.588a9.192,9.192,0,0,0-1-.1,2.481,2.481,0,0,0-2.207,1L44.185,0H40.972l1.836-10.566,3-.01-.244,1.387A2.933,2.933,0,0,1,48-10.791a4.6,4.6,0,0,1,1,.137Z" transform="translate(933.711 6355)" fill="#12263f"/>
    <path id="Trazado_992786" data-name="Trazado 992786" d="M-10.083-8.066l3.594-6.152h3.76L-8.862-4.951-9.712,0h-3.4l.918-5.273-2.842-8.936,3.477-.01ZM.913.2A4.912,4.912,0,0,1-1.611-.474,4.215,4.215,0,0,1-3.286-2.31,4.933,4.933,0,0,1-3.735-4.9l.029-.273A6.477,6.477,0,0,1-1.895-9.3,5.011,5.011,0,0,1,1.9-10.762a4.086,4.086,0,0,1,2.324.689A3.853,3.853,0,0,1,5.64-8.224a5.662,5.662,0,0,1,.293,2.646l-.186,1.34H-.542A2.06,2.06,0,0,0-.073-2.891a1.722,1.722,0,0,0,1.309.547,3.325,3.325,0,0,0,2.51-1.074L5.093-1.636A3.976,3.976,0,0,1,3.428-.306,5.848,5.848,0,0,1,1.089.2Zm.781-8.418A1.653,1.653,0,0,0,.508-7.8,3.588,3.588,0,0,0-.366-6.3H2.847l.059-.282a2.143,2.143,0,0,0,.02-.641A1.131,1.131,0,0,0,1.694-8.223Zm10.586,5.2q.127-.645-1-.967l-.693-.176A5.34,5.34,0,0,1,8.1-5.43a2.494,2.494,0,0,1-.742-1.924A3.065,3.065,0,0,1,8.711-9.829a5.148,5.148,0,0,1,3.179-.933,4.769,4.769,0,0,1,3.022.947,3.09,3.09,0,0,1,1.177,2.5l-3.2-.01q.039-1.25-1.1-1.25a1.574,1.574,0,0,0-.908.288,1.119,1.119,0,0,0-.5.767q-.166.791,1.4,1.084a8.116,8.116,0,0,1,2.1.747A3.135,3.135,0,0,1,15-4.639a2.611,2.611,0,0,1,.361,1.5,2.824,2.824,0,0,1-.625,1.709,4.047,4.047,0,0,1-1.724,1.2A6.174,6.174,0,0,1,10.571.2,4.965,4.965,0,0,1,8.447-.283,3.787,3.787,0,0,1,6.914-1.558a3.31,3.31,0,0,1-.571-1.851l2.988.02A1.234,1.234,0,0,0,10.737-2a1.846,1.846,0,0,0,1.016-.269A1.161,1.161,0,0,0,12.28-3.027Z" transform="translate(823.711 6244)" fill="#12263f"/>
    <path id="Trazado_992787" data-name="Trazado 992787" d="M-.806,0H-4.038l-3.4-8.975L-9,0h-3.34l2.461-14.219h3.262l3.389,8.975,1.553-8.975h3.34ZM7.4-10.762a4.438,4.438,0,0,1,2.451.708,3.989,3.989,0,0,1,1.519,1.919A5.922,5.922,0,0,1,11.714-5.4l-.02.215A6.262,6.262,0,0,1,9.888-1.26,5.083,5.083,0,0,1,6.1.2,4.419,4.419,0,0,1,3.667-.5,4.014,4.014,0,0,1,2.148-2.4a5.755,5.755,0,0,1-.356-2.715A6.514,6.514,0,0,1,3.574-9.258,5.052,5.052,0,0,1,7.4-10.762ZM5-5.113l-.029.575Q4.839-2.363,6.3-2.324,8.2-2.266,8.5-5.4l.039-.887a2.394,2.394,0,0,0-.327-1.4,1.192,1.192,0,0,0-1.021-.541,1.68,1.68,0,0,0-1.46.726A4.753,4.753,0,0,0,5-5.113Z" transform="translate(719.711 6398)" fill="#fff"/>
    <path id="Trazado_992788" data-name="Trazado 992788" d="M7.164-11.281H-6.914l.719-4.062H7.867ZM5.977-4.422H-8.1l.719-4.062H6.68Z" transform="translate(683.711 6191)" fill="#12263f"/>
    <path id="Trazado_992789" data-name="Trazado 992789" d="M7.164-11.281H-6.914l.719-4.062H7.867ZM5.977-4.422H-8.1l.719-4.062H6.68Z" transform="translate(799.711 6343)" fill="#12263f"/>
    <path id="Trazado_992056" data-name="Trazado 992056" d="M19.672,4.829a9.66,9.66,0,0,0-13.662,0,.688.688,0,0,0,.973.973,8.28,8.28,0,1,1,0,11.73.688.688,0,1,0-.973.973A9.665,9.665,0,1,0,19.672,4.829Z" transform="translate(689.182 6014.334)" fill="#fff"/>
    <path id="Trazado_992057" data-name="Trazado 992057" d="M12.135,17.1a.693.693,0,1,0,.98.98l3.45-3.45a.69.69,0,0,0,0-.98l-3.45-3.45a.693.693,0,0,0-.98.98l2.277,2.27H4.69a.69.69,0,1,0,0,1.38h9.722Z" transform="translate(689.742 6011.855)" fill="#fff"/>
    <path id="Trazado_992790" data-name="Trazado 992790" d="M0,0V25" transform="translate(657.711 6047)" fill="none" stroke="#ae0d20" stroke-width="3"/>
    <path id="Trazado_992791" data-name="Trazado 992791" d="M6,0l6,10H0Z" transform="translate(663.711 6082) rotate(180)" fill="#ae0d20"/>
    <path id="Trazado_992792" data-name="Trazado 992792" d="M0,0V45" transform="translate(657.711 6147)" fill="none" stroke="#ae0d20" stroke-width="3"/>
    <path id="Trazado_992793" data-name="Trazado 992793" d="M6,0l6,10H0Z" transform="translate(663.711 6202) rotate(180)" fill="#ae0d20"/>
    <path id="Trazado_992794" data-name="Trazado 992794" d="M0,0V45" transform="translate(657.711 6498)" fill="none" stroke="#ae0d20" stroke-width="3"/>
    <path id="Trazado_992795" data-name="Trazado 992795" d="M6,0l6,10H0Z" transform="translate(663.711 6553) rotate(180)" fill="#ae0d20"/>
    <path id="Trazado_992796" data-name="Trazado 992796" d="M0,0V119" transform="translate(657.711 6302)" fill="none" stroke="#ae0d20" stroke-width="3"/>
    <path id="Trazado_992797" data-name="Trazado 992797" d="M6,0l6,13H0Z" transform="translate(663.711 6434) rotate(180)" fill="#ae0d20"/>
    <path id="Trazado_992798" data-name="Trazado 992798" d="M0,0V170" transform="translate(658.211 6348) rotate(-90)" fill="none" stroke="#ae0d20" stroke-width="3"/>
    <path id="Trazado_992799" data-name="Trazado 992799" d="M6,0l6,10H0Z" transform="translate(838.211 6342) rotate(90)" fill="#ae0d20"/>
    <path id="Trazado_992058" data-name="Trazado 992058" d="M-174.711,9.844H0V45" transform="translate(936.711 6260.156)" fill="none" stroke="#ae0d20" stroke-width="3"/>
    <path id="Trazado_992800" data-name="Trazado 992800" d="M6,0l6,10H0Z" transform="translate(942.711 6315.156) rotate(180)" fill="#ae0d20"/>
    <g id="Grupo_1177268" data-name="Grupo 1177268" transform="translate(999.732 6342.734)">
      <g id="Grupo_1177267" data-name="Grupo 1177267">
        <path id="Trazado_992059" data-name="Trazado 992059" d="M131.337,128.655l2.356-2.356a.813.813,0,0,0,0-1.149l-1.523-1.523a.813.813,0,0,0-1.149,0l-2.356,2.356-2.356-2.356a.813.813,0,0,0-1.149,0l-1.523,1.523a.814.814,0,0,0,0,1.149l2.356,2.356-2.356,2.356a.814.814,0,0,0,0,1.149l1.523,1.523a.813.813,0,0,0,1.149,0l2.356-2.356,2.356,2.356a.813.813,0,0,0,1.149,0l1.523-1.523a.813.813,0,0,0,0-1.149Zm1.888,3.037-1.523,1.523a.151.151,0,0,1-.214,0l-2.59-2.59a.331.331,0,0,0-.468,0l-2.59,2.59a.151.151,0,0,1-.214,0l-1.523-1.523a.151.151,0,0,1,0-.214l2.59-2.59a.331.331,0,0,0,0-.468l-2.59-2.59a.151.151,0,0,1,0-.214l1.523-1.523a.151.151,0,0,1,.214,0l2.59,2.59a.331.331,0,0,0,.468,0l2.59-2.59a.151.151,0,0,1,.214,0l1.523,1.523a.151.151,0,0,1,0,.214l-2.589,2.59a.331.331,0,0,0,0,.468l2.589,2.59a.151.151,0,0,1,0,.214Z" transform="translate(-123.398 -123.389)" fill="#12263f"/>
      </g>
    </g>
    <g id="Grupo_1177270" data-name="Grupo 1177270" transform="translate(1000.504 6340.664)">
      <g id="Grupo_1177269" data-name="Grupo 1177269">
        <path id="Trazado_992060" data-name="Trazado 992060" d="M154.459,71.368a.331.331,0,0,0-.464.471A9.506,9.506,0,0,1,143.3,87.222a.331.331,0,1,0-.28.6,10.167,10.167,0,0,0,11.439-16.453Z" transform="translate(-142.829 -71.273)" fill="#12263f"/>
      </g>
    </g>
    <g id="Grupo_1177272" data-name="Grupo 1177272" transform="translate(994.832 6337.833)">
      <g id="Grupo_1177271" data-name="Grupo 1177271" transform="translate(0)">
        <path id="Trazado_992061" data-name="Trazado 992061" d="M16.264,2.031A10.167,10.167,0,1,0,4.621,18.688a.331.331,0,1,0,.361-.554A9.505,9.505,0,1,1,15.867,2.56a.331.331,0,1,0,.4-.529Z" transform="translate(-0.001 0)" fill="#12263f"/>
      </g>
    </g>
    <path id="Trazado_992062" data-name="Trazado 992062" d="M54.226,20.335a.575.575,0,0,0,.48.651c.029,0,.057.006.086.006a.571.571,0,1,0-.565-.656Z" transform="translate(600.699 6205.565)" fill="#12263f"/>
    <path id="Trazado_992063" data-name="Trazado 992063" d="M70.046,22.705a.573.573,0,0,0,.482.651.837.837,0,0,0,.086.006.571.571,0,1,0-.568-.656Z" transform="translate(589.395 6203.871)" fill="#12263f"/>
    <path id="Trazado_992064" data-name="Trazado 992064" d="M62.136,21.525a.57.57,0,0,0,.479.648.477.477,0,0,0,.088.006.57.57,0,1,0-.568-.654Z" transform="translate(595.047 6204.714)" fill="#12263f"/>
    <path id="Trazado_992065" data-name="Trazado 992065" d="M77.463,25.118a.572.572,0,0,0,.308,1.053.581.581,0,0,0,.305-.088.572.572,0,1,0-.614-.965Z" transform="translate(584.278 6201.863)" fill="#12263f"/>
    <path id="Trazado_992066" data-name="Trazado 992066" d="M8.7,37.78a.571.571,0,1,0-.682.428.491.491,0,0,0,.126.017A.57.57,0,0,0,8.7,37.78Z" transform="translate(634.034 6193.251)" fill="#12263f"/>
    <path id="Trazado_992067" data-name="Trazado 992067" d="M12.273,22.2a.57.57,0,1,0-.682.428.661.661,0,0,0,.129.014A.569.569,0,0,0,12.273,22.2Z" transform="translate(631.479 6204.386)" fill="#12263f"/>
    <path id="Trazado_992068" data-name="Trazado 992068" d="M10.486,29.988a.571.571,0,1,0-.685.431.652.652,0,0,0,.128.014A.572.572,0,0,0,10.486,29.988Z" transform="translate(632.757 6198.817)" fill="#12263f"/>
    <path id="Trazado_992069" data-name="Trazado 992069" d="M6.482,44.9a.571.571,0,0,0-.254,1.113.5.5,0,0,0,.128.014A.571.571,0,0,0,6.482,44.9Z" transform="translate(635.311 6187.677)" fill="#12263f"/>
    <path id="Trazado_992070" data-name="Trazado 992070" d="M15.573,16.141a.586.586,0,0,0,.24-.051.572.572,0,1,0-.24.051Z" transform="translate(628.723 6209.03)" fill="#12263f"/>
    <path id="Trazado_992071" data-name="Trazado 992071" d="M38.889,18.544a.436.436,0,0,0,.086.009.585.585,0,1,0-.086-.009Z" transform="translate(612 6207.328)" fill="#12263f"/>
    <path id="Trazado_992072" data-name="Trazado 992072" d="M46.959,18.666a.571.571,0,1,0-.168,1.13.844.844,0,0,0,.086.006.571.571,0,0,0,.083-1.136Z" transform="translate(606.356 6206.415)" fill="#12263f"/>
    <path id="Trazado_992073" data-name="Trazado 992073" d="M30.494,16.776a.569.569,0,0,0,.48.651c.029,0,.057.006.086.006a.571.571,0,1,0-.565-.657Z" transform="translate(617.659 6208.107)" fill="#12263f"/>
    <path id="Trazado_992074" data-name="Trazado 992074" d="M22.584,15.589a.568.568,0,0,0,.48.648.428.428,0,0,0,.083.006.571.571,0,1,0-.562-.653Z" transform="translate(623.311 6208.958)" fill="#12263f"/>
    <path id="Trazado_992075" data-name="Trazado 992075" d="M39.923,35.184a.571.571,0,0,0-.778-.217l-.939.53-.555-.944a.571.571,0,0,0-.984.579l.544.926-.921.519a.571.571,0,0,0,.561.994l.939-.529.555.944a.571.571,0,1,0,.984-.579l-.544-.926.921-.519A.571.571,0,0,0,39.923,35.184Z" transform="translate(613.719 6195.258)" fill="#12263f"/>
    <path id="Trazado_992076" data-name="Trazado 992076" d="M77.045,49.248a2.032,2.032,0,0,0-2.412-.346l-.4-.4a6.8,6.8,0,1,0-.8.81l.395.395a2.034,2.034,0,0,0,.345,2.411l3.357,3.357A2.032,2.032,0,1,0,80.4,52.605Zm-4-1.125a5.691,5.691,0,1,1,1.679-4.036,5.708,5.708,0,0,1-1.679,4.036Zm6.549,6.549h0a.89.89,0,0,1-1.259,0l-3.357-3.357a.89.89,0,0,1,1.259-1.259l3.357,3.357a.89.89,0,0,1,0,1.259Z" transform="translate(594.98 6193.072)" fill="#12263f"/>
    <path id="Trazado_992077" data-name="Trazado 992077" d="M80.285,47A2.286,2.286,0,0,0,78,49.283a.571.571,0,0,0,1.142,0,1.142,1.142,0,1,1,1.142,1.142.571.571,0,0,0-.571.571v1.142a.571.571,0,1,0,1.142,0v-.643A2.283,2.283,0,0,0,80.285,47Z" transform="translate(583.705 6186.163)" fill="#12263f"/>
    <path id="Trazado_992078" data-name="Trazado 992078" d="M84.573,69a.571.571,0,0,0-.571.571v.571a.571.571,0,0,0,1.142,0v-.571A.571.571,0,0,0,84.573,69Z" transform="translate(579.417 6170.442)" fill="#12263f"/>
    <path id="Trazado_992079" data-name="Trazado 992079" d="M2.283,70.839H20.55a2.286,2.286,0,0,0,2.283-2.283V63.8a7.908,7.908,0,0,1-1.142-.34v5.092A1.143,1.143,0,0,1,20.55,69.7H2.283a1.143,1.143,0,0,1-1.142-1.142v-.571H15.983a.571.571,0,1,0,0-1.142H1.142V55.427a.286.286,0,0,1,.285-.285H5.8a.286.286,0,0,1,.209.091l1.566,1.689a.57.57,0,0,0,.987-.354h8.02a8.061,8.061,0,0,1,0-1.142H7.744l-.9-.97A1.432,1.432,0,0,0,5.8,54H1.427A1.429,1.429,0,0,0,0,55.427V68.556a2.286,2.286,0,0,0,2.283,2.283Z" transform="translate(639.444 6181.161)" fill="#12263f"/>
  </g>
</svg>
