<svg id="Grupo_1177364" data-name="Grupo 1177364" xmlns="http://www.w3.org/2000/svg" width="124.287" height="124.287" viewBox="0 0 124.287 124.287">
  <path id="Trazado_992146" data-name="Trazado 992146" d="M124.287,62.144A62.147,62.147,0,0,1,7.015,90.836,62.148,62.148,0,0,1,117.272,33.451,61.683,61.683,0,0,1,124.287,62.144Z" fill="#5f2bd6"/>
  <path id="Trazado_992147" data-name="Trazado 992147" d="M139.156,68.772v65.833a62.152,62.152,0,0,1-110.256,0V68.772A10.976,10.976,0,0,1,39.872,57.8h88.312A10.961,10.961,0,0,1,139.156,68.772Z" transform="translate(-21.885 -43.769)" fill="#474b4e"/>
  <path id="Trazado_992148" data-name="Trazado 992148" d="M285.836,112.928v8.011H222.6L230.708,57.8Z" transform="translate(-168.564 -43.769)" fill="#3b3f41"/>
  <path id="Trazado_992149" data-name="Trazado 992149" d="M139.156,284.9v21.677a62.152,62.152,0,0,1-110.256,0V284.9Z" transform="translate(-21.885 -215.741)" fill="#676b70"/>
  <path id="Trazado_992150" data-name="Trazado 992150" d="M311.128,284.9v21.677A62.132,62.132,0,0,1,256,340.028V284.9Z" transform="translate(-193.856 -215.741)" fill="#4184f7"/>
  <path id="Trazado_992151" data-name="Trazado 992151" d="M84.028,57.8v55.128H28.9V68.772A10.976,10.976,0,0,1,39.872,57.8Z" transform="translate(-21.885 -43.769)" fill="#898f94"/>
  <g id="Grupo_1177363" data-name="Grupo 1177363" transform="translate(22.818 30.513)">
    <rect id="Rectángulo_454777" data-name="Rectángulo 454777" width="4.831" height="22.066" transform="translate(8.642 54.521)" fill="#f2f2f2"/>
    <rect id="Rectángulo_454778" data-name="Rectángulo 454778" width="22.066" height="4.831" transform="translate(0 63.139)" fill="#f2f2f2"/>
    <path id="Trazado_992152" data-name="Trazado 992152" d="M356.007,141.309l-6.093-6.117,6.093-6.093-3.4-3.4-6.093,6.093-6.093-6.093L337,129.1l6.093,6.093L337,141.309l3.423,3.4,6.093-6.093,6.093,6.093Z" transform="translate(-278.012 -125.7)" fill="#f2f2f2"/>
    <rect id="Rectángulo_454779" data-name="Rectángulo 454779" width="22.818" height="4.394" transform="translate(56.827 60.371)" fill="#f2f2f2"/>
    <rect id="Rectángulo_454780" data-name="Rectángulo 454780" width="22.818" height="4.394" transform="translate(56.827 70.518)" fill="#f2f2f2"/>
    <rect id="Rectángulo_454781" data-name="Rectángulo 454781" width="22.066" height="4.831" transform="translate(0 7.865)" fill="#f2f2f2"/>
  </g>
</svg>
