<svg xmlns="http://www.w3.org/2000/svg" width="118.947" height="124.287" viewBox="0 0 118.947 124.287">
  <g id="Grupo_1177400" data-name="Grupo 1177400" transform="translate(0)">
    <path id="Trazado_992279" data-name="Trazado 992279" d="M13.645,119.379a59.523,59.523,0,0,0,28.65,19.044H76.649A59.522,59.522,0,0,0,105.3,119.379l12.689-27.237A59.477,59.477,0,1,0,0,81.473,59.83,59.83,0,0,0,.956,92.142Zm0,0" transform="translate(0 -16.659)" fill="#5f2bd6"/>
    <path id="Trazado_992280" data-name="Trazado 992280" d="M205.716,421.313H177.084l-.524,10.1a25.534,25.534,0,0,1-2.325,9.4,59.737,59.737,0,0,0,34.354,0,25.535,25.535,0,0,1-2.335-9.387Zm0,0" transform="translate(-131.94 -319.04)" fill="#86fdfb"/>
    <path id="Trazado_992281" data-name="Trazado 992281" d="M205.716,421.313H177.084l-.524,10.1a25.534,25.534,0,0,1-2.325,9.4,59.737,59.737,0,0,0,34.354,0,25.535,25.535,0,0,1-2.335-9.387Zm0,0" transform="translate(-131.94 -319.04)" fill="#86fdfb"/>
    <path id="Trazado_992282" data-name="Trazado 992282" d="M187.935,430.874h20.217a5.945,5.945,0,0,1,4.942,2.638c-.095-.694-.163-1.392-.2-2.095l-.539-10.105H183.725l-.524,10.1q-.055,1.05-.2,2.088a5.943,5.943,0,0,1,4.931-2.622Zm0,0" transform="translate(-138.58 -319.04)" fill="#11dfef"/>
    <path id="Trazado_992283" data-name="Trazado 992283" d="M116.563,70.488H8.346A4.421,4.421,0,0,0,3.937,74.9V128.86a59.061,59.061,0,0,0,4.6,14.464l53.913-.345,53.913.345a59.022,59.022,0,0,0,4.6-14.464V74.9a4.421,4.421,0,0,0-4.409-4.408Zm0,0" transform="translate(-2.981 -53.377)" fill="#2b3894"/>
    <path id="Trazado_992284" data-name="Trazado 992284" d="M36.3,71.971a2.882,2.882,0,0,1,.414-1.487H8.346a4.422,4.422,0,0,0-4.409,4.409v53.963a59.02,59.02,0,0,0,4.6,14.464l27.755-.177Zm0,0" transform="translate(-2.981 -53.374)" fill="#232e7a"/>
    <path id="Trazado_992285" data-name="Trazado 992285" d="M30.062,381.317h91.656a59.46,59.46,0,0,0,8.382-13.411H21.679a59.459,59.459,0,0,0,8.382,13.411Zm0,0" transform="translate(-16.417 -278.597)" fill="#e6f7fe"/>
    <g id="Grupo_1177399" data-name="Grupo 1177399" transform="translate(5.262 23.145)">
      <path id="Trazado_992286" data-name="Trazado 992286" d="M49.732,376.515v-8.609H21.679a59.491,59.491,0,0,0,8.381,13.411H53.239a5.062,5.062,0,0,1-3.508-4.8Zm0,0" transform="translate(-21.679 -301.743)" fill="#d5f1fe"/>
      <path id="Trazado_992287" data-name="Trazado 992287" d="M238.605,386.116a3.017,3.017,0,1,1-3.017-3.018A3.017,3.017,0,0,1,238.605,386.116Zm0,0" transform="translate(-181.377 -313.247)" fill="#d5f1fe"/>
      <path id="Trazado_992288" data-name="Trazado 992288" d="M133.232,95.347H29.334a.54.54,0,0,0-.533.533v59.24a.343.343,0,0,0,.343.344H133.421a.344.344,0,0,0,.343-.344V95.88a.54.54,0,0,0-.533-.533Zm0,0" transform="translate(-27.072 -95.347)" fill="#d5f1fe"/>
    </g>
    <path id="Trazado_992289" data-name="Trazado 992289" d="M40.39,155.121V95.881a.54.54,0,0,1,.533-.533H29.334a.54.54,0,0,0-.533.533v59.24a.343.343,0,0,0,.343.344h11.59A.344.344,0,0,1,40.39,155.121Zm0,0" transform="translate(-21.81 -72.202)" fill="#0ac6e5"/>
    <path id="Trazado_992290" data-name="Trazado 992290" d="M143.828,54.379H70.086v70.062h85.5V65.155a11.818,11.818,0,0,1-11.757-10.776Zm0,0" transform="translate(-53.073 -41.179)" fill="#e6f7fe"/>
    <path id="Trazado_992291" data-name="Trazado 992291" d="M70.086,54.379h16.3v70.062h-16.3Zm0,0" transform="translate(-53.073 -41.179)" fill="#d5f1fe"/>
    <path id="Trazado_992292" data-name="Trazado 992292" d="M143.781,17.173a11.816,11.816,0,0,1,6.551-10.567H72.125a2.039,2.039,0,0,0-2.039,2.039v9.8H143.85a11.8,11.8,0,0,1-.069-1.274Zm0,0" transform="translate(-53.073 -5.002)" fill="#615df9"/>
    <path id="Trazado_992293" data-name="Trazado 992293" d="M86.389,9.518A2.921,2.921,0,0,1,89.3,6.605H72.125a2.039,2.039,0,0,0-2.039,2.039v9.8h16.3Zm0,0" transform="translate(-53.073 -5.002)" fill="#3342ae"/>
    <path id="Trazado_992294" data-name="Trazado 992294" d="M129.16,25.3a2.439,2.439,0,1,1,2.868-1.914A2.441,2.441,0,0,1,129.16,25.3Zm0,0" transform="translate(-96.322 -15.502)" fill="#fecd0a"/>
    <path id="Trazado_992295" data-name="Trazado 992295" d="M98.994,25.354a2.439,2.439,0,1,1,2.439-2.439,2.444,2.444,0,0,1-2.439,2.439Zm0,0" transform="translate(-73.117 -15.505)" fill="#f948b4"/>
    <path id="Trazado_992296" data-name="Trazado 992296" d="M160.283,25.354a2.439,2.439,0,1,1,2.439-2.439,2.444,2.444,0,0,1-2.439,2.439Zm0,0" transform="translate(-119.528 -15.505)" fill="#39df74"/>
    <path id="Trazado_992297" data-name="Trazado 992297" d="M344.06,27.116h-9.418a1.83,1.83,0,0,1,0-3.659h9.418a1.83,1.83,0,0,1,0,3.659Zm0,0" transform="translate(-252.023 -17.763)" fill="#aeaeff"/>
    <path id="Trazado_992298" data-name="Trazado 992298" d="M225.019,27.116H202.013a1.83,1.83,0,0,1,0-3.659h23.006a1.83,1.83,0,0,1,0,3.659Zm0,0" transform="translate(-151.589 -17.763)" fill="#aeaeff"/>
    <path id="Trazado_992299" data-name="Trazado 992299" d="M218.462,25.286a1.829,1.829,0,0,1,1.829-1.829H202.012a1.83,1.83,0,0,0,0,3.659h18.279A1.829,1.829,0,0,1,218.462,25.286Zm0,0" transform="translate(-151.589 -17.763)" fill="#8181fc"/>
    <path id="Trazado_992300" data-name="Trazado 992300" d="M126.417,96.4h-4.83a1.83,1.83,0,0,1,0-3.659h4.83a1.83,1.83,0,0,1,0,3.659Zm0,0" transform="translate(-90.687 -70.227)" fill="#4fbbff"/>
    <path id="Trazado_992301" data-name="Trazado 992301" d="M126.417,131.722h-4.83a1.83,1.83,0,0,1,0-3.659h4.83a1.83,1.83,0,0,1,0,3.659Zm0,0" transform="translate(-90.687 -96.976)" fill="#11dfef"/>
    <path id="Trazado_992302" data-name="Trazado 992302" d="M126.417,167.049h-4.83a1.829,1.829,0,0,1,0-3.658h4.83a1.829,1.829,0,0,1,0,3.658Zm0,0" transform="translate(-90.687 -123.728)" fill="#4fbbff"/>
    <path id="Trazado_992303" data-name="Trazado 992303" d="M126.417,202.373h-4.83a1.829,1.829,0,1,1,0-3.658h4.83a1.829,1.829,0,0,1,0,3.658Zm0,0" transform="translate(-90.687 -150.477)" fill="#fecd0a"/>
    <path id="Trazado_992304" data-name="Trazado 992304" d="M126.417,237.7h-4.83a1.83,1.83,0,0,1,0-3.659h4.83a1.83,1.83,0,0,1,0,3.659Zm0,0" transform="translate(-90.687 -177.226)" fill="#11dfef"/>
    <path id="Trazado_992305" data-name="Trazado 992305" d="M126.417,273.023h-4.83a1.83,1.83,0,0,1,0-3.659h4.83a1.83,1.83,0,0,1,0,3.659Zm0,0" transform="translate(-90.687 -203.976)" fill="#fecd0a"/>
    <path id="Trazado_992306" data-name="Trazado 992306" d="M126.417,308.35h-4.83a1.829,1.829,0,1,1,0-3.658h4.83a1.829,1.829,0,1,1,0,3.658Zm0,0" transform="translate(-90.687 -230.728)" fill="#11dfef"/>
    <path id="Trazado_992307" data-name="Trazado 992307" d="M193.866,96.4H181.419a1.83,1.83,0,0,1,0-3.659h12.447a1.83,1.83,0,1,1,0,3.659Zm0,0" transform="translate(-135.995 -70.227)" fill="#11dfef"/>
    <path id="Trazado_992308" data-name="Trazado 992308" d="M186.45,131.722h-5.03a1.83,1.83,0,0,1,0-3.659h5.03a1.83,1.83,0,0,1,0,3.659Zm0,0" transform="translate(-135.995 -96.976)" fill="#fecd0a"/>
    <path id="Trazado_992309" data-name="Trazado 992309" d="M194.34,167.049H181.418a1.829,1.829,0,0,1,0-3.658H194.34a1.829,1.829,0,0,1,0,3.658Zm0,0" transform="translate(-135.995 -123.728)" fill="#11dfef"/>
    <path id="Trazado_992310" data-name="Trazado 992310" d="M215.948,202.373h-5.995a1.829,1.829,0,1,1,0-3.658h5.995a1.829,1.829,0,0,1,0,3.658Zm0,0" transform="translate(-157.603 -150.477)" fill="#4fbbff"/>
    <path id="Trazado_992311" data-name="Trazado 992311" d="M220.835,237.7h-4.428a1.83,1.83,0,0,1,0-3.659h4.428a1.83,1.83,0,0,1,0,3.659Zm0,0" transform="translate(-162.489 -177.226)" fill="#11dfef"/>
    <path id="Trazado_992312" data-name="Trazado 992312" d="M194.34,273.023H181.418a1.83,1.83,0,0,1,0-3.659H194.34a1.83,1.83,0,0,1,0,3.659Zm0,0" transform="translate(-135.995 -203.976)" fill="#4fbbff"/>
    <path id="Trazado_992313" data-name="Trazado 992313" d="M194.34,308.35H181.418a1.829,1.829,0,1,1,0-3.658H194.34a1.829,1.829,0,0,1,0,3.658Zm0,0" transform="translate(-135.995 -230.728)" fill="#fecd0a"/>
    <path id="Trazado_992314" data-name="Trazado 992314" d="M279.823,202.373h-6.806a1.829,1.829,0,0,1,0-3.658h6.806a1.829,1.829,0,1,1,0,3.658Zm0,0" transform="translate(-205.358 -150.477)" fill="#fecd0a"/>
    <path id="Trazado_992315" data-name="Trazado 992315" d="M293.678,237.7H273.017a1.83,1.83,0,0,1,0-3.659h20.661a1.83,1.83,0,0,1,0,3.659Zm0,0" transform="translate(-205.357 -177.226)" fill="#11dfef"/>
    <path id="Trazado_992316" data-name="Trazado 992316" d="M287.649,273.023H273.017a1.83,1.83,0,0,1,0-3.659h14.632a1.83,1.83,0,0,1,0,3.659Zm0,0" transform="translate(-205.357 -203.976)" fill="#11dfef"/>
    <path id="Trazado_992317" data-name="Trazado 992317" d="M396.5,12.171A12.171,12.171,0,1,1,384.332,0,12.171,12.171,0,0,1,396.5,12.171Zm0,0" transform="translate(-281.82)" fill="#00c82f"/>
    <path id="Trazado_992318" data-name="Trazado 992318" d="M391.7,23.22c-7.671,0-8.6-5.22-8.575-7.886a3.6,3.6,0,0,0-.948-2.495C378.1,8.476,381.077,1.861,381.1,1.8A12.17,12.17,0,1,0,391.7,23.22Zm0,0" transform="translate(-281.822 -1.364)" fill="#02ad22"/>
    <path id="Trazado_992319" data-name="Trazado 992319" d="M397.382,40.838l-3.574-3.572a2.439,2.439,0,0,1,3.45-3.45l1.848,1.848,4.284-4.284a2.439,2.439,0,0,1,3.45,3.449l-6.009,6.009a2.437,2.437,0,0,1-3.449,0Zm0,0" transform="translate(-297.671 -23.221)" fill="#e6f7fe"/>
  </g>
</svg>
