<svg id="Grupo_1177223" data-name="Grupo 1177223" xmlns="http://www.w3.org/2000/svg" width="124" height="124" viewBox="0 0 124 124">
  <path id="Trazado_991949" data-name="Trazado 991949" d="M124,62A62,62,0,0,1,19.145,106.8c-.465-.445,1.336-1.385.884-1.845a62.262,62.262,0,0,1-8.608-10.995c-.149-.243-2.557,0-2.7-.243A62,62,0,1,1,124,62Z" fill="#5f2bd6"/>
  <path id="Trazado_991950" data-name="Trazado 991950" d="M154.719,68.359A50.859,50.859,0,1,1,103.859,17.5,50.859,50.859,0,0,1,154.719,68.359Z" transform="translate(-40.164 -13.262)" fill="#bfaaef"/>
  <path id="Trazado_991951" data-name="Trazado 991951" d="M153.172,113.422v64.417a62.266,62.266,0,0,1-10.426,13.083H57.036A62.37,62.37,0,0,1,52.422,186c-.2-.239-.4-2.81-.6-3.052Q50.885,181.8,50,180.6V113.422A2.422,2.422,0,0,1,52.422,111H150.75A9.4,9.4,0,0,1,153.172,113.422Z" transform="translate(-37.891 -84.117)" fill="#fff5f5"/>
  <path id="Trazado_991952" data-name="Trazado 991952" d="M44.234,111a2.422,2.422,0,0,0-2.422,2.422V186A62.186,62.186,0,0,1,36,177.839V113.422A9.4,9.4,0,0,1,38.422,111Z" transform="translate(-27.281 -84.117)" fill="#e9f3fe"/>
  <path id="Trazado_991953" data-name="Trazado 991953" d="M153.172,73.422v9.688H83.906l-2.437-1.783H59.7l-2.437,1.783H52.394A2.394,2.394,0,0,1,50,80.716V75.078A4.079,4.079,0,0,1,54.078,71H150.75A2.422,2.422,0,0,1,153.172,73.422Z" transform="translate(-37.891 -53.805)" fill="#203e76"/>
  <path id="Trazado_991954" data-name="Trazado 991954" d="M44.234,71a2.422,2.422,0,0,0-2.422,2.422v9.688H36V73.422A2.422,2.422,0,0,1,38.422,71Z" transform="translate(-27.281 -53.805)" fill="#19305c"/>
  <path id="Trazado_991955" data-name="Trazado 991955" d="M106.641,93.422v4.844H80V93.422A2.422,2.422,0,0,1,82.422,91h21.8A2.422,2.422,0,0,1,106.641,93.422Z" transform="translate(-60.625 -68.961)" fill="#ffc14f"/>
  <path id="Trazado_991956" data-name="Trazado 991956" d="M374.219,88.422A2.422,2.422,0,1,1,371.8,86,2.422,2.422,0,0,1,374.219,88.422ZM362.109,86a2.422,2.422,0,1,0,2.422,2.422A2.422,2.422,0,0,0,362.109,86Zm-9.687,0a2.422,2.422,0,1,0,2.422,2.422A2.422,2.422,0,0,0,352.422,86Z" transform="translate(-265.234 -65.172)" fill="#6990d7"/>
  <path id="Trazado_991957" data-name="Trazado 991957" d="M143.586,212.969H124.211A1.211,1.211,0,0,1,123,211.758V151.211A1.211,1.211,0,0,1,124.211,150h19.375a1.211,1.211,0,0,1,1.211,1.211v60.547A1.211,1.211,0,0,1,143.586,212.969Zm44.8-1.211V151.211A1.211,1.211,0,0,0,187.18,150H167.8a1.211,1.211,0,0,0-1.211,1.211v60.547a1.211,1.211,0,0,0,1.211,1.211H187.18A1.211,1.211,0,0,0,188.391,211.758Z" transform="translate(-93.211 -113.672)" fill="#c8e2fd"/>
  <path id="Trazado_991958" data-name="Trazado 991958" d="M150.715,168.633h-10.9a1.816,1.816,0,1,1,0-3.633h10.9a1.816,1.816,0,1,1,0,3.633Zm1.816,5.449a1.816,1.816,0,0,0-1.816-1.816h-10.9a1.816,1.816,0,1,0,0,3.633h10.9A1.816,1.816,0,0,0,152.531,174.082Zm0,7.266a1.816,1.816,0,0,0-1.816-1.816h-10.9a1.816,1.816,0,1,0,0,3.633h10.9A1.816,1.816,0,0,0,152.531,181.348Zm0,7.266a1.816,1.816,0,0,0-1.816-1.816h-10.9a1.816,1.816,0,0,0,0,3.633h10.9A1.816,1.816,0,0,0,152.531,188.613Zm0,7.266a1.816,1.816,0,0,0-1.816-1.816h-10.9a1.816,1.816,0,0,0,0,3.633h10.9A1.816,1.816,0,0,0,152.531,195.879Zm0,7.266a1.816,1.816,0,0,0-1.816-1.816h-10.9a1.816,1.816,0,0,0,0,3.633h10.9A1.816,1.816,0,0,0,152.531,203.145Zm0,7.266a1.816,1.816,0,0,0-1.816-1.816h-10.9a1.816,1.816,0,0,0,0,3.633h10.9A1.816,1.816,0,0,0,152.531,210.41Zm0,7.266a1.816,1.816,0,0,0-1.816-1.816h-10.9a1.816,1.816,0,0,0,0,3.633h10.9A1.816,1.816,0,0,0,152.531,217.676Zm43.594-50.859A1.816,1.816,0,0,0,194.309,165h-10.9a1.816,1.816,0,0,0,0,3.633h10.9A1.816,1.816,0,0,0,196.125,166.816Zm0,7.266a1.816,1.816,0,0,0-1.816-1.816h-10.9a1.816,1.816,0,0,0,0,3.633h10.9A1.816,1.816,0,0,0,196.125,174.082Zm0,7.266a1.816,1.816,0,0,0-1.816-1.816h-10.9a1.816,1.816,0,0,0,0,3.633h10.9A1.816,1.816,0,0,0,196.125,181.348Zm0,7.266a1.816,1.816,0,0,0-1.816-1.816h-10.9a1.816,1.816,0,0,0,0,3.633h10.9A1.816,1.816,0,0,0,196.125,188.613Zm0,7.266a1.816,1.816,0,0,0-1.816-1.816h-10.9a1.816,1.816,0,0,0,0,3.633h10.9A1.816,1.816,0,0,0,196.125,195.879Zm0,7.266a1.816,1.816,0,0,0-1.816-1.816h-10.9a1.816,1.816,0,0,0,0,3.633h10.9A1.816,1.816,0,0,0,196.125,203.145Zm0,7.266a1.816,1.816,0,0,0-1.816-1.816h-10.9a1.816,1.816,0,0,0,0,3.633h10.9A1.816,1.816,0,0,0,196.125,210.41Zm0,7.266a1.816,1.816,0,0,0-1.816-1.816h-10.9a1.816,1.816,0,0,0,0,3.633h10.9A1.816,1.816,0,0,0,196.125,217.676Z" transform="translate(-104.578 -125.039)" fill="#91aee2"/>
  <path id="Trazado_991959" data-name="Trazado 991959" d="M77.331,196.816a1.816,1.816,0,0,1-1.816,1.816H70.944a1.816,1.816,0,1,1,0-3.633h4.571A1.816,1.816,0,0,1,77.331,196.816Z" transform="translate(-52.386 -147.773)" fill="#4172cc"/>
  <path id="Trazado_991960" data-name="Trazado 991960" d="M75.515,168.633H70.944a1.816,1.816,0,0,1,0-3.633h4.571a1.816,1.816,0,1,1,0,3.633Zm1.816,12.715a1.816,1.816,0,0,0-1.816-1.816H70.944a1.816,1.816,0,0,0,0,3.633h4.571A1.816,1.816,0,0,0,77.331,181.348Zm0,7.266a1.816,1.816,0,0,0-1.816-1.816H70.944a1.816,1.816,0,0,0,0,3.633h4.571A1.816,1.816,0,0,0,77.331,188.613Zm0,7.266a1.816,1.816,0,0,0-1.816-1.816H70.944a1.816,1.816,0,0,0,0,3.633h4.571A1.816,1.816,0,0,0,77.331,195.879Zm0,7.266a1.816,1.816,0,0,0-1.816-1.816H70.944a1.816,1.816,0,0,0,0,3.633h4.571A1.816,1.816,0,0,0,77.331,203.145Zm0,7.266a1.816,1.816,0,0,0-1.816-1.816H70.944a1.816,1.816,0,0,0,0,3.633h4.571A1.816,1.816,0,0,0,77.331,210.41Zm0,7.266a1.816,1.816,0,0,0-1.816-1.816H70.944a1.816,1.816,0,0,0,0,3.633h4.571A1.816,1.816,0,0,0,77.331,217.676Zm39.824-49.043h-4.571a1.816,1.816,0,0,1,0-3.633h4.571a1.816,1.816,0,1,1,0,3.633Zm1.816,5.449a1.816,1.816,0,0,0-1.816-1.816h-4.571a1.816,1.816,0,1,0,0,3.633h4.571A1.816,1.816,0,0,0,118.972,174.082Zm0,7.266a1.816,1.816,0,0,0-1.816-1.816h-4.571a1.816,1.816,0,0,0,0,3.633h4.571A1.816,1.816,0,0,0,118.972,181.348Zm0,7.266a1.816,1.816,0,0,0-1.816-1.816h-4.571a1.816,1.816,0,0,0,0,3.633h4.571A1.816,1.816,0,0,0,118.972,188.613Zm0,7.266a1.816,1.816,0,0,0-1.816-1.816h-4.571a1.816,1.816,0,0,0,0,3.633h4.571A1.816,1.816,0,0,0,118.972,195.879Zm0,7.266a1.816,1.816,0,0,0-1.816-1.816h-4.571a1.816,1.816,0,0,0,0,3.633h4.571A1.816,1.816,0,0,0,118.972,203.145Zm44.063-36.328A1.816,1.816,0,0,0,161.218,165h-4.571a1.816,1.816,0,1,0,0,3.633h4.571A1.816,1.816,0,0,0,163.035,166.816Zm0,7.266a1.816,1.816,0,0,0-1.816-1.816h-4.571a1.816,1.816,0,1,0,0,3.633h4.571A1.816,1.816,0,0,0,163.035,174.082Zm0,7.266a1.816,1.816,0,0,0-1.816-1.816h-4.571a1.816,1.816,0,1,0,0,3.633h4.571A1.816,1.816,0,0,0,163.035,181.348Zm0,7.266a1.816,1.816,0,0,0-1.816-1.816h-4.571a1.816,1.816,0,0,0,0,3.633h4.571A1.816,1.816,0,0,0,163.035,188.613Z" transform="translate(-52.386 -125.039)" fill="#a7d0fc"/>
  <path id="Trazado_991961" data-name="Trazado 991961" d="M342.859,290v46.016H292V290Z" transform="translate(-221.281 -219.766)" fill="#19305c"/>
  <path id="Trazado_991962" data-name="Trazado 991962" d="M313.795,309.961V322.07a1.211,1.211,0,0,1-1.211,1.211H283.211A1.211,1.211,0,0,1,282,322.07V309.961a1.211,1.211,0,0,1,1.211-1.211h29.373A1.211,1.211,0,0,1,313.795,309.961ZM312.584,270H283.211A1.211,1.211,0,0,0,282,271.211V283.32a1.211,1.211,0,0,0,1.211,1.211h29.373a1.211,1.211,0,0,0,1.211-1.211V271.211A1.211,1.211,0,0,0,312.584,270Z" transform="translate(-213.703 -204.609)" fill="#203e76"/>
  <path id="Trazado_991963" data-name="Trazado 991963" d="M419.926,309.961V322.07a1.211,1.211,0,0,1-1.211,1.211h-27a1.211,1.211,0,0,1-1.211-1.211V309.961a1.211,1.211,0,0,1,1.211-1.211h27A1.211,1.211,0,0,1,419.926,309.961ZM418.715,270h-27a1.211,1.211,0,0,0-1.211,1.211V283.32a1.211,1.211,0,0,0,1.211,1.211h27a1.211,1.211,0,0,0,1.211-1.211V271.211A1.211,1.211,0,0,0,418.715,270Zm0,19.375h-27a1.211,1.211,0,0,0-1.211,1.211V302.7a1.211,1.211,0,0,0,1.211,1.211h27a1.211,1.211,0,0,0,1.211-1.211V290.586A1.211,1.211,0,0,0,418.715,289.375Z" transform="translate(-295.926 -204.609)" fill="#274c91"/>
  <path id="Trazado_991964" data-name="Trazado 991964" d="M438.981,292.5a2.422,2.422,0,1,1-2.422,2.422A2.422,2.422,0,0,1,438.981,292.5Zm-12.109,20.828a2.422,2.422,0,1,0,2.422-2.422A2.422,2.422,0,0,0,426.872,313.328Zm9.688,19.738a2.422,2.422,0,1,0,2.422-2.422A2.422,2.422,0,0,0,436.56,333.066Z" transform="translate(-323.489 -221.66)" fill="#91aee2"/>
  <path id="Trazado_991965" data-name="Trazado 991965" d="M429.294,292.5a2.422,2.422,0,1,1-2.422,2.422A2.422,2.422,0,0,1,429.294,292.5Zm7.266,20.828a2.422,2.422,0,1,0,2.422-2.422A2.422,2.422,0,0,0,436.56,313.328Zm-9.687,19.738a2.422,2.422,0,1,0,2.422-2.422A2.422,2.422,0,0,0,426.872,333.066Z" transform="translate(-323.489 -221.66)" fill="#6990d7"/>
  <path id="Trazado_991966" data-name="Trazado 991966" d="M264.36,342.847a23.2,23.2,0,0,1-4.18,13.321,17.98,17.98,0,0,1-2.379,2.286,23.309,23.309,0,0,1-32.361-32.343,17.779,17.779,0,0,1,2.205-2.328,23.308,23.308,0,0,1,36.715,19.064Z" transform="translate(-167.833 -242.152)" fill="#fb5858"/>
  <path id="Trazado_991967" data-name="Trazado 991967" d="M248.65,368.732a23.307,23.307,0,1,1-32.4-32.4,23.308,23.308,0,0,0,32.4,32.4Z" transform="translate(-156.19 -254.88)" fill="#f44545"/>
  <path id="Trazado_991968" data-name="Trazado 991968" d="M328.577,328.038v.006a.572.572,0,0,1-.574.568H300.539a.574.574,0,0,1-.574-.574V300.574a.573.573,0,0,1,.568-.574h.006A28.038,28.038,0,0,1,328.577,328.038Z" transform="translate(-227.317 -227.344)" fill="#ffc14f"/>
  <path id="Trazado_991969" data-name="Trazado 991969" d="M305.131,328.612h-4.593a.574.574,0,0,1-.574-.574V300.574a.573.573,0,0,1,.568-.574h.006a28.264,28.264,0,0,1,4.09.3.575.575,0,0,0-.071.278v27.464a.574.574,0,0,0,.574.574Z" transform="translate(-227.316 -227.344)" fill="#ffb52d"/>
</svg>
