<svg id="Grupo_1177398" data-name="Grupo 1177398" xmlns="http://www.w3.org/2000/svg" width="124.287" height="124.287" viewBox="0 0 124.287 124.287">
  <path id="Trazado_992249" data-name="Trazado 992249" d="M122.794,62.144c0,34.321-26.409,60.552-60.73,60.552-5.222,0-10.047.065-14.893-1.148-1.115-.279-2.386.294-3.477-.044a62.151,62.151,0,1,1,80.428-63.914C124.232,59.093,122.794,60.612,122.794,62.144Z" fill="#5f2bd6"/>
  <path id="Trazado_992250" data-name="Trazado 992250" d="M147.685,103.563A52.245,52.245,0,1,1,95.44,51.318,52.245,52.245,0,0,1,147.685,103.563Z" transform="translate(-32.709 -38.861)" fill="#bfaaef"/>
  <path id="Trazado_992251" data-name="Trazado 992251" d="M118.592,72.609V128.2a2.427,2.427,0,0,1-2.427,2.427H42.991a2.427,2.427,0,0,1-2.427-2.427V72.609a2.427,2.427,0,0,1,2.427-2.427h73.173A2.427,2.427,0,0,1,118.592,72.609Z" transform="translate(-30.717 -53.145)" fill="#c8e2fd"/>
  <path id="Trazado_992252" data-name="Trazado 992252" d="M36.228,130.626h-4.4A1.832,1.832,0,0,1,30,128.795V72.014a1.832,1.832,0,0,1,1.832-1.832h4.4A1.832,1.832,0,0,0,34.4,72.014v56.781A1.832,1.832,0,0,0,36.228,130.626Z" transform="translate(-22.718 -53.145)" fill="#a7d0fc"/>
  <path id="Trazado_992253" data-name="Trazado 992253" d="M118.592,41.832v7.327H66.207L64.364,47.81H47.9l-1.843,1.348H42.374a1.81,1.81,0,0,1-1.81-1.81V43.085A3.085,3.085,0,0,1,43.649,40H116.76A1.832,1.832,0,0,1,118.592,41.832Z" transform="translate(-30.717 -30.29)" fill="#274c91"/>
  <path id="Trazado_992254" data-name="Trazado 992254" d="M36.228,40A1.832,1.832,0,0,0,34.4,41.832v7.327H30V41.832A1.832,1.832,0,0,1,31.832,40Z" transform="translate(-22.718 -30.29)" fill="#203e76"/>
  <path id="Trazado_992255" data-name="Trazado 992255" d="M68.566,112.767v42.988a1.214,1.214,0,0,1-1.214,1.214h-20.6a1.214,1.214,0,0,1-1.214-1.214V112.767a1.214,1.214,0,0,1,1.214-1.214h20.6A1.214,1.214,0,0,1,68.566,112.767Z" transform="translate(-34.481 -84.474)" fill="#a7d0fc"/>
  <path id="Trazado_992256" data-name="Trazado 992256" d="M97.4,153.547a1.821,1.821,0,0,1-1.821,1.821h-5.8a1.821,1.821,0,1,1,0-3.641h5.8a1.821,1.821,0,0,1,1.821,1.821Zm-1.821,5.462h-5.8a1.821,1.821,0,1,0,0,3.641h5.8a1.821,1.821,0,0,0,0-3.641Zm-5.8-32.771h5.8a1.821,1.821,0,0,0,0-3.641h-5.8a1.821,1.821,0,0,0,0,3.641Zm5.8,10.924h-5.8a1.821,1.821,0,0,0,0,3.641h5.8a1.821,1.821,0,0,0,0-3.641Zm0,7.282h-5.8a1.821,1.821,0,1,0,0,3.641h5.8a1.821,1.821,0,0,0,0-3.641Zm0-14.565h-5.8a1.821,1.821,0,1,0,0,3.641h5.8a1.821,1.821,0,0,0,0-3.641Z" transform="translate(-66.607 -92.837)" fill="#76b6fa"/>
  <path id="Trazado_992257" data-name="Trazado 992257" d="M80.25,60.586H60.1V57.518a2.427,2.427,0,0,1,2.427-2.427H77.823a2.427,2.427,0,0,1,2.427,2.427Zm47.178,52.366V70.011a1.214,1.214,0,0,0-1.214-1.214H83.274a1.214,1.214,0,0,0-1.214,1.214v42.941a1.214,1.214,0,0,0,1.214,1.214h42.941A1.214,1.214,0,0,0,127.428,112.951Zm-66-26.909h-.5a1.821,1.821,0,0,0,0,3.641h.5a1.821,1.821,0,1,0,0-3.641Z" transform="translate(-44.76 -41.718)" fill="#f44545"/>
  <path id="Trazado_992258" data-name="Trazado 992258" d="M63.245,160.83a1.821,1.821,0,0,1-1.821,1.821h-.5a1.821,1.821,0,1,1,0-3.641h.5A1.821,1.821,0,0,1,63.245,160.83Zm-2.317-34.592h.5a1.821,1.821,0,0,0,0-3.641h-.5a1.821,1.821,0,1,0,0,3.641Zm.5,25.489h-.5a1.821,1.821,0,1,0,0,3.641h.5a1.821,1.821,0,1,0,0-3.641Zm0-21.847h-.5a1.821,1.821,0,1,0,0,3.641h.5a1.821,1.821,0,1,0,0-3.641Zm0,14.565h-.5a1.821,1.821,0,1,0,0,3.641h.5a1.821,1.821,0,1,0,0-3.641Z" transform="translate(-44.76 -92.837)" fill="#4172cc"/>
  <path id="Trazado_992259" data-name="Trazado 992259" d="M193.592,169.018v55.589a2.427,2.427,0,0,1-2.427,2.427H117.991a2.427,2.427,0,0,1-2.427-2.427V169.018a2.427,2.427,0,0,1,2.427-2.427h73.173A2.427,2.427,0,0,1,193.592,169.018Z" transform="translate(-87.511 -126.151)" fill="#c8e2fd"/>
  <path id="Trazado_992260" data-name="Trazado 992260" d="M111.228,227.035h-4.4A1.832,1.832,0,0,1,105,225.2V168.422a1.832,1.832,0,0,1,1.832-1.832h4.4a1.832,1.832,0,0,0-1.832,1.832V225.2a1.831,1.831,0,0,0,1.832,1.832Z" transform="translate(-79.512 -126.151)" fill="#a7d0fc"/>
  <path id="Trazado_992261" data-name="Trazado 992261" d="M193.591,138.242v7.327H141.206l-1.843-1.348H122.9l-1.843,1.348h-3.685a1.81,1.81,0,0,1-1.81-1.81v-4.263a3.085,3.085,0,0,1,3.085-3.085h73.112a1.831,1.831,0,0,1,1.832,1.832Z" transform="translate(-87.51 -103.297)" fill="#274c91"/>
  <path id="Trazado_992262" data-name="Trazado 992262" d="M111.228,136.409a1.832,1.832,0,0,0-1.832,1.832v7.327H105v-7.327a1.832,1.832,0,0,1,1.832-1.832Z" transform="translate(-79.511 -103.296)" fill="#203e76"/>
  <path id="Trazado_992263" data-name="Trazado 992263" d="M141.351,209.592V252.58a1.214,1.214,0,0,1-1.214,1.214h-20.6a1.214,1.214,0,0,1-1.214-1.214V209.592a1.214,1.214,0,0,1,1.214-1.214h20.6A1.214,1.214,0,0,1,141.351,209.592Z" transform="translate(-89.597 -157.795)" fill="#a7d0fc"/>
  <path id="Trazado_992264" data-name="Trazado 992264" d="M170.182,257.655a1.821,1.821,0,0,1-1.821,1.821h-5.8a1.821,1.821,0,0,1,0-3.641h5.8A1.821,1.821,0,0,1,170.182,257.655Zm-7.617-34.592h5.8a1.821,1.821,0,1,0,0-3.641h-5.8a1.821,1.821,0,1,0,0,3.641Zm5.8,25.489h-5.8a1.821,1.821,0,0,0,0,3.641h5.8a1.821,1.821,0,0,0,0-3.641Zm0-21.847h-5.8a1.821,1.821,0,0,0,0,3.641h5.8a1.821,1.821,0,0,0,0-3.641Zm0,14.565h-5.8a1.821,1.821,0,0,0,0,3.641h5.8a1.821,1.821,0,0,0,0-3.641Zm0-7.282h-5.8a1.821,1.821,0,0,0,0,3.641h5.8a1.821,1.821,0,0,0,0-3.641Z" transform="translate(-121.724 -166.158)" fill="#76b6fa"/>
  <path id="Trazado_992265" data-name="Trazado 992265" d="M153.573,156.995H133.425v-3.067a2.427,2.427,0,0,1,2.427-2.427h15.293a2.427,2.427,0,0,1,2.427,2.427ZM201.2,209.461V166.521a1.214,1.214,0,0,0-1.214-1.214H157.041a1.214,1.214,0,0,0-1.214,1.214v42.941a1.214,1.214,0,0,0,1.214,1.214h42.941A1.214,1.214,0,0,0,201.2,209.461Zm-65.165-32.37a1.821,1.821,0,0,1-1.821,1.821h-.5a1.821,1.821,0,0,1,0-3.641h.5A1.821,1.821,0,0,1,136.031,177.091Z" transform="translate(-99.877 -114.724)" fill="#6dc54a"/>
  <path id="Trazado_992266" data-name="Trazado 992266" d="M134.21,248.552h-.5a1.821,1.821,0,0,0,0,3.641h.5a1.821,1.821,0,0,0,0-3.641Zm-.5-25.489h.5a1.821,1.821,0,0,0,0-3.641h-.5a1.821,1.821,0,0,0,0,3.641Zm.5,32.771h-.5a1.821,1.821,0,0,0,0,3.641h.5a1.821,1.821,0,0,0,0-3.641Zm0-21.847h-.5a1.821,1.821,0,0,0,0,3.641h.5a1.821,1.821,0,0,0,0-3.641Zm0,7.282h-.5a1.821,1.821,0,0,0,0,3.641h.5a1.821,1.821,0,0,0,0-3.641Z" transform="translate(-99.877 -166.158)" fill="#4172cc"/>
  <path id="Trazado_992267" data-name="Trazado 992267" d="M268.5,264.755a62.259,62.259,0,0,1-1.033,8.389c-.171.885-2.185,1.085-2.393,1.956a62.271,62.271,0,0,1-33.338,41.457c-.923.448-.034,1.552-.982,1.956a62.464,62.464,0,0,1-38.342,3.34c-.312-.072-.624-1.071-.935-1.148q-.442-.109-.882-.225a2.449,2.449,0,0,1-.031-.387V265.427A2.427,2.427,0,0,1,192.991,263h73.173A2.429,2.429,0,0,1,268.5,264.755Z" transform="translate(-144.305 -199.157)" fill="#fff5f5"/>
  <path id="Trazado_992268" data-name="Trazado 992268" d="M184.4,264.832v56.781a1.859,1.859,0,0,0,.016.24q-2.238-.517-4.411-1.192V264.832A1.832,1.832,0,0,1,181.832,263h4.4A1.832,1.832,0,0,0,184.4,264.832Z" transform="translate(-136.305 -199.157)" fill="#e9f3fe"/>
  <path id="Trazado_992269" data-name="Trazado 992269" d="M268.591,238.445q0,1.778-.1,3.531H216.206l-1.843-1.348H197.9l-1.843,1.348h-3.685a1.81,1.81,0,0,1-1.81-1.81V235.9a3.085,3.085,0,0,1,3.085-3.085h73.112a1.832,1.832,0,0,1,1.667,1.072Q268.59,236.147,268.591,238.445Z" transform="translate(-144.304 -176.302)" fill="#274c91"/>
  <path id="Trazado_992270" data-name="Trazado 992270" d="M186.228,232.818a1.832,1.832,0,0,0-1.832,1.832v7.327H180V234.65a1.832,1.832,0,0,1,1.832-1.832Z" transform="translate(-136.305 -176.302)" fill="#203e76"/>
  <path id="Trazado_992271" data-name="Trazado 992271" d="M283.412,51.318a1.832,1.832,0,1,1-1.832,1.832A1.832,1.832,0,0,1,283.412,51.318Zm-9.158,1.832a1.832,1.832,0,1,0,1.832-1.832A1.832,1.832,0,0,0,274.254,53.15Zm-7.327,0a1.832,1.832,0,1,0,1.832-1.832A1.832,1.832,0,0,0,266.927,53.15Zm32.859,23.4a1.832,1.832,0,1,0,1.832-1.832A1.832,1.832,0,0,0,299.786,76.553Zm-7.327,0a1.832,1.832,0,1,0,1.832-1.832A1.832,1.832,0,0,0,292.46,76.553Zm-7.327,0a1.832,1.832,0,1,0,1.832-1.832A1.832,1.832,0,0,0,285.133,76.553Zm34.691,21.571a1.832,1.832,0,1,0,1.832,1.832A1.832,1.832,0,0,0,319.824,98.124Zm-5.495,1.832a1.832,1.832,0,1,1-1.832-1.832A1.832,1.832,0,0,1,314.329,99.956Zm-7.327,0a1.832,1.832,0,1,1-1.832-1.832A1.832,1.832,0,0,1,307,99.956Z" transform="translate(-202.131 -38.861)" fill="#4172cc"/>
  <path id="Trazado_992272" data-name="Trazado 992272" d="M218.424,350.008h-20.6a1.214,1.214,0,0,1-1.214-1.214V305.807a1.214,1.214,0,0,1,1.214-1.214h20.6a1.214,1.214,0,0,1,1.214,1.214v42.988A1.214,1.214,0,0,1,218.424,350.008Z" transform="translate(-148.88 -230.654)" fill="#a7d0fc"/>
  <path id="Trazado_992273" data-name="Trazado 992273" d="M239.032,317.458a1.821,1.821,0,0,1,1.821-1.821h5.8a1.821,1.821,0,1,1,0,3.641h-5.8A1.821,1.821,0,0,1,239.032,317.458Zm7.618,5.462h-5.8a1.821,1.821,0,1,0,0,3.641h5.8a1.821,1.821,0,1,0,0-3.641Zm0,7.282h-5.8a1.821,1.821,0,1,0,0,3.641h5.8a1.821,1.821,0,1,0,0-3.641Zm0,7.282h-5.8a1.821,1.821,0,1,0,0,3.641h5.8a1.821,1.821,0,1,0,0-3.641Zm0,7.282h-5.8a1.821,1.821,0,1,0,0,3.641h5.8a1.821,1.821,0,0,0,0-3.641Zm0,7.282h-5.8a1.821,1.821,0,1,0,0,3.641h5.8a1.821,1.821,0,1,0,0-3.641Z" transform="translate(-181.007 -239.017)" fill="#76b6fa"/>
  <path id="Trazado_992274" data-name="Trazado 992274" d="M212.5,345.637H212a1.821,1.821,0,0,0,0,3.641h.5a1.821,1.821,0,1,0,0-3.641Zm0,7.282H212a1.821,1.821,0,1,0,0,3.641h.5a1.821,1.821,0,1,0,0-3.641Zm0,7.282H212a1.821,1.821,0,1,0,0,3.641h.5a1.821,1.821,0,1,0,0-3.641Zm0,7.282H212a1.821,1.821,0,1,0,0,3.641h.5a1.821,1.821,0,1,0,0-3.641Zm0,7.282H212a1.821,1.821,0,1,0,0,3.641h.5a1.821,1.821,0,1,0,0-3.641Z" transform="translate(-159.16 -261.734)" fill="#4172cc"/>
  <path id="Trazado_992275" data-name="Trazado 992275" d="M231.062,250.336V253.4H210.914v-3.067a2.427,2.427,0,0,1,2.427-2.427h15.293A2.427,2.427,0,0,1,231.062,250.336Zm51.258,11.38a61.951,61.951,0,0,1-14.789,29.69c-.172.191-1.227.088-1.4.277q-1.21,1.313-2.494,2.556c-.179.173.524.637.343.808q-2.024,1.912-4.214,3.641c-.333.263-1.434.164-1.773.42q-1.7,1.288-3.495,2.46c-.208.136.35.628.14.761a61.963,61.963,0,0,1-9.029,4.755H234.877a1.214,1.214,0,0,1-1.214-1.214V262.93a1.214,1.214,0,0,1,1.214-1.214Zm-72.139,4.454A1.821,1.821,0,0,1,212,264.35h.5a1.821,1.821,0,0,1,0,3.641H212A1.821,1.821,0,0,1,210.181,266.17Z" transform="translate(-159.16 -187.73)" fill="#ffc14f"/>
  <path id="Trazado_992276" data-name="Trazado 992276" d="M382.457,434.375h6.385a62.283,62.283,0,0,1-5.127,3.641h-1.258a1.821,1.821,0,1,1,0-3.641Zm0-7.282a1.821,1.821,0,1,0,0,3.641h10.6q1.849-1.747,3.552-3.641Z" transform="translate(-288.237 -323.417)" fill="#ffa90b"/>
  <path id="Trazado_992277" data-name="Trazado 992277" d="M330.636,428.914a1.821,1.821,0,0,1,1.821-1.821H336.1a1.821,1.821,0,1,1,0,3.641h-3.641A1.82,1.82,0,0,1,330.636,428.914Zm1.821,9.1H336.1a1.821,1.821,0,1,0,0-3.641h-3.641a1.821,1.821,0,1,0,0,3.641Z" transform="translate(-250.375 -323.417)" fill="#f29500"/>
  <path id="Trazado_992278" data-name="Trazado 992278" d="M348.8,326.679l-6.577,16.535a1.821,1.821,0,1,1-3.383-1.346l6.577-16.535a1.821,1.821,0,0,1,3.383,1.346Zm12.143,6.505-4.416-7.325a1.821,1.821,0,0,0-3.118,1.88l3.86,6.4-3.877,6.693a1.821,1.821,0,1,0,3.151,1.825l4.416-7.624A1.82,1.82,0,0,0,360.94,333.184Zm-30.033.959,3.86-6.4a1.821,1.821,0,1,0-3.118-1.88l-4.416,7.325a1.82,1.82,0,0,0-.016,1.852l4.416,7.624a1.821,1.821,0,0,0,3.151-1.825Z" transform="translate(-247.6 -245.489)" fill="#fff"/>
</svg>
