<svg id="Grupo_1177401" data-name="Grupo 1177401" xmlns="http://www.w3.org/2000/svg" width="127.833" height="127.833" viewBox="0 0 127.833 127.833">
  <path id="Trazado_992320" data-name="Trazado 992320" d="M127.833,63.917A63.917,63.917,0,1,1,63.917,0,63.916,63.916,0,0,1,127.833,63.917Z" fill="#5f2bd6"/>
  <path id="Trazado_992321" data-name="Trazado 992321" d="M166.864,88.667a51.433,51.433,0,1,1-51.433-51.433A51.433,51.433,0,0,1,166.864,88.667Z" transform="translate(-48.019 -27.938)" fill="#bfaaef"/>
  <path id="Trazado_992322" data-name="Trazado 992322" d="M156.361,114.5v65.405a64.191,64.191,0,0,1-10.749,13.487H52.5a2.5,2.5,0,0,1-2.5-2.5V113.5a2.5,2.5,0,0,1,2.5-2.5H153.864a2.486,2.486,0,0,1,.26.013q1.173,1.7,2.237,3.487Z" transform="translate(-37.516 -83.286)" fill="#fff5f5"/>
  <path id="Trazado_992323" data-name="Trazado 992323" d="M44.489,193.392H38.5a2.5,2.5,0,0,1-2.5-2.5V113.5a2.5,2.5,0,0,1,2.5-2.5h5.992a2.5,2.5,0,0,0-2.5,2.5v77.4A2.5,2.5,0,0,0,44.489,193.392Z" transform="translate(-27.012 -83.286)" fill="#c9f0ff"/>
  <path id="Trazado_992324" data-name="Trazado 992324" d="M156.361,73.5v9.987H84.954l-2.513-1.838H60L57.49,83.484H52.468A2.468,2.468,0,0,1,50,81.016V75.2A4.2,4.2,0,0,1,54.2,71h99.66A2.5,2.5,0,0,1,156.361,73.5Z" transform="translate(-37.516 -53.273)" fill="#314dca"/>
  <path id="Trazado_992325" data-name="Trazado 992325" d="M44.489,71a2.5,2.5,0,0,0-2.5,2.5v9.987H36V73.5A2.5,2.5,0,0,1,38.5,71Z" transform="translate(-27.012 -53.273)" fill="#2740b1"/>
  <path id="Trazado_992326" data-name="Trazado 992326" d="M354.993,88.5a2.5,2.5,0,1,1-2.5-2.5A2.5,2.5,0,0,1,354.993,88.5ZM372.471,86a2.5,2.5,0,1,0,2.5,2.5A2.5,2.5,0,0,0,372.471,86Zm-9.987,0a2.5,2.5,0,1,0,2.5,2.5A2.5,2.5,0,0,0,362.484,86Z" transform="translate(-262.614 -64.528)" fill="#6c7fd9"/>
  <path id="Trazado_992327" data-name="Trazado 992327" d="M107.464,93.5V98.49H80V93.5A2.5,2.5,0,0,1,82.5,91h22.471A2.5,2.5,0,0,1,107.464,93.5Z" transform="translate(-60.026 -68.28)" fill="#00e294"/>
  <path id="Trazado_992328" data-name="Trazado 992328" d="M91.363,152.5v59.922a2.5,2.5,0,0,1-2.5,2.5H82.5a2.5,2.5,0,0,1-2.5-2.5V152.5a2.5,2.5,0,0,1,2.5-2.5h6.369A2.5,2.5,0,0,1,91.363,152.5Z" transform="translate(-60.026 -112.549)" fill="#0091d0"/>
  <path id="Trazado_992329" data-name="Trazado 992329" d="M123.221,152.5v59.922a2.5,2.5,0,0,1-2.5,2.5H103.5a2.5,2.5,0,0,1-2.5-2.5V152.5a2.5,2.5,0,0,1,2.5-2.5h17.227A2.5,2.5,0,0,1,123.221,152.5Z" transform="translate(-75.783 -112.549)" fill="#00aaf2"/>
  <path id="Trazado_992330" data-name="Trazado 992330" d="M136.682,222.432a2.5,2.5,0,0,1-2.5,2.5h-3.343a2.5,2.5,0,1,1,0-4.993h3.343A2.5,2.5,0,0,1,136.682,222.432Zm1.064-12.484h-6.9a2.5,2.5,0,0,0,0,4.993h6.9a2.5,2.5,0,1,0,0-4.993Zm-6.9-34.954h6.9a2.5,2.5,0,1,0,0-4.993h-6.9a2.5,2.5,0,0,0,0,4.993Zm0,19.974h3.343a2.5,2.5,0,1,0,0-4.993h-3.343a2.5,2.5,0,1,0,0,4.993Zm6.9,4.993h-6.9a2.5,2.5,0,0,0,0,4.993h6.9a2.5,2.5,0,1,0,0-4.993Zm0-19.974h-6.9a2.5,2.5,0,1,0,0,4.993h6.9a2.5,2.5,0,1,0,0-4.993Z" transform="translate(-96.301 -127.555)" fill="#0091d0"/>
  <path id="Trazado_992331" data-name="Trazado 992331" d="M99,222.432a2.5,2.5,0,1,1-2.5-2.5A2.5,2.5,0,0,1,99,222.432Zm-2.5-12.484a2.5,2.5,0,1,0,2.5,2.5A2.5,2.5,0,0,0,96.5,209.948Zm0-34.954a2.5,2.5,0,1,0-2.5-2.5A2.5,2.5,0,0,0,96.5,174.993Zm0,14.98a2.5,2.5,0,1,0,2.5,2.5A2.5,2.5,0,0,0,96.5,189.974Zm0,9.987a2.5,2.5,0,1,0,2.5,2.5A2.5,2.5,0,0,0,96.5,199.961Zm0-19.974a2.5,2.5,0,1,0,2.5,2.5A2.5,2.5,0,0,0,96.5,179.987Z" transform="translate(-70.535 -127.555)" fill="#9ae7fd"/>
  <path id="Trazado_992332" data-name="Trazado 992332" d="M267.425,152.5V166.35a2.5,2.5,0,0,1-2.5,2.5H212.5a2.5,2.5,0,0,1-2.5-2.5V152.5a2.5,2.5,0,0,1,2.5-2.5h52.432A2.5,2.5,0,0,1,267.425,152.5Z" transform="translate(-157.569 -112.549)" fill="#64dcfc"/>
  <path id="Trazado_992333" data-name="Trazado 992333" d="M218.053,168.846H212.5a2.5,2.5,0,0,1-2.5-2.5V152.5a2.5,2.5,0,0,1,2.5-2.5h5.556a2.5,2.5,0,0,0-2.5,2.5V166.35A2.5,2.5,0,0,0,218.053,168.846Z" transform="translate(-157.569 -112.549)" fill="#00d1fc"/>
  <path id="Trazado_992334" data-name="Trazado 992334" d="M287.433,168.224v4.468a2.5,2.5,0,1,1-4.993,0v-4.468a2.5,2.5,0,0,1,4.993,0Zm-42.681,1.971a2.5,2.5,0,1,0,2.5,2.5A2.5,2.5,0,0,0,244.752,170.194Zm10.223-7.527a2.5,2.5,0,0,0-2.5,2.5v7.527a2.5,2.5,0,1,0,4.993,0v-7.527A2.5,2.5,0,0,0,254.975,162.667Zm9.987,4.5a2.5,2.5,0,0,0-2.5,2.5v3.023a2.5,2.5,0,0,0,4.993,0v-3.023A2.5,2.5,0,0,0,264.962,167.172Zm9.987-4.5a2.5,2.5,0,0,0-2.5,2.5v7.527a2.5,2.5,0,1,0,4.993,0v-7.527A2.5,2.5,0,0,0,274.949,162.667Z" transform="translate(-181.77 -122.053)" fill="#00aaf2"/>
  <path id="Trazado_992335" data-name="Trazado 992335" d="M267.425,244.755v13.853a2.5,2.5,0,0,1-2.5,2.5H212.5a2.5,2.5,0,0,1-2.5-2.5V244.755a2.5,2.5,0,0,1,2.5-2.5h52.432A2.5,2.5,0,0,1,267.425,244.755Z" transform="translate(-157.569 -181.773)" fill="#ff5e95"/>
  <path id="Trazado_992336" data-name="Trazado 992336" d="M218.053,261.1H212.5a2.5,2.5,0,0,1-2.5-2.5V244.755a2.5,2.5,0,0,1,2.5-2.5h5.556a2.5,2.5,0,0,0-2.5,2.5v13.853A2.5,2.5,0,0,0,218.053,261.1Z" transform="translate(-157.569 -181.773)" fill="#ff3980"/>
  <path id="Trazado_992337" data-name="Trazado 992337" d="M267.425,337.013v13.853a2.5,2.5,0,0,1-2.5,2.5H212.5a2.5,2.5,0,0,1-2.5-2.5V337.013a2.5,2.5,0,0,1,2.5-2.5h52.432A2.5,2.5,0,0,1,267.425,337.013Z" transform="translate(-157.569 -250.996)" fill="#00e294"/>
  <path id="Trazado_992338" data-name="Trazado 992338" d="M218.053,353.362H212.5a2.5,2.5,0,0,1-2.5-2.5V337.013a2.5,2.5,0,0,1,2.5-2.5h5.556a2.5,2.5,0,0,0-2.5,2.5v13.853A2.5,2.5,0,0,0,218.053,353.362Z" transform="translate(-157.569 -250.996)" fill="#00d683"/>
  <path id="Trazado_992339" data-name="Trazado 992339" d="M342.063,352.766v.188l1.766,1.765a2.5,2.5,0,1,1-3.531,3.531l-3.625-3.625a2.5,2.5,0,0,1,0-3.531l3.625-3.625A2.5,2.5,0,0,1,343.829,351Zm13.65-1.672-3.625-3.625A2.5,2.5,0,1,0,348.556,351l1.766,1.765v.188l-1.766,1.766a2.5,2.5,0,0,0,3.531,3.531l3.625-3.625a2.5,2.5,0,0,0,0-3.531Z" transform="translate(-252.065 -260.167)" fill="#5dffb9"/>
  <path id="Trazado_992340" data-name="Trazado 992340" d="M301.812,292.217a3.477,3.477,0,0,0-1.607-.916,28.965,28.965,0,0,0,3.181-6.712c.112-.344-2.487-.691-2.388-1.041a29.121,29.121,0,0,0,1.1-7.95c0-16.069-11.023-26.8-27.092-26.8-3.02,0-5.231-1.84-7.97-.986A28.967,28.967,0,0,0,260,251.1a3.5,3.5,0,0,0-5.858-1.607l-4.545,4.545a3.5,3.5,0,0,0,1.607,5.859,28.929,28.929,0,0,0-3.93,9.482A3.5,3.5,0,0,0,242,272.385v6.427a3.5,3.5,0,0,0,5.277,3.008,28.929,28.929,0,0,0,3.93,9.482,3.5,3.5,0,0,0-1.607,5.859l4.545,4.545A3.5,3.5,0,0,0,260,300.1a28.929,28.929,0,0,0,9.482,3.93,3.5,3.5,0,0,0,3.008,5.277h6.427a3.5,3.5,0,0,0,3.008-5.277,28.93,28.93,0,0,0,9.482-3.93,3.5,3.5,0,0,0,5.859,1.607l4.545-4.545A3.5,3.5,0,0,0,301.812,292.217Zm-26.106,3.833A20.452,20.452,0,1,1,296.158,275.6,20.452,20.452,0,0,1,275.706,296.05Z" transform="translate(-181.579 -185.774)" fill="#2740b1"/>
  <path id="Trazado_992341" data-name="Trazado 992341" d="M375.648,255.261v6.427a3.5,3.5,0,0,1-5.277,3.008,28.862,28.862,0,0,1-.967,3.415,4.323,4.323,0,1,1-8.14-2.915A20.466,20.466,0,0,0,335.9,238.93a4.328,4.328,0,0,1-5.624-4.12v0a4.3,4.3,0,0,1,2.995-4.114q1.2-.375,2.45-.647a3.5,3.5,0,0,1,3.008-5.277h6.427a3.5,3.5,0,0,1,3.012,5.27,28.929,28.929,0,0,1,9.486,3.9,3.5,3.5,0,0,1,5.85-1.573l4.545,4.545a3.5,3.5,0,0,1-1.571,5.849,28.892,28.892,0,0,1,3.9,9.486,3.5,3.5,0,0,1,5.27,3.012Z" transform="translate(-247.815 -168.65)" fill="#314dca"/>
  <path id="Trazado_992342" data-name="Trazado 992342" d="M313.215,274.759a21.225,21.225,0,1,0,21.225,21.225A21.225,21.225,0,0,0,313.215,274.759Zm0,36.634a15.41,15.41,0,1,1,15.41-15.41A15.41,15.41,0,0,1,313.215,311.393Z" transform="translate(-219.088 -206.159)" fill="#4f66d1"/>
  <path id="Trazado_992343" data-name="Trazado 992343" d="M387.306,295.986a21.447,21.447,0,0,1-.145,2.492,2.908,2.908,0,0,1-5.774-.69,15.421,15.421,0,0,0-15.305-17.212c-.187,0-.4,0-.631.01a2.908,2.908,0,1,1-.16-5.814c.292-.007.563-.011.792-.011A21.224,21.224,0,0,1,387.306,295.986Z" transform="translate(-271.954 -206.161)" fill="#6c7fd9"/>
</svg>
